{"glyphs":{"0":{"ha":810,"x_min":75,"x_max":735,"o":"m 621 422 q 591 622 621 546 q 513 732 561 697 q 404 767 464 767 q 297 731 346 767 q 218 619 247 696 q 189 422 189 543 q 246 166 189 256 q 404 76 303 76 q 564 166 507 76 q 621 422 621 256 m 404 -18 q 233 30 307 -18 q 117 176 158 78 q 75 422 75 274 q 122 678 75 582 q 244 817 169 774 q 404 861 319 861 q 566 817 490 861 q 688 676 642 772 q 735 422 735 579 q 693 177 735 275 q 577 31 651 79 q 404 -18 503 -18 z "},"1":{"ha":496,"x_min":21,"x_max":353,"o":"m 240 311 l 240 736 l 63 653 q 33 674 44 660 q 21 708 21 688 q 71 769 21 749 l 265 854 l 292 854 q 336 838 319 854 q 353 793 353 821 l 353 311 l 240 311 m 353 367 l 353 -1 q 331 -8 344 -4 q 300 -11 317 -11 q 256 1 271 -11 q 240 40 240 14 l 240 367 l 353 367 z "},"2":{"ha":706,"x_min":53,"x_max":614,"o":"m 79 757 q 111 806 79 782 q 197 846 143 831 q 315 861 251 861 q 468 831 404 861 q 567 747 532 801 q 601 619 601 693 q 559 469 601 543 q 414 301 517 396 l 188 92 l 600 92 q 610 74 606 86 q 614 47 614 63 q 602 13 614 25 q 571 0 590 0 l 81 0 q 60 24 67 10 q 53 56 53 39 q 61 95 53 78 q 86 128 69 113 l 336 368 q 454 503 422 449 q 486 618 486 558 q 442 725 486 683 q 307 767 397 767 q 198 746 246 767 q 118 701 150 725 q 91 722 103 708 q 79 757 79 736 z "},"3":{"ha":703,"x_min":44,"x_max":621,"o":"m 301 863 q 515 805 433 863 q 596 632 596 747 q 573 537 596 576 q 519 475 550 497 q 463 446 488 453 q 536 408 500 435 q 597 338 572 381 q 621 236 621 296 q 581 97 621 153 q 469 13 540 42 q 306 -15 399 -15 q 170 1 229 -15 q 78 42 111 17 q 44 94 44 67 q 55 128 44 114 q 82 151 65 142 q 170 101 118 124 q 306 79 222 79 q 454 119 397 79 q 511 239 511 158 q 458 353 511 310 q 306 396 406 396 l 190 396 q 181 416 185 403 q 176 443 176 429 q 181 471 176 458 q 190 490 185 483 l 296 490 q 442 528 399 490 q 486 629 486 567 q 436 733 486 697 q 300 768 386 768 q 183 748 233 768 q 99 704 132 728 q 74 726 85 711 q 63 760 63 742 q 94 808 63 785 q 181 847 126 832 q 301 863 235 863 z "},"4":{"ha":761,"x_min":38,"x_max":733,"o":"m 449 846 q 477 851 461 849 q 506 853 493 853 q 542 847 525 853 q 571 827 560 842 q 582 785 582 813 l 582 299 l 721 299 q 729 280 725 292 q 733 253 733 268 q 722 218 733 231 q 690 206 711 206 l 582 206 l 582 -3 q 562 -8 575 -4 q 533 -11 549 -11 q 489 1 504 -11 q 474 38 474 14 l 474 206 l 72 206 q 48 231 58 213 q 38 271 38 249 q 40 292 38 283 q 44 310 42 301 l 449 846 m 478 736 l 475 736 l 167 299 l 475 299 l 478 736 z "},"5":{"ha":747,"x_min":93,"x_max":674,"o":"m 246 763 l 222 500 q 288 524 246 513 q 378 536 331 536 q 528 505 461 536 q 634 413 594 474 q 674 264 674 353 q 637 119 674 183 q 530 19 600 56 q 358 -18 460 -18 q 219 0 279 -18 q 126 44 160 18 q 93 96 93 71 q 108 135 93 118 q 138 157 122 151 q 224 103 168 131 q 358 75 279 75 q 507 128 454 75 q 560 264 560 182 q 506 396 560 349 q 364 443 451 443 q 275 428 315 443 q 200 393 235 413 q 140 416 163 396 q 117 468 117 436 q 117 490 117 476 q 119 515 118 503 l 143 781 q 161 827 146 810 q 206 844 176 844 l 283 844 l 246 763 m 225 844 l 631 844 q 639 826 635 839 q 643 800 643 814 q 632 764 643 778 q 600 750 621 750 l 225 750 l 225 844 z "},"6":{"ha":764,"x_min":75,"x_max":696,"o":"m 632 779 q 623 748 632 763 q 600 726 614 733 q 531 753 569 742 q 449 765 493 765 q 266 688 340 765 q 188 444 192 610 q 273 503 215 472 q 415 535 331 535 q 617 465 538 535 q 696 260 696 396 q 659 111 696 174 q 556 15 622 49 q 400 -18 490 -18 q 233 24 307 -18 q 117 158 160 67 q 75 396 75 249 q 106 616 75 526 q 190 759 138 706 q 310 837 243 813 q 446 861 376 861 q 537 851 494 861 q 606 824 579 842 q 632 779 632 806 m 400 75 q 532 124 481 75 q 583 263 583 174 q 531 397 583 353 q 403 440 479 440 q 271 408 326 440 q 183 329 215 375 l 188 339 q 243 148 188 221 q 400 75 299 75 z "},"7":{"ha":636,"x_min":33,"x_max":608,"o":"m 576 844 q 600 822 592 836 q 608 789 608 807 q 605 761 608 775 q 593 731 601 747 l 244 -6 q 228 -7 236 -7 q 213 -7 221 -7 q 167 6 186 -7 q 147 43 147 19 q 154 76 147 60 q 171 113 161 92 l 485 750 l 46 750 q 38 769 42 757 q 33 794 33 781 q 44 831 33 818 q 76 844 56 844 l 576 844 z "},"8":{"ha":790,"x_min":82,"x_max":708,"o":"m 378 469 q 528 527 478 489 q 578 629 578 565 q 529 731 578 694 q 396 768 481 768 q 264 731 314 768 q 214 631 214 693 q 242 546 214 578 q 319 498 271 514 q 424 476 367 482 l 485 456 q 593 416 542 444 q 676 340 644 388 q 708 222 708 293 q 669 93 708 147 q 559 10 629 39 q 396 -18 489 -18 q 231 10 301 -18 q 121 93 160 39 q 82 224 82 147 q 113 340 82 292 q 193 417 144 388 q 294 456 242 446 l 378 469 m 392 407 q 248 347 303 393 q 193 225 193 300 q 247 115 193 154 q 396 75 301 75 q 542 114 486 75 q 597 226 597 153 q 530 354 597 307 q 350 408 463 401 l 279 429 q 151 501 199 451 q 103 632 103 551 q 140 754 103 703 q 242 833 176 806 q 396 861 308 861 q 610 799 532 861 q 689 629 689 738 q 630 492 689 542 q 486 426 571 442 l 392 407 z "},"9":{"ha":767,"x_min":71,"x_max":692,"o":"m 114 68 q 123 100 114 85 q 146 122 132 115 q 215 92 172 107 q 315 78 257 78 q 447 108 388 78 q 543 209 507 139 q 579 394 579 279 q 538 360 567 381 q 467 325 510 340 q 367 310 424 310 q 221 337 289 310 q 112 424 153 364 q 71 581 71 483 q 110 731 71 668 q 215 828 149 794 q 364 861 282 861 q 533 817 460 861 q 649 683 607 774 q 692 449 692 592 q 644 176 692 279 q 513 28 597 74 q 317 -18 429 -18 q 174 4 233 -18 q 114 68 114 26 m 382 403 q 508 438 453 403 q 581 517 563 474 l 579 501 q 523 697 579 625 q 364 768 467 768 q 235 719 288 768 q 183 583 183 669 q 242 445 183 488 q 382 403 300 403 z "},"\u0000":{"ha":0,"x_min":0,"x_max":0,"o":""},"\r":{"ha":310,"x_min":0,"x_max":0,"o":""}," ":{"ha":278,"x_min":0,"x_max":0,"o":""},"!":{"ha":347,"x_min":92,"x_max":247,"o":"m 228 808 q 227 699 228 767 q 224 553 226 632 q 219 398 222 475 q 214 260 217 321 q 194 250 206 254 q 168 246 182 246 q 136 254 149 246 q 122 281 124 263 q 117 392 119 321 q 113 547 114 463 q 110 711 111 631 q 110 850 110 792 q 172 868 139 868 q 213 853 199 868 q 228 808 228 839 m 92 63 q 113 118 92 96 q 169 140 133 140 q 226 118 206 140 q 247 63 247 96 q 226 7 247 29 q 169 -15 206 -15 q 113 7 133 -15 q 92 63 92 29 z "},"\"":{"ha":375,"x_min":43,"x_max":332,"o":"m 140 581 q 120 574 131 576 q 97 572 110 572 q 65 582 76 572 q 51 613 53 592 l 43 854 q 97 868 68 868 q 135 855 122 868 q 149 814 149 842 q 147 747 149 790 q 144 659 146 704 q 140 581 142 614 m 325 581 q 303 574 315 576 q 281 572 292 572 q 248 582 258 572 q 236 613 238 592 l 226 854 q 252 865 239 861 q 282 868 265 868 q 319 855 307 868 q 332 813 332 842 q 331 747 332 790 q 328 659 329 704 q 325 581 326 614 z "},"#":{"ha":926,"x_min":60,"x_max":875,"o":"m 68 225 q 63 244 65 233 q 60 265 60 254 q 72 300 60 289 q 106 311 83 311 l 825 311 q 831 292 828 303 q 833 269 833 282 q 822 236 833 247 q 786 225 810 225 l 68 225 m 110 550 q 103 568 107 558 q 100 590 100 578 q 113 625 100 614 q 147 636 125 636 l 867 636 q 872 617 869 628 q 875 594 875 607 q 863 561 875 572 q 828 550 851 550 l 110 550 m 271 -4 q 255 -6 264 -6 q 236 -7 246 -7 q 201 4 214 -7 q 188 38 188 15 q 192 72 188 51 q 200 106 196 92 l 356 849 q 372 851 363 850 q 390 851 382 851 q 426 841 413 851 q 439 807 439 831 q 434 774 439 793 q 426 739 429 754 l 271 -4 m 571 -4 q 555 -6 564 -6 q 536 -7 546 -7 q 501 4 514 -7 q 488 38 488 15 q 492 72 488 51 q 499 106 496 92 l 656 849 q 672 851 663 850 q 690 851 682 851 q 726 841 713 851 q 739 807 739 831 q 734 774 739 793 q 726 739 729 754 l 571 -4 z "},"$":{"ha":725,"x_min":75,"x_max":661,"o":"m 408 35 l 408 -124 q 391 -128 403 -125 q 364 -131 379 -131 q 322 -119 338 -131 q 307 -85 307 -107 l 307 35 l 408 35 m 307 789 l 307 968 q 326 973 314 971 q 353 975 339 975 q 394 963 381 975 q 408 929 408 951 l 408 789 l 307 789 m 357 76 q 498 119 450 76 q 546 228 546 161 q 509 322 546 285 q 393 382 472 360 l 272 418 q 171 465 214 436 q 105 535 128 493 q 82 635 82 578 q 160 802 82 742 q 367 863 238 863 q 501 847 442 863 q 594 806 560 831 q 628 753 628 781 q 618 720 628 735 q 593 697 608 706 q 499 746 558 725 q 371 767 440 767 q 243 731 290 767 q 196 635 196 696 q 230 556 196 586 q 340 503 264 525 l 425 478 q 598 389 535 447 q 661 228 661 331 q 581 50 661 118 q 357 -18 501 -18 q 209 1 272 -18 q 110 48 146 19 q 75 104 75 76 q 90 144 75 128 q 124 167 104 160 q 214 106 156 136 q 357 76 272 76 z "},"%":{"ha":1072,"x_min":74,"x_max":999,"o":"m 465 658 q 408 515 465 568 q 269 461 351 461 q 131 515 188 461 q 74 658 74 568 q 131 802 74 749 q 269 856 188 856 q 408 802 351 856 q 465 658 465 749 m 172 658 q 199 574 172 604 q 269 544 226 544 q 340 574 313 544 q 367 658 367 604 q 340 742 367 713 q 269 772 313 772 q 199 742 226 772 q 172 658 172 713 m 769 856 q 820 840 801 851 q 839 808 839 828 q 833 781 839 794 q 817 753 828 768 l 307 -10 q 257 7 276 -7 q 238 39 238 21 q 243 63 238 50 q 258 90 249 75 l 769 856 m 999 188 q 942 42 999 96 q 803 -11 885 -11 q 665 42 722 -11 q 607 188 607 96 q 665 331 607 278 q 803 383 722 383 q 942 331 885 383 q 999 188 999 278 m 706 188 q 733 102 706 132 q 803 72 760 72 q 873 102 846 72 q 900 188 900 132 q 873 270 900 240 q 803 300 846 300 q 733 270 760 300 q 706 188 706 240 z "},"&":{"ha":885,"x_min":69,"x_max":846,"o":"m 667 94 q 551 11 619 43 q 388 -21 483 -21 q 220 14 292 -21 q 109 112 149 49 q 69 260 69 175 q 98 384 69 331 q 175 474 126 438 q 283 525 224 510 l 332 443 q 260 412 294 435 q 204 351 226 389 q 182 258 182 313 q 237 124 182 175 q 389 74 292 74 q 498 96 442 74 q 601 172 554 118 l 632 217 q 672 332 657 263 q 686 490 686 401 q 712 499 699 496 q 738 503 725 503 q 779 487 765 503 q 793 440 793 471 q 770 281 793 363 q 707 142 747 199 l 667 94 m 785 -19 q 729 13 757 -19 l 304 457 l 269 496 q 206 583 226 540 q 185 674 185 625 q 210 773 185 731 q 285 839 236 815 q 406 863 335 863 q 517 842 479 863 q 556 789 556 821 q 547 759 556 772 q 526 739 538 746 q 474 760 504 751 q 413 768 444 768 q 329 742 360 768 q 299 672 299 717 q 321 596 299 629 q 385 519 343 563 l 846 40 q 826 -3 842 13 q 785 -19 811 -19 z "},"'":{"ha":193,"x_min":43,"x_max":151,"o":"m 143 581 q 122 575 133 578 q 97 572 110 572 q 65 583 76 572 q 51 613 53 593 l 43 854 q 67 865 54 861 q 99 868 81 868 q 138 855 125 868 q 151 813 151 842 q 150 747 151 789 q 147 659 149 704 q 143 581 146 614 z "},"(":{"ha":353,"x_min":76,"x_max":339,"o":"m 283 -161 q 243 -145 261 -161 q 206 -101 225 -129 q 110 106 143 -12 q 76 381 76 225 q 115 656 76 535 q 206 854 154 778 q 242 897 224 882 q 283 913 261 913 q 317 901 303 913 q 339 874 332 890 q 223 653 264 778 q 182 381 182 529 q 219 113 182 232 q 339 -121 256 -7 q 317 -149 332 -137 q 283 -161 303 -161 z "},")":{"ha":353,"x_min":14,"x_max":276,"o":"m 69 -161 q 110 -145 92 -161 q 147 -101 128 -129 q 243 106 210 -12 q 276 381 276 225 q 238 656 276 535 q 147 854 199 778 q 110 897 129 882 q 69 913 92 913 q 35 901 50 913 q 14 874 21 890 q 130 653 89 778 q 171 381 171 529 q 134 113 171 232 q 14 -121 97 -7 q 35 -149 21 -137 q 69 -161 50 -161 z "},"*":{"ha":415,"x_min":28,"x_max":388,"o":"m 233 664 l 32 731 q 28 760 28 746 q 40 792 28 779 q 69 804 51 804 q 83 801 76 804 q 99 796 90 799 l 203 743 l 233 664 m 139 543 q 129 542 133 542 q 121 542 125 542 q 81 553 94 542 q 68 582 68 565 q 73 603 68 593 q 85 619 78 613 l 157 700 l 251 708 l 139 543 m 225 744 l 358 585 q 341 554 356 567 q 310 542 326 542 q 282 553 294 542 q 260 578 269 565 l 188 681 l 225 744 m 353 817 q 376 798 365 811 q 388 768 388 785 q 378 743 388 751 q 353 728 368 735 l 236 672 l 172 715 l 353 817 m 175 683 l 168 889 q 186 897 175 893 q 211 901 197 901 q 241 893 229 901 q 253 865 253 885 q 251 828 253 857 q 247 767 249 799 q 244 722 244 736 l 175 683 z "},"+":{"ha":761,"x_min":71,"x_max":690,"o":"m 81 369 q 74 390 76 379 q 71 414 71 400 q 84 449 71 438 q 119 461 97 461 l 681 461 q 687 442 683 453 q 690 418 690 431 q 678 383 690 396 q 642 369 665 369 l 81 369 m 433 101 q 413 94 424 97 q 386 92 401 92 q 345 104 358 92 q 332 147 332 117 l 332 724 q 355 731 343 728 q 383 733 367 733 q 422 721 410 733 q 433 678 433 708 l 433 101 z "},",":{"ha":201,"x_min":-10,"x_max":175,"o":"m 94 -131 q 40 -168 72 -168 q -10 -144 10 -168 q 19 -59 3 -108 q 49 42 35 -10 q 69 131 63 93 q 94 140 81 136 q 122 143 107 143 q 161 131 147 143 q 175 92 175 119 q 160 16 175 61 q 126 -70 146 -29 q 94 -131 107 -111 z "},"-":{"ha":540,"x_min":75,"x_max":465,"o":"m 85 317 q 78 337 81 326 q 75 361 75 347 q 88 397 75 385 q 124 408 101 408 l 456 408 q 462 389 458 400 q 465 365 465 378 q 453 330 465 343 q 417 317 440 317 l 85 317 z "},".":{"ha":196,"x_min":22,"x_max":174,"o":"m 22 58 q 42 114 22 92 q 99 136 63 136 q 154 114 135 136 q 174 58 174 92 q 154 4 174 26 q 99 -18 135 -18 q 42 4 63 -18 q 22 58 22 26 z "},"/":{"ha":424,"x_min":33,"x_max":393,"o":"m 124 -146 q 107 -148 115 -147 q 88 -149 99 -149 q 47 -135 61 -149 q 33 -99 33 -122 q 39 -62 33 -83 q 47 -29 44 -42 l 303 979 q 321 981 313 981 q 339 982 329 982 q 378 970 363 982 q 393 932 393 958 q 389 898 393 917 q 381 863 385 879 l 124 -146 z "},":":{"ha":263,"x_min":56,"x_max":207,"o":"m 56 544 q 76 600 56 578 q 131 622 96 622 q 187 600 167 622 q 207 544 207 578 q 187 490 207 511 q 131 468 167 468 q 76 490 96 468 q 56 544 56 511 m 56 58 q 75 114 56 92 q 131 136 94 136 q 187 114 167 136 q 207 58 207 92 q 187 4 207 26 q 131 -18 167 -18 q 75 4 94 -18 q 56 58 56 26 z "},";":{"ha":281,"x_min":19,"x_max":215,"o":"m 64 544 q 83 600 64 578 q 139 622 103 622 q 195 600 175 622 q 215 544 215 578 q 195 490 215 511 q 139 468 175 468 q 83 490 103 468 q 64 544 64 511 m 124 -131 q 69 -168 101 -168 q 19 -144 39 -168 q 48 -59 32 -108 q 78 42 64 -10 q 99 131 92 93 q 123 140 110 136 q 151 143 136 143 q 190 131 176 143 q 204 92 204 119 q 190 16 204 61 q 156 -70 175 -29 q 124 -131 136 -111 z "},"<":{"ha":657,"x_min":75,"x_max":613,"o":"m 611 196 q 613 183 613 189 q 613 171 613 178 q 599 136 613 150 q 561 122 585 122 q 539 127 551 122 q 513 140 526 132 l 89 371 q 75 417 75 392 q 82 451 75 438 q 99 469 89 464 l 563 707 q 597 685 586 699 q 608 654 608 671 q 594 618 608 632 q 558 590 581 604 l 183 418 l 611 196 z "},"=":{"ha":719,"x_min":71,"x_max":647,"o":"m 81 504 q 74 524 76 513 q 71 547 71 535 q 84 583 71 571 q 119 594 97 594 l 639 594 q 644 576 642 586 q 647 551 647 565 q 635 517 647 529 q 599 504 622 504 l 81 504 m 81 224 q 74 242 76 232 q 71 267 71 253 q 84 302 71 290 q 119 314 97 314 l 639 314 q 644 294 642 306 q 647 271 647 283 q 635 236 647 249 q 599 224 622 224 l 81 224 z "},">":{"ha":639,"x_min":44,"x_max":568,"o":"m 46 638 q 44 651 44 644 q 44 663 44 657 q 58 697 44 682 q 94 711 72 711 q 117 706 106 711 q 143 694 129 701 l 554 464 q 568 417 568 443 q 562 383 568 396 q 544 364 556 371 l 94 128 q 60 149 71 135 q 49 181 49 164 q 63 217 49 203 q 99 243 76 231 l 460 419 l 46 638 z "},"?":{"ha":638,"x_min":38,"x_max":583,"o":"m 160 278 q 140 306 147 290 q 132 339 132 321 q 143 371 132 358 q 182 390 154 383 l 278 415 q 419 485 369 439 q 468 607 468 532 q 420 722 468 674 q 271 769 372 769 q 159 752 215 769 q 69 707 103 735 q 46 733 54 718 q 38 767 38 749 q 104 838 38 807 q 275 868 171 868 q 436 835 367 868 q 544 743 506 801 q 583 608 583 685 q 512 419 583 492 q 296 311 440 347 l 160 278 m 144 63 q 166 119 144 96 q 222 142 188 142 q 280 119 258 142 q 301 63 301 96 q 280 7 301 29 q 222 -15 258 -15 q 166 7 188 -15 q 144 63 144 29 z "},"@":{"ha":1389,"x_min":76,"x_max":1300,"o":"m 528 278 q 573 140 528 189 q 699 92 618 92 q 786 113 747 92 q 861 176 825 133 l 878 74 q 801 22 849 43 q 683 0 754 0 q 488 74 563 0 q 414 278 414 147 q 454 449 414 378 q 566 558 494 521 q 733 596 638 596 q 828 585 782 596 q 906 557 874 574 q 963 489 963 529 q 962 468 963 479 q 960 447 961 457 l 924 83 l 814 83 l 853 478 q 799 497 831 489 q 726 504 767 504 q 583 445 638 504 q 528 278 528 386 m 844 51 q 860 90 851 72 q 880 117 869 107 q 903 126 890 126 q 945 99 919 113 q 1008 85 971 85 q 1144 165 1099 85 q 1190 371 1190 244 q 1132 603 1190 503 q 967 759 1074 703 q 717 815 861 815 q 436 749 556 815 q 251 563 317 682 q 186 283 186 443 q 247 19 186 132 q 419 -155 308 -93 q 675 -217 529 -217 q 768 -210 728 -217 q 836 -196 808 -204 q 849 -215 844 -204 q 854 -239 854 -226 q 837 -275 854 -260 q 778 -299 819 -290 q 667 -307 738 -307 q 470 -281 561 -307 q 306 -203 379 -254 q 182 -81 233 -153 q 103 83 131 -8 q 76 283 76 175 q 122 538 76 424 q 251 735 167 653 q 452 861 335 817 q 715 906 569 906 q 960 867 851 906 q 1144 758 1068 829 q 1260 589 1219 688 q 1300 369 1300 490 q 1226 92 1300 190 q 1008 -7 1153 -7 q 922 8 965 -7 q 844 51 878 24 z "},"A":{"ha":822,"x_min":42,"x_max":782,"o":"m 408 757 q 359 618 388 699 q 301 452 331 538 q 244 293 271 367 l 238 272 q 217 210 229 247 q 190 131 204 172 q 164 55 176 90 q 144 -3 151 19 q 124 -9 135 -7 q 99 -11 114 -11 q 59 1 76 -11 q 42 39 42 13 q 46 65 42 51 q 56 93 50 78 q 97 208 72 140 q 150 357 121 276 q 211 522 179 438 q 274 688 243 607 q 331 835 304 768 q 364 846 342 840 q 410 851 386 851 q 463 843 438 851 q 496 815 489 835 q 567 633 529 735 q 644 420 606 531 q 719 206 683 310 q 782 17 754 101 q 756 -3 772 4 q 721 -11 740 -11 q 681 1 694 -11 q 657 40 667 13 l 581 267 l 569 306 q 512 476 542 390 q 456 636 482 563 q 414 757 431 710 l 408 757 m 219 318 l 607 318 l 629 225 l 183 225 l 219 318 z "},"B":{"ha":832,"x_min":124,"x_max":750,"o":"m 583 393 l 201 393 l 201 485 l 583 485 l 583 393 m 468 463 q 625 431 563 463 q 719 349 688 400 q 750 233 750 297 q 659 46 750 107 q 400 -15 568 -15 q 325 -13 363 -15 q 251 -6 288 -11 q 182 8 215 0 q 124 72 124 25 l 124 783 q 135 818 124 806 q 169 836 147 831 q 270 855 217 850 q 385 860 324 860 q 629 803 542 860 q 717 632 717 747 q 688 524 717 574 q 597 445 660 475 q 428 415 533 415 l 415 485 q 554 523 507 485 q 601 629 601 561 q 547 733 601 699 q 385 767 492 767 q 301 763 338 767 q 235 754 265 760 l 235 93 q 312 82 268 86 q 400 78 356 78 q 575 117 515 78 q 635 236 635 156 q 581 351 635 308 q 424 393 528 393 l 468 463 z "},"C":{"ha":817,"x_min":75,"x_max":749,"o":"m 740 751 q 728 719 740 733 q 701 697 717 704 q 617 744 667 722 q 490 767 568 767 q 338 728 406 767 q 231 612 271 689 q 192 421 192 535 q 276 164 192 250 q 494 78 360 78 q 621 99 567 78 q 710 146 675 119 q 736 126 724 140 q 749 92 749 111 q 741 65 749 78 q 715 39 733 51 q 628 -1 683 17 q 486 -18 572 -18 q 277 31 371 -18 q 129 178 183 81 q 75 421 75 275 q 131 665 75 567 q 280 813 188 764 q 482 863 372 863 q 617 846 558 863 q 708 803 675 829 q 740 751 740 778 z "},"D":{"ha":906,"x_min":124,"x_max":831,"o":"m 715 432 q 632 169 715 258 q 386 79 549 79 q 308 82 346 79 q 236 93 269 85 l 236 754 q 297 763 264 760 q 374 765 331 765 q 545 731 468 765 q 669 624 622 697 q 715 432 715 551 m 831 432 q 773 669 831 575 q 613 812 715 764 q 375 860 511 860 q 267 856 321 860 q 169 838 213 851 q 135 819 147 831 q 124 785 124 807 l 124 71 q 182 7 124 25 q 288 -12 232 -8 q 388 -15 344 -15 q 622 33 522 -15 q 776 181 721 82 q 831 432 831 281 z "},"E":{"ha":738,"x_min":124,"x_max":665,"o":"m 236 508 l 236 11 q 215 5 231 10 q 185 0 200 0 q 140 17 157 0 q 124 61 124 35 l 124 508 l 236 508 m 124 346 l 124 783 q 140 828 124 811 q 185 844 157 844 q 215 840 200 844 q 236 833 231 836 l 236 344 l 124 346 m 185 481 l 603 481 q 611 463 607 475 q 615 436 615 450 q 604 400 615 414 q 572 386 593 386 l 185 386 l 185 481 m 185 94 l 653 94 q 661 77 657 89 q 665 50 665 65 q 654 14 665 28 q 622 0 643 0 l 185 0 l 185 94 m 185 844 l 646 844 q 654 826 650 839 q 658 800 658 814 q 647 763 658 778 q 615 749 636 749 l 185 749 l 185 844 z "},"F":{"ha":718,"x_min":124,"x_max":658,"o":"m 124 343 l 124 783 q 140 828 124 811 q 185 844 157 844 q 215 840 200 844 q 236 833 231 836 l 236 342 l 124 343 m 185 460 l 597 460 q 606 441 601 453 q 610 415 610 429 q 599 378 610 393 q 567 364 588 364 l 185 364 l 185 460 m 185 844 l 646 844 q 654 826 650 839 q 658 800 658 814 q 647 763 658 778 q 615 749 636 749 l 185 749 l 185 844 m 238 494 l 238 1 q 216 -3 231 0 q 186 -7 201 -7 q 140 6 156 -7 q 124 43 124 18 l 124 494 l 238 494 z "},"G":{"ha":888,"x_min":75,"x_max":792,"o":"m 792 97 q 777 55 792 72 q 733 24 763 38 q 638 -6 699 6 q 514 -18 576 -18 q 285 29 385 -18 q 131 174 186 76 q 75 421 75 271 q 133 667 75 569 q 286 814 190 765 q 496 863 382 863 q 635 846 575 863 q 728 804 694 829 q 761 753 761 779 q 750 720 761 735 q 724 699 739 706 q 635 745 686 724 q 503 767 583 767 q 344 728 415 767 q 233 612 274 689 q 192 421 192 535 q 234 226 192 301 q 350 114 276 150 q 515 78 424 78 q 610 86 565 78 q 679 107 654 94 l 679 363 l 469 363 q 461 381 465 369 q 457 407 457 393 q 468 444 457 431 q 500 457 479 457 l 732 457 q 774 441 757 457 q 792 399 792 425 l 792 97 z "},"H":{"ha":908,"x_min":124,"x_max":785,"o":"m 238 503 l 238 3 q 215 -3 229 0 q 185 -7 201 -7 q 139 6 154 -7 q 124 44 124 18 l 124 503 l 238 503 m 124 410 l 124 842 q 145 848 131 844 q 176 851 160 851 q 222 840 207 851 q 238 800 238 828 l 238 410 l 124 410 m 785 503 l 785 3 q 763 -3 776 0 q 732 -7 749 -7 q 686 6 701 -7 q 671 44 671 18 l 671 503 l 785 503 m 671 410 l 671 842 q 692 848 678 844 q 724 851 707 851 q 769 840 754 851 q 785 800 785 828 l 785 410 l 671 410 m 192 381 l 192 475 l 731 475 l 731 381 l 192 381 z "},"I":{"ha":364,"x_min":125,"x_max":238,"o":"m 238 504 l 238 3 q 217 -3 231 0 q 186 -7 203 -7 q 140 6 156 -7 q 125 44 125 18 l 125 504 l 238 504 m 125 411 l 125 842 q 147 848 132 844 q 178 851 161 851 q 223 840 208 851 q 238 800 238 828 l 238 411 l 125 411 z "},"J":{"ha":535,"x_min":35,"x_max":411,"o":"m 411 401 l 411 206 q 380 74 411 122 q 297 5 349 25 q 186 -15 246 -15 q 72 3 108 -15 q 35 53 35 22 q 43 86 35 72 q 58 107 51 100 q 109 89 79 97 q 169 81 139 81 q 265 111 232 81 q 299 211 299 142 l 299 401 l 411 401 m 299 368 l 299 842 q 320 848 306 844 q 350 851 335 851 q 396 840 381 851 q 411 800 411 828 l 411 368 l 299 368 z "},"K":{"ha":786,"x_min":124,"x_max":732,"o":"m 299 486 q 552 233 446 344 q 732 56 658 122 q 714 8 731 25 q 672 -10 697 -10 q 630 4 649 -10 q 592 36 611 18 l 211 431 l 299 486 m 201 417 l 619 850 q 674 832 656 849 q 692 793 692 815 q 683 759 692 775 q 654 726 674 743 l 314 392 l 201 417 m 238 510 l 238 1 q 215 -5 229 -1 q 185 -8 201 -8 q 139 4 154 -8 q 124 43 124 17 l 124 510 l 238 510 m 124 417 l 124 842 q 145 848 131 844 q 176 851 160 851 q 222 840 207 851 q 238 800 238 828 l 238 417 l 124 417 z "},"L":{"ha":696,"x_min":124,"x_max":651,"o":"m 238 493 l 238 11 l 185 0 q 141 17 158 0 q 124 61 124 35 l 124 493 l 238 493 m 185 97 l 636 97 q 647 79 643 92 q 651 51 651 67 q 639 14 651 28 q 606 0 626 0 l 185 0 l 185 97 m 124 410 l 124 842 q 145 848 131 844 q 176 851 160 851 q 222 840 207 851 q 238 800 238 828 l 238 410 l 124 410 z "},"M":{"ha":1083,"x_min":110,"x_max":981,"o":"m 604 219 q 578 207 594 213 q 543 201 563 201 q 503 208 521 201 q 479 231 486 215 q 351 515 406 386 q 263 729 296 644 l 257 729 q 248 535 253 625 q 238 360 243 444 q 227 188 232 276 q 215 0 222 100 q 194 -6 207 -3 q 165 -8 181 -8 q 122 5 135 -8 q 110 40 110 18 q 113 117 110 57 q 122 265 117 178 q 133 452 126 353 q 148 648 140 551 q 163 822 156 744 q 194 840 174 832 q 242 849 215 849 q 296 836 274 849 q 331 797 318 824 q 403 643 367 726 q 474 476 439 560 q 540 319 508 393 l 546 319 q 667 603 607 467 q 769 835 728 739 q 801 845 782 842 q 838 849 821 849 q 888 838 869 849 q 913 804 907 828 q 925 724 918 781 q 939 590 932 667 q 952 428 946 513 q 964 261 958 343 q 974 113 969 179 q 981 8 979 47 q 954 -4 968 0 q 922 -8 940 -8 q 885 2 901 -8 q 867 40 869 13 q 851 306 858 175 q 838 547 843 438 q 828 726 832 657 l 822 726 q 739 530 792 650 q 604 219 686 410 z "},"N":{"ha":917,"x_min":124,"x_max":793,"o":"m 218 757 q 228 656 224 714 q 234 535 232 597 q 236 418 236 474 l 236 3 q 215 -3 229 0 q 185 -7 200 -7 q 139 5 154 -7 q 124 43 124 17 l 124 749 l 218 757 m 697 88 q 681 326 683 204 q 679 561 679 447 l 679 842 q 701 848 688 844 q 732 851 715 851 q 778 840 763 851 q 793 801 793 828 l 793 96 l 697 88 m 793 143 l 793 15 q 761 -1 781 6 q 718 -8 742 -8 q 661 5 685 -8 q 618 53 638 18 l 354 497 q 308 580 333 535 q 261 666 283 625 q 226 733 239 707 l 124 707 l 124 828 q 155 846 135 839 q 199 853 175 853 q 256 840 232 853 q 299 792 279 826 l 564 347 q 610 265 586 310 q 656 178 635 219 q 689 111 676 138 l 793 138 l 793 143 z "},"O":{"ha":957,"x_min":75,"x_max":881,"o":"m 881 422 q 828 180 881 278 q 684 32 775 82 q 478 -18 593 -18 q 272 32 364 -18 q 128 180 181 82 q 75 422 75 278 q 129 665 75 567 q 274 813 183 763 q 478 863 365 863 q 683 813 592 863 q 827 665 774 763 q 881 422 881 567 m 765 422 q 687 677 765 588 q 478 767 608 767 q 270 677 349 767 q 192 422 192 588 q 269 167 192 257 q 478 78 347 78 q 688 167 610 78 q 765 422 765 257 z "},"P":{"ha":788,"x_min":124,"x_max":718,"o":"m 371 396 q 543 442 482 396 q 604 583 604 489 q 545 722 604 678 q 376 765 486 765 q 302 762 339 765 q 236 753 265 758 l 236 396 l 371 396 m 124 301 l 124 783 q 135 817 124 806 q 169 836 147 829 q 267 854 210 849 q 379 860 325 860 q 637 785 556 860 q 718 585 718 711 q 681 435 718 499 q 569 336 644 371 q 378 301 494 301 l 124 301 m 238 356 l 238 3 q 215 -3 229 0 q 185 -7 201 -7 q 139 6 154 -7 q 124 44 124 18 l 124 356 l 238 356 z "},"Q":{"ha":958,"x_min":75,"x_max":917,"o":"m 565 33 q 711 -46 653 -17 q 816 -94 769 -75 q 914 -133 863 -114 q 917 -149 917 -143 q 917 -161 917 -156 q 901 -203 917 -187 q 856 -219 885 -219 q 739 -181 811 -219 q 576 -81 667 -143 l 458 0 l 565 33 m 881 422 q 828 180 881 278 q 684 32 775 82 q 478 -18 593 -18 q 272 32 364 -18 q 128 180 181 82 q 75 422 75 278 q 129 665 75 567 q 274 813 183 763 q 478 863 365 863 q 683 813 592 863 q 827 665 774 763 q 881 422 881 567 m 765 422 q 687 677 765 588 q 478 767 608 767 q 270 677 349 767 q 192 422 192 588 q 269 167 192 257 q 478 78 347 78 q 688 167 610 78 q 765 422 765 257 z "},"R":{"ha":818,"x_min":124,"x_max":760,"o":"m 396 414 q 557 458 499 414 q 615 590 615 503 q 554 721 615 676 q 379 765 493 765 q 303 762 342 765 q 236 753 265 758 l 236 414 l 396 414 m 124 319 l 124 783 q 135 817 124 806 q 169 836 147 829 q 269 854 210 849 q 383 860 328 860 q 643 789 557 860 q 729 590 729 718 q 692 447 729 508 q 581 353 654 386 q 396 319 507 319 l 124 319 m 482 397 q 563 296 521 349 q 643 193 604 243 q 713 103 682 143 q 760 42 743 64 q 735 4 754 18 q 697 -10 717 -10 q 658 2 674 -10 q 626 36 643 14 l 399 356 l 482 397 m 238 350 l 238 3 q 215 -3 229 0 q 185 -7 201 -7 q 139 6 154 -7 q 124 44 124 18 l 124 350 l 238 350 z "},"S":{"ha":726,"x_min":75,"x_max":661,"o":"m 357 76 q 498 119 450 76 q 546 228 546 161 q 509 322 546 285 q 393 382 472 360 l 272 418 q 171 465 214 436 q 105 535 128 493 q 82 635 82 578 q 160 802 82 742 q 367 863 238 863 q 501 847 442 863 q 594 806 560 831 q 628 753 628 781 q 618 720 628 735 q 593 697 608 706 q 499 746 558 725 q 371 767 440 767 q 243 731 290 767 q 196 635 196 696 q 230 556 196 586 q 340 503 264 525 l 425 478 q 598 389 535 447 q 661 228 661 331 q 581 50 661 118 q 357 -18 501 -18 q 209 1 272 -18 q 110 48 146 19 q 75 104 75 76 q 90 144 75 128 q 124 167 104 160 q 214 106 156 136 q 357 76 272 76 z "},"T":{"ha":726,"x_min":35,"x_max":692,"o":"m 356 844 l 679 844 q 688 826 683 839 q 692 800 692 814 q 681 763 692 778 q 649 749 669 749 l 363 749 l 356 844 m 372 749 l 47 749 q 39 768 43 756 q 35 794 35 781 q 46 831 35 818 q 78 844 57 844 l 365 844 l 372 749 m 419 786 l 419 3 q 398 -3 413 0 q 368 -7 383 -7 q 322 6 338 -7 q 307 44 307 18 l 307 786 l 419 786 z "},"U":{"ha":901,"x_min":122,"x_max":779,"o":"m 450 -18 q 272 20 346 -18 q 160 128 199 58 q 122 292 122 199 l 122 406 l 235 406 l 235 301 q 297 134 235 190 q 450 78 358 78 q 603 134 542 78 q 665 301 665 190 l 665 406 l 779 406 l 779 292 q 741 128 779 199 q 629 20 703 58 q 450 -18 556 -18 m 122 349 l 122 842 q 144 848 129 844 q 175 851 158 851 q 220 840 206 851 q 235 800 235 828 l 235 349 l 122 349 m 665 349 l 665 842 q 687 848 672 844 q 718 851 701 851 q 764 840 749 851 q 779 800 779 828 l 779 349 l 665 349 z "},"V":{"ha":810,"x_min":43,"x_max":760,"o":"m 482 11 q 456 -1 475 6 q 413 -7 436 -7 q 365 1 386 -7 q 338 24 344 8 q 285 139 315 67 q 222 301 256 211 q 154 484 188 390 q 92 666 121 578 q 43 822 64 754 q 68 843 51 833 q 106 853 85 853 q 144 840 132 853 q 165 803 157 828 q 284 451 226 622 q 410 107 342 281 l 415 107 q 499 335 456 213 q 584 589 543 458 q 657 843 625 719 q 678 851 667 849 q 704 853 690 853 q 744 840 729 853 q 760 803 760 828 q 744 725 760 782 q 703 590 729 668 q 647 426 678 513 q 585 258 617 340 q 526 110 553 175 q 482 11 500 46 z "},"W":{"ha":1115,"x_min":54,"x_max":1054,"o":"m 499 635 q 526 644 510 640 q 561 649 543 649 q 608 640 589 649 q 632 613 626 631 q 695 427 667 513 q 749 262 724 342 q 801 97 775 182 l 807 97 q 858 341 833 222 q 907 582 883 460 q 950 843 931 704 q 997 853 969 853 q 1039 841 1024 853 q 1054 806 1054 829 q 1047 726 1054 779 q 1026 601 1039 672 q 995 449 1013 529 q 958 290 978 369 q 919 139 939 210 q 882 15 900 68 q 850 2 869 8 q 806 -4 831 -4 q 754 6 775 -4 q 726 32 733 15 q 679 160 707 81 q 622 335 651 240 q 564 524 592 431 q 507 333 538 432 q 448 150 476 235 q 397 14 419 65 q 367 2 388 8 q 322 -4 347 -4 q 272 6 292 -4 q 244 32 251 17 q 210 136 231 67 q 168 295 190 206 q 124 481 146 385 q 84 667 103 578 q 54 826 65 757 q 81 844 64 836 q 117 853 97 853 q 156 841 142 853 q 175 801 169 829 q 210 632 193 714 q 244 467 226 550 q 281 292 261 383 q 324 97 300 201 l 329 97 q 367 217 349 160 q 404 334 385 274 q 447 467 424 394 q 499 635 469 539 z "},"X":{"ha":821,"x_min":63,"x_max":756,"o":"m 353 410 l 68 797 q 92 837 75 821 q 135 853 108 853 q 172 840 157 853 q 204 803 188 826 l 432 476 l 464 449 l 756 44 q 734 6 750 21 q 692 -10 718 -10 q 655 1 669 -10 q 624 38 640 13 l 372 401 l 353 410 m 436 390 l 151 -7 q 138 -9 146 -8 q 124 -10 131 -10 q 79 4 96 -10 q 63 40 63 18 q 72 74 63 58 q 94 108 81 90 l 354 449 l 392 483 l 656 849 q 669 851 663 850 q 685 851 676 851 q 728 838 714 851 q 743 803 743 824 q 735 774 743 789 q 717 743 728 758 q 594 581 657 663 q 467 418 532 500 l 436 390 z "},"Y":{"ha":764,"x_min":29,"x_max":726,"o":"m 338 303 q 256 426 299 361 q 173 557 214 490 q 95 688 132 624 q 29 808 58 753 q 50 838 35 824 q 90 853 65 853 q 131 839 117 853 q 161 797 146 825 q 202 726 179 765 q 250 642 225 686 q 300 556 275 599 q 347 475 325 513 q 385 410 368 438 l 390 410 q 479 563 439 490 q 557 704 519 635 q 631 843 594 774 q 651 851 639 849 q 674 853 664 853 q 713 840 700 853 q 726 806 726 828 q 705 747 726 792 q 644 634 683 701 q 553 482 606 567 q 436 303 500 397 l 338 303 m 443 357 l 443 3 q 422 -3 436 0 q 392 -7 407 -7 q 346 6 361 -7 q 331 44 331 18 l 331 357 l 443 357 z "},"Z":{"ha":774,"x_min":69,"x_max":707,"o":"m 626 844 l 671 844 q 697 792 697 822 q 690 757 697 772 q 668 722 682 742 l 142 0 l 96 0 q 77 24 85 10 q 69 53 69 38 q 77 88 69 72 q 99 122 85 104 l 626 844 m 129 96 l 693 96 q 703 77 699 89 q 707 50 707 65 q 695 14 707 28 q 664 0 683 0 l 125 0 l 129 96 m 642 749 l 93 749 q 84 768 89 756 q 79 794 79 781 q 91 831 79 818 q 124 844 103 844 l 644 844 l 642 749 z "},"[":{"ha":372,"x_min":96,"x_max":358,"o":"m 96 829 l 197 829 l 197 -83 l 96 -83 l 96 829 m 350 -64 q 356 -83 353 -74 q 358 -107 358 -93 q 347 -141 358 -129 q 311 -153 335 -153 l 153 -153 q 110 -137 125 -153 q 96 -96 96 -122 l 96 -64 l 350 -64 m 350 904 q 356 886 353 896 q 358 863 358 876 q 347 828 358 840 q 311 817 335 817 l 96 817 l 96 849 q 110 890 96 875 q 153 904 125 904 l 350 904 z "},"\\":{"ha":474,"x_min":46,"x_max":417,"o":"m 417 -64 q 390 -81 407 -74 q 358 -89 374 -89 q 328 -81 340 -89 q 310 -53 315 -72 l 46 899 q 73 917 57 910 q 104 924 89 924 q 135 915 122 924 q 153 888 147 907 l 417 -64 z "},"]":{"ha":374,"x_min":14,"x_max":276,"o":"m 276 -78 l 175 -78 l 175 836 l 276 836 l 276 -78 m 22 817 q 17 835 19 825 q 14 858 14 846 q 26 893 14 882 q 63 904 39 904 l 219 904 q 262 890 247 904 q 276 849 276 875 l 276 817 l 22 817 m 22 -153 q 17 -134 19 -144 q 14 -111 14 -124 q 26 -76 14 -87 q 63 -64 39 -64 l 276 -64 l 276 -96 q 262 -137 276 -122 q 219 -153 247 -153 l 22 -153 z "},"^":{"ha":643,"x_min":75,"x_max":568,"o":"m 269 897 q 290 906 276 903 q 319 910 304 910 q 371 890 361 910 q 417 803 390 856 q 473 690 444 750 q 527 574 501 631 q 568 476 553 518 q 547 458 561 467 q 517 450 533 450 q 481 460 494 450 q 457 496 468 469 l 322 796 l 313 796 q 290 747 307 783 q 251 660 274 710 q 208 558 229 610 q 171 461 186 506 q 149 452 161 456 q 122 449 138 449 q 90 458 104 449 q 75 490 75 468 q 92 544 75 503 q 136 640 110 585 q 190 749 163 694 q 240 845 218 804 q 269 897 263 886 z "},"_":{"ha":646,"x_min":0,"x_max":646,"o":"m 8 -171 q 3 -152 6 -162 q 0 -128 0 -142 q 13 -92 0 -104 q 49 -81 25 -81 l 636 -81 q 642 -100 639 -89 q 646 -124 646 -111 q 633 -158 646 -146 q 597 -171 621 -171 l 8 -171 z "},"`":{"ha":419,"x_min":79,"x_max":306,"o":"m 82 881 q 80 891 81 886 q 79 899 79 896 q 94 935 79 921 q 132 949 110 949 q 159 942 147 949 q 181 925 171 936 l 306 768 q 292 733 304 746 q 260 719 279 719 q 234 726 244 719 q 213 742 224 732 l 82 881 z "},"a":{"ha":693,"x_min":60,"x_max":594,"o":"m 333 72 q 430 84 392 72 q 485 107 468 96 l 485 308 l 313 290 q 206 258 240 285 q 171 182 171 232 q 212 101 171 131 q 333 72 253 72 m 332 660 q 524 606 453 660 q 594 435 594 551 l 594 106 q 583 59 594 75 q 547 29 571 43 q 458 -4 514 11 q 333 -19 403 -19 q 131 32 203 -19 q 60 181 60 83 q 120 319 60 271 q 288 376 181 367 l 485 396 l 485 435 q 443 536 485 504 q 331 568 401 568 q 222 551 274 568 q 129 514 169 535 q 109 537 118 524 q 100 564 100 550 q 140 619 100 600 q 227 649 178 639 q 332 660 276 660 z "},"b":{"ha":763,"x_min":107,"x_max":693,"o":"m 390 660 q 545 623 476 660 q 653 511 614 586 q 693 321 693 436 q 652 129 693 204 q 539 18 611 54 q 371 -18 467 -18 q 248 -1 303 -18 q 158 35 193 15 q 118 71 129 54 q 107 117 107 88 l 107 579 l 218 579 l 218 117 q 279 88 239 101 q 371 74 319 74 q 523 133 465 74 q 581 321 581 193 q 522 509 581 450 q 374 568 464 568 q 275 547 318 568 q 204 497 232 525 l 183 588 q 265 635 214 611 q 390 660 317 660 m 107 557 l 107 900 q 128 906 114 903 q 160 910 143 910 q 203 898 189 910 q 218 860 218 886 l 218 557 l 107 557 z "},"c":{"ha":664,"x_min":68,"x_max":603,"o":"m 401 567 q 244 503 307 567 q 182 319 182 439 q 242 138 182 201 q 401 74 303 74 q 499 90 460 74 q 568 126 538 106 q 593 106 583 118 q 603 75 603 93 q 545 9 603 36 q 401 -18 488 -18 q 230 19 306 -18 q 111 131 154 56 q 68 319 68 206 q 113 508 68 432 q 233 622 157 583 q 399 660 308 660 q 541 631 485 660 q 597 564 597 601 q 588 535 597 547 q 563 515 578 522 q 495 551 532 536 q 401 567 458 567 z "},"d":{"ha":760,"x_min":68,"x_max":653,"o":"m 542 576 l 653 578 l 653 106 q 641 63 653 79 q 604 32 629 47 q 525 -2 576 14 q 407 -18 474 -18 q 231 17 307 -18 q 111 126 154 51 q 68 318 68 200 q 110 514 68 439 q 225 624 153 589 q 383 660 297 660 q 486 644 438 660 q 563 607 535 629 l 563 504 q 494 549 536 531 q 394 568 451 568 q 289 544 338 568 q 211 464 240 519 q 182 315 182 408 q 243 131 182 189 q 406 74 304 74 q 485 84 454 74 q 542 110 517 94 l 542 576 m 542 549 l 542 900 q 563 906 549 903 q 593 910 578 910 q 638 898 624 910 q 653 860 653 886 l 653 550 l 542 549 z "},"e":{"ha":721,"x_min":68,"x_max":664,"o":"m 139 338 l 558 394 q 506 520 553 471 q 375 569 458 569 q 233 508 289 569 q 176 331 176 446 l 176 300 q 249 131 186 189 q 422 74 313 74 q 528 93 481 74 q 603 135 575 113 q 627 112 618 125 q 636 82 636 99 q 606 33 636 56 q 527 -4 576 10 q 417 -18 478 -18 q 231 21 310 -18 q 110 137 153 60 q 68 325 68 214 q 91 466 68 404 q 155 571 114 528 q 253 637 196 614 q 376 660 310 660 q 526 624 461 660 q 627 523 590 588 q 664 375 664 458 q 650 331 664 344 q 611 315 636 318 l 144 250 l 139 338 z "},"f":{"ha":554,"x_min":107,"x_max":526,"o":"m 197 606 l 492 606 q 500 588 496 600 q 504 561 504 576 q 493 527 504 539 q 461 515 482 515 l 197 515 l 197 606 m 217 531 l 107 531 l 107 699 q 137 831 107 781 q 223 906 167 882 q 357 931 279 931 q 481 910 436 931 q 526 858 526 889 q 520 831 526 843 q 503 807 514 818 q 440 830 478 821 q 368 839 403 839 q 250 804 283 839 q 217 693 217 769 l 217 531 m 218 592 l 218 3 q 197 -3 211 0 q 167 -7 183 -7 q 122 5 138 -7 q 107 43 107 17 l 107 592 l 218 592 z "},"g":{"ha":746,"x_min":71,"x_max":644,"o":"m 371 19 q 222 51 290 19 q 113 153 154 82 q 71 340 71 224 q 112 517 71 446 q 225 624 153 588 q 390 660 297 660 q 508 644 454 660 q 597 604 561 628 q 631 573 618 590 q 644 531 644 556 l 644 101 l 533 101 l 533 529 q 474 556 510 544 q 390 568 439 568 q 240 511 297 568 q 183 342 183 454 q 241 164 183 217 q 383 111 299 111 q 482 132 444 111 q 542 178 519 153 l 547 79 q 481 38 526 57 q 371 19 436 19 m 533 125 l 644 125 l 644 -28 q 605 -175 644 -119 q 497 -256 565 -231 q 342 -281 428 -281 q 222 -265 272 -281 q 154 -240 172 -250 q 113 -181 113 -217 q 122 -148 113 -161 q 144 -128 131 -135 q 227 -169 174 -150 q 342 -187 281 -187 q 484 -147 435 -187 q 533 -21 533 -107 l 533 125 z "},"h":{"ha":765,"x_min":107,"x_max":661,"o":"m 550 276 l 550 404 q 503 528 550 488 q 383 568 457 568 q 283 547 329 568 q 204 497 236 526 l 183 588 q 272 635 217 611 q 399 660 326 660 q 588 597 514 660 q 661 407 661 535 l 661 276 l 550 276 m 218 367 l 218 3 q 197 -3 211 0 q 167 -7 183 -7 q 122 5 138 -7 q 107 43 107 17 l 107 367 l 218 367 m 661 364 l 661 3 q 640 -3 654 0 q 610 -7 625 -7 q 565 5 579 -7 q 550 43 550 17 l 550 365 l 661 364 m 107 313 l 107 900 q 128 906 114 903 q 160 910 143 910 q 203 898 189 910 q 218 860 218 886 l 218 313 l 107 313 z "},"i":{"ha":335,"x_min":94,"x_max":238,"o":"m 94 844 q 115 894 94 874 q 167 914 136 914 q 218 894 199 914 q 238 844 238 874 q 218 795 238 815 q 167 775 199 775 q 115 795 136 775 q 94 844 94 815 m 222 367 l 222 3 q 201 -3 215 0 q 171 -7 188 -7 q 126 5 142 -7 q 111 43 111 17 l 111 367 l 222 367 m 111 313 l 111 639 q 133 645 118 642 q 164 649 147 649 q 208 637 193 649 q 222 597 222 625 l 222 313 l 111 313 z "},"j":{"ha":338,"x_min":8,"x_max":242,"o":"m 8 -203 q 65 -171 42 -187 q 102 -124 89 -154 q 115 -42 115 -94 l 115 421 l 226 421 l 226 -62 q 199 -188 226 -143 q 135 -252 171 -233 q 72 -271 99 -271 q 24 -251 38 -271 q 8 -203 11 -231 m 99 844 q 119 894 99 874 q 171 914 140 914 q 222 894 203 914 q 242 844 242 874 q 222 795 242 815 q 171 775 203 775 q 119 795 140 775 q 99 844 99 815 m 115 313 l 115 639 q 137 645 122 642 q 168 649 151 649 q 212 637 197 649 q 226 597 226 625 l 226 297 l 115 313 z "},"k":{"ha":676,"x_min":107,"x_max":633,"o":"m 206 347 l 522 654 q 574 638 556 653 q 593 600 593 624 q 581 565 593 581 q 547 532 569 550 l 275 293 l 206 347 m 281 375 l 633 58 q 615 10 631 28 q 572 -8 599 -8 q 534 3 551 -8 q 499 32 517 14 l 203 329 l 281 375 m 218 356 l 218 3 q 197 -3 211 0 q 167 -7 183 -7 q 122 5 138 -7 q 107 43 107 17 l 107 372 l 218 356 m 107 318 l 107 900 q 128 906 114 903 q 160 910 143 910 q 203 898 189 910 q 218 860 218 886 l 218 301 l 107 318 z "},"l":{"ha":342,"x_min":115,"x_max":226,"o":"m 226 350 l 226 3 q 206 -3 219 0 q 175 -7 192 -7 q 131 5 146 -7 q 115 43 115 17 l 115 367 l 226 350 m 115 313 l 115 900 q 137 906 122 903 q 167 910 151 910 q 212 898 197 910 q 226 860 226 886 l 226 297 l 115 313 z "},"m":{"ha":1133,"x_min":104,"x_max":1029,"o":"m 622 285 l 511 285 l 511 436 q 472 536 511 504 q 367 568 432 568 q 283 554 324 568 q 215 522 243 540 l 215 285 l 104 285 l 104 517 q 116 564 104 544 q 157 601 128 583 q 252 642 194 625 q 368 660 310 660 q 493 638 439 660 q 574 579 547 617 q 588 564 582 571 q 599 546 593 557 q 615 503 608 529 q 622 444 622 476 l 622 285 m 1029 285 l 918 285 l 918 436 q 879 536 918 504 q 775 568 840 568 q 681 548 726 568 q 600 490 636 528 l 556 571 q 650 633 592 607 q 783 660 708 660 q 913 636 858 660 q 999 564 968 613 q 1029 442 1029 515 l 1029 285 m 215 358 l 215 3 q 194 -3 208 0 q 164 -7 181 -7 q 119 5 135 -7 q 104 43 104 17 l 104 358 l 215 358 m 622 358 l 622 3 q 601 -3 615 0 q 571 -7 586 -7 q 526 5 540 -7 q 511 43 511 17 l 511 358 l 622 358 m 1029 358 l 1029 3 q 1008 -3 1022 0 q 978 -7 993 -7 q 933 5 947 -7 q 918 43 918 17 l 918 358 l 1029 358 z "},"n":{"ha":764,"x_min":104,"x_max":660,"o":"m 660 282 l 549 282 l 549 418 q 505 532 549 496 q 388 568 461 568 q 289 554 332 568 q 215 522 246 540 l 215 282 l 104 282 l 104 517 q 116 565 104 546 q 157 601 128 583 q 253 641 193 622 q 388 660 313 660 q 587 602 514 660 q 660 424 660 544 l 660 282 m 215 358 l 215 3 q 194 -3 208 0 q 164 -7 181 -7 q 119 5 135 -7 q 104 43 104 17 l 104 358 l 215 358 m 660 358 l 660 3 q 638 -3 653 0 q 608 -7 624 -7 q 563 5 578 -7 q 549 43 549 17 l 549 358 l 660 358 z "},"o":{"ha":768,"x_min":68,"x_max":700,"o":"m 700 321 q 661 142 700 218 q 551 24 622 65 q 385 -18 481 -18 q 217 24 289 -18 q 107 142 146 65 q 68 321 68 218 q 108 501 68 425 q 219 618 147 576 q 385 660 290 660 q 550 618 479 660 q 660 501 621 576 q 700 321 700 425 m 385 568 q 237 502 292 568 q 182 321 182 436 q 235 139 182 204 q 385 74 289 74 q 533 140 479 74 q 586 321 586 206 q 533 502 586 436 q 385 568 479 568 z "},"p":{"ha":758,"x_min":104,"x_max":690,"o":"m 378 -18 q 540 19 469 -18 q 651 133 611 57 q 690 322 690 208 q 647 515 690 440 q 528 624 603 589 q 363 660 454 660 q 244 642 296 660 q 154 604 192 625 q 114 569 124 586 q 104 525 104 553 l 104 67 l 215 67 l 215 528 q 278 556 243 543 q 363 568 313 568 q 469 544 419 568 q 548 467 518 521 q 578 322 578 414 q 519 133 578 192 q 363 74 460 74 q 260 94 303 74 q 190 140 218 114 l 190 38 q 266 -1 214 17 q 378 -18 318 -18 m 104 107 l 104 -208 q 119 -247 104 -235 q 164 -260 135 -260 q 194 -256 181 -260 q 215 -250 208 -253 l 215 104 l 104 107 z "},"q":{"ha":758,"x_min":68,"x_max":654,"o":"m 543 89 l 543 529 q 484 556 519 544 q 400 568 449 568 q 291 543 340 568 q 212 463 242 518 q 182 317 182 407 q 242 131 182 189 q 399 74 301 74 q 490 91 449 74 q 556 132 532 108 l 556 31 q 485 -3 528 11 q 382 -18 443 -18 q 220 17 292 -18 q 108 126 149 51 q 68 317 68 200 q 112 510 68 433 q 230 623 156 586 q 397 660 304 660 q 518 643 464 660 q 608 604 572 626 q 642 574 629 592 q 654 531 654 556 l 654 88 l 543 89 m 654 111 l 654 -254 q 633 -260 647 -257 q 603 -264 618 -264 q 558 -251 572 -264 q 543 -212 543 -239 l 543 108 l 654 111 z "},"r":{"ha":531,"x_min":104,"x_max":504,"o":"m 215 303 l 104 303 l 104 514 q 116 565 104 546 q 156 601 128 583 q 254 642 192 625 q 393 660 317 660 q 504 604 504 660 q 500 578 504 590 q 489 558 496 567 q 453 564 475 561 q 408 567 431 567 q 296 553 344 567 q 215 522 247 540 l 215 303 m 215 350 l 215 3 q 194 -3 208 0 q 164 -7 181 -7 q 119 5 135 -7 q 104 43 104 17 l 104 367 l 215 350 z "},"s":{"ha":621,"x_min":64,"x_max":557,"o":"m 557 171 q 492 32 557 82 q 303 -18 426 -18 q 131 15 197 -18 q 64 86 64 47 q 73 119 64 103 q 100 144 82 135 q 188 96 138 118 q 301 74 238 74 q 446 171 446 74 q 422 237 446 211 q 350 274 397 263 l 235 304 q 111 369 150 325 q 72 478 72 413 q 132 606 72 551 q 314 660 192 660 q 428 647 379 660 q 503 612 476 633 q 531 565 531 590 q 522 533 531 547 q 497 513 513 519 q 455 537 481 524 q 394 559 429 550 q 318 568 360 568 q 219 544 257 568 q 182 478 182 521 q 203 424 182 447 q 272 390 225 401 l 368 367 q 510 297 463 344 q 557 171 557 249 z "},"t":{"ha":517,"x_min":106,"x_max":460,"o":"m 217 367 l 217 175 q 249 97 217 119 q 336 74 281 74 q 389 82 360 74 q 438 101 418 90 q 453 81 446 93 q 460 51 460 68 q 424 1 460 21 q 324 -18 388 -18 q 166 25 226 -18 q 106 168 106 68 l 106 367 l 217 367 m 163 628 l 444 628 q 453 610 449 622 q 457 583 457 597 q 446 549 457 561 q 415 536 435 536 l 163 536 l 163 628 m 106 325 l 106 828 q 127 834 113 831 q 158 838 142 838 q 202 826 188 838 q 217 788 217 814 l 217 325 l 106 325 z "},"u":{"ha":764,"x_min":104,"x_max":660,"o":"m 104 361 l 215 361 l 215 240 q 263 113 215 151 q 393 74 310 74 q 488 85 449 74 q 549 110 526 97 l 549 361 l 660 361 l 660 114 q 652 67 660 85 q 615 33 644 50 q 528 -1 585 15 q 392 -18 471 -18 q 235 9 300 -18 q 138 92 171 36 q 104 235 104 149 l 104 361 m 549 289 l 549 639 q 570 645 556 642 q 600 649 585 649 q 645 637 631 649 q 660 597 660 625 l 660 289 l 549 289 m 104 289 l 104 639 q 126 645 111 642 q 157 649 140 649 q 201 637 186 649 q 215 597 215 625 l 215 289 l 104 289 z "},"v":{"ha":688,"x_min":42,"x_max":638,"o":"m 585 654 q 623 642 608 654 q 638 606 638 629 q 622 538 638 588 q 582 418 607 488 q 527 273 557 349 q 466 127 497 197 q 408 6 435 57 q 384 -4 401 0 q 347 -8 367 -8 q 306 -1 324 -8 q 281 21 288 7 q 241 102 265 49 q 189 224 217 156 q 133 365 161 292 q 81 505 104 438 q 42 624 57 572 q 68 646 51 638 q 101 654 85 654 q 140 642 126 654 q 164 600 154 629 l 250 351 q 279 272 261 319 q 315 178 297 225 q 344 99 333 131 l 350 99 q 454 376 406 239 q 538 643 503 513 q 585 654 556 654 z "},"w":{"ha":1013,"x_min":54,"x_max":956,"o":"m 508 478 q 455 303 483 390 q 400 139 426 215 q 351 7 374 63 q 326 -4 340 0 q 289 -8 313 -8 q 248 -1 267 -8 q 222 24 229 7 q 191 104 208 51 q 155 225 174 157 q 117 366 136 293 q 81 507 97 439 q 54 628 65 575 q 78 646 64 638 q 114 654 93 654 q 153 640 140 654 q 172 593 167 625 q 201 461 185 535 q 234 315 217 388 q 266 185 251 243 q 288 100 281 128 l 293 100 q 328 209 304 133 q 384 382 351 285 q 450 579 417 479 q 476 590 461 586 q 510 593 492 593 q 551 584 535 593 q 574 557 568 575 q 636 369 607 461 q 688 205 665 276 q 719 99 710 133 l 726 99 q 796 364 758 222 q 857 642 833 506 q 904 654 876 654 q 942 643 928 654 q 956 608 956 632 q 947 550 956 593 q 922 449 938 507 q 888 324 907 390 q 850 197 869 258 q 813 85 831 135 q 783 7 796 35 q 760 -3 776 1 q 724 -8 744 -8 q 657 18 667 -8 q 613 142 638 68 q 561 303 588 217 q 508 478 535 390 z "},"x":{"ha":669,"x_min":57,"x_max":619,"o":"m 318 372 q 425 510 375 446 q 528 650 475 574 q 536 651 533 651 q 543 651 539 651 q 589 638 572 651 q 606 603 606 625 q 599 574 606 588 q 579 542 593 560 q 483 424 532 483 q 386 307 433 364 l 350 276 q 244 135 299 208 q 140 -7 190 63 q 131 -7 139 -7 q 121 -7 124 -7 q 73 7 89 -7 q 57 42 57 21 q 62 65 57 53 q 85 100 67 78 q 190 231 135 167 q 297 363 246 296 l 318 372 m 390 343 q 505 195 447 268 q 619 49 563 122 q 601 7 617 22 q 561 -8 586 -8 q 524 3 539 -8 q 489 40 508 15 q 401 164 447 99 q 313 286 354 229 l 281 315 q 167 456 219 389 q 58 593 114 522 q 79 636 64 621 q 117 651 94 651 q 154 640 140 651 q 182 608 168 628 q 269 487 224 553 q 365 360 315 421 l 390 343 z "},"y":{"ha":679,"x_min":42,"x_max":632,"o":"m 235 143 q 178 263 211 188 q 109 433 144 339 q 42 624 74 526 q 67 646 51 638 q 101 654 83 654 q 140 642 125 654 q 165 600 156 629 q 253 368 207 483 q 354 129 299 253 l 360 129 q 421 275 389 188 q 482 460 453 363 q 531 643 511 557 q 552 651 540 647 q 578 654 564 654 q 617 642 601 654 q 632 607 632 631 q 619 533 632 585 q 585 412 607 481 q 535 266 564 343 q 474 115 507 189 q 408 -19 442 40 q 292 -201 344 -137 q 194 -264 239 -264 q 145 -247 163 -264 q 124 -208 128 -231 q 192 -138 154 -182 q 266 -44 231 -94 q 324 53 301 7 q 280 78 300 60 q 235 143 260 96 z "},"z":{"ha":651,"x_min":63,"x_max":590,"o":"m 85 0 q 69 22 75 8 q 63 49 63 35 q 70 80 63 65 q 88 108 78 94 l 514 642 l 557 642 q 574 619 568 632 q 581 592 581 607 q 574 563 581 576 q 554 533 567 549 l 129 0 l 85 0 m 542 550 l 83 550 q 75 569 79 557 q 71 596 71 582 q 82 631 71 619 q 113 642 93 642 l 542 642 l 542 550 m 93 90 l 578 90 q 586 73 582 85 q 590 46 590 61 q 579 12 590 24 q 547 0 568 0 l 93 0 l 93 90 z "},"{":{"ha":390,"x_min":51,"x_max":349,"o":"m 169 382 q 241 310 215 358 q 267 189 267 263 l 267 7 q 285 -62 267 -42 q 344 -83 304 -82 q 348 -99 347 -92 q 349 -115 349 -107 q 336 -147 349 -135 q 299 -160 324 -160 q 203 -118 240 -160 q 167 7 167 -76 l 167 178 q 140 291 167 251 q 61 339 114 331 q 53 359 56 346 q 51 382 51 372 q 54 404 51 392 q 61 425 57 417 q 140 473 114 433 q 167 585 167 513 l 167 746 q 203 870 167 829 q 299 911 240 911 q 336 899 324 911 q 349 867 349 888 q 348 851 349 858 q 344 835 347 843 q 285 815 304 835 q 267 744 267 794 l 267 575 q 241 453 267 501 q 169 382 215 406 z "},"|":{"ha":349,"x_min":124,"x_max":225,"o":"m 225 -250 q 203 -257 215 -254 q 176 -260 192 -260 q 137 -247 150 -260 q 124 -204 124 -235 l 124 936 q 146 943 135 940 q 172 946 157 946 q 213 933 200 946 q 225 890 225 921 l 225 -250 z "},"}":{"ha":390,"x_min":42,"x_max":339,"o":"m 221 382 q 149 310 175 358 q 124 189 124 263 l 124 7 q 105 -62 124 -42 q 46 -83 86 -82 q 42 -99 43 -92 q 42 -115 42 -107 q 54 -147 42 -135 q 92 -160 67 -160 q 187 -118 150 -160 q 224 7 224 -76 l 224 178 q 250 291 224 251 q 329 339 276 331 q 337 359 335 346 q 339 382 339 372 q 336 404 339 392 q 329 425 333 417 q 250 473 276 433 q 224 585 224 513 l 224 746 q 187 870 224 829 q 92 911 150 911 q 54 899 67 911 q 42 867 42 888 q 42 851 42 858 q 46 835 43 843 q 105 815 86 835 q 124 744 124 794 l 124 575 q 149 453 124 501 q 221 382 175 406 z "},"~":{"ha":622,"x_min":35,"x_max":588,"o":"m 433 392 q 487 412 471 392 q 514 454 503 432 q 566 438 544 454 q 588 393 588 421 q 551 323 588 350 q 457 296 515 296 q 354 310 401 296 q 267 339 307 325 q 189 353 226 353 q 135 333 151 353 q 108 290 119 313 q 56 307 78 290 q 35 351 35 324 q 51 403 35 381 q 98 437 68 425 q 165 449 128 449 q 269 435 222 449 q 357 406 317 421 q 433 392 397 392 z "}," ":{"ha":278,"x_min":0,"x_max":0,"o":""},"¡":{"ha":347,"x_min":100,"x_max":256,"o":"m 119 -175 q 120 -66 119 -133 q 123 80 121 1 q 128 235 125 158 q 133 374 131 313 q 153 383 142 379 q 179 388 165 388 q 211 379 199 388 q 225 353 224 371 q 231 242 228 313 q 235 87 233 171 q 237 -78 236 3 q 238 -217 238 -158 q 175 -235 208 -235 q 134 -220 149 -235 q 119 -175 119 -206 m 256 571 q 235 515 256 538 q 178 493 214 493 q 121 515 142 493 q 100 571 100 538 q 121 626 100 604 q 178 649 142 649 q 235 626 214 649 q 256 571 256 604 z "},"¢":{"ha":661,"x_min":68,"x_max":603,"o":"m 425 39 l 425 -150 q 407 -154 419 -151 q 381 -157 394 -157 q 339 -145 354 -157 q 324 -111 324 -133 l 324 39 l 425 39 m 324 586 l 324 793 q 343 798 331 796 q 369 800 356 800 q 411 788 397 800 q 425 754 425 776 l 425 586 l 324 586 m 401 567 q 244 503 307 567 q 182 319 182 439 q 242 138 182 201 q 401 74 303 74 q 499 90 460 74 q 568 126 538 106 q 593 106 583 118 q 603 75 603 93 q 545 9 603 36 q 400 -18 488 -18 q 229 19 304 -18 q 111 131 154 56 q 68 319 68 206 q 113 508 68 432 q 233 622 157 583 q 399 660 308 660 q 541 631 485 660 q 597 564 597 601 q 587 535 597 547 q 561 515 576 522 q 495 551 532 536 q 401 567 458 567 z "},"£":{"ha":700,"x_min":75,"x_max":651,"o":"m 118 365 q 91 376 103 365 q 79 411 79 386 q 83 435 79 425 q 90 456 88 446 l 563 456 q 570 435 567 446 q 574 411 574 425 q 563 376 574 386 q 533 365 551 365 l 118 365 m 201 304 q 197 386 201 336 q 186 490 192 436 q 181 581 181 543 q 219 742 181 681 q 321 833 257 804 q 461 863 385 863 q 594 834 551 863 q 638 778 638 806 q 630 751 638 767 q 606 725 622 735 q 544 757 575 746 q 468 768 513 768 q 335 718 379 768 q 292 565 292 668 q 297 478 292 529 q 306 378 301 426 q 310 301 310 331 q 290 176 310 228 q 233 92 271 125 l 640 92 q 649 72 646 82 q 651 46 651 61 q 640 12 651 24 q 611 0 629 0 l 139 0 q 94 16 113 0 q 75 63 75 32 q 76 83 75 75 q 170 161 139 115 q 201 304 201 207 z "},"¤":{"ha":729,"x_min":83,"x_max":646,"o":"m 286 583 l 211 674 q 182 706 197 690 q 149 721 167 721 q 113 708 131 721 q 83 671 94 696 l 201 531 l 286 583 m 518 414 q 476 290 518 333 q 364 247 433 247 q 251 290 294 247 q 208 414 208 333 q 251 537 208 493 q 364 581 294 581 q 476 537 433 581 q 518 414 518 493 m 525 517 l 597 606 q 622 640 613 624 q 631 674 631 656 q 611 713 631 699 q 565 732 592 726 l 453 588 l 525 517 m 621 414 q 586 552 621 496 q 493 638 551 608 q 364 667 435 667 q 235 638 293 667 q 142 552 176 608 q 107 414 107 496 q 142 274 107 331 q 235 189 176 218 q 364 160 293 160 q 493 189 435 160 q 586 274 551 218 q 621 414 621 331 m 444 238 l 518 149 q 548 115 532 131 q 581 100 564 100 q 617 113 600 100 q 646 151 635 125 l 528 292 l 444 238 m 208 304 l 135 215 q 111 182 121 199 q 101 149 101 165 q 122 109 101 124 q 168 89 142 94 l 281 233 l 208 304 z "},"¥":{"ha":758,"x_min":51,"x_max":696,"o":"m 285 449 q 197 581 242 513 q 115 711 153 649 q 51 822 78 774 q 76 847 61 835 q 113 858 92 858 q 151 845 136 858 q 181 803 165 832 l 379 479 l 386 479 q 463 604 431 549 q 526 717 494 660 q 600 847 558 774 q 623 856 613 854 q 647 858 633 858 q 684 845 672 858 q 696 814 696 832 q 677 765 696 801 q 626 675 658 728 q 556 562 594 622 q 479 443 518 501 l 285 449 m 439 268 l 439 1 q 417 -3 432 0 q 388 -7 403 -7 q 341 6 357 -7 q 325 43 325 18 l 325 268 l 439 268 m 367 475 l 679 475 q 687 454 683 465 q 690 431 690 443 q 681 400 690 411 q 656 389 671 389 l 339 389 l 367 475 m 426 389 l 82 389 q 72 408 76 396 q 68 433 68 419 q 78 466 68 457 q 103 475 89 475 l 404 475 l 426 389 m 82 206 q 72 224 76 213 q 68 250 68 236 q 78 283 68 275 q 101 292 89 292 l 676 292 q 684 272 681 285 q 688 247 688 258 q 678 217 688 228 q 654 206 668 206 l 82 206 z "},"¦":{"ha":407,"x_min":124,"x_max":225,"o":"m 225 431 q 203 424 215 426 q 176 421 192 421 q 137 433 150 421 q 124 476 124 446 l 124 938 q 146 944 135 942 q 172 947 157 947 q 213 935 200 947 q 225 892 225 922 l 225 431 m 225 -250 q 203 -257 215 -254 q 176 -260 192 -260 q 137 -247 150 -260 q 124 -204 124 -235 l 124 257 q 146 264 135 261 q 172 267 157 267 q 213 254 200 267 q 225 211 225 242 l 225 -250 z "},"§":{"ha":700,"x_min":83,"x_max":617,"o":"m 617 118 q 547 -15 617 33 q 344 -62 478 -62 q 210 -48 269 -62 q 117 -9 151 -33 q 83 42 83 15 q 93 75 83 61 q 118 99 103 89 q 221 49 165 69 q 344 28 276 28 q 465 51 422 28 q 507 118 507 74 q 480 174 507 156 q 392 207 453 193 l 265 235 q 139 291 190 250 q 88 414 88 332 q 126 519 88 479 q 214 578 164 560 l 294 536 q 224 492 253 521 q 196 417 196 463 q 224 355 196 378 q 299 322 251 332 l 426 294 q 565 238 513 276 q 617 118 617 199 m 617 393 q 596 311 617 346 q 542 253 575 276 q 476 218 510 231 l 406 271 q 478 315 450 286 q 507 392 507 344 q 479 453 507 432 q 390 489 451 475 l 265 514 q 178 544 218 525 q 116 597 139 563 q 93 686 93 631 q 158 817 93 771 q 340 863 224 863 q 461 850 408 863 q 544 817 514 838 q 575 771 575 797 q 566 740 575 753 q 546 719 557 726 q 490 744 521 732 q 422 765 458 757 q 343 772 385 772 q 240 751 278 772 q 203 686 203 729 q 228 629 203 647 q 300 601 254 611 l 425 576 q 564 515 511 554 q 617 393 617 476 z "},"¨":{"ha":519,"x_min":78,"x_max":454,"o":"m 214 842 q 194 795 214 815 q 144 775 175 775 q 97 795 115 775 q 78 842 78 815 q 97 889 78 869 q 144 908 115 908 q 194 889 175 908 q 214 842 214 869 m 454 842 q 434 795 454 815 q 385 775 414 775 q 337 795 357 775 q 317 842 317 815 q 337 889 317 869 q 385 908 357 908 q 434 889 414 908 q 454 842 454 869 z "},"©":{"ha":990,"x_min":75,"x_max":915,"o":"m 75 414 q 128 633 75 535 q 274 788 181 731 q 493 846 368 846 q 713 788 618 846 q 862 633 808 731 q 915 414 915 535 q 862 203 915 297 q 713 53 808 108 q 493 -3 618 -3 q 274 53 368 -3 q 128 203 181 108 q 75 414 75 297 m 493 771 q 315 725 390 771 q 201 599 240 679 q 161 414 161 519 q 201 237 161 314 q 315 116 240 160 q 493 72 390 72 q 672 116 597 72 q 785 237 746 160 q 825 414 825 314 q 785 599 825 519 q 672 725 746 679 q 493 771 597 771 m 524 583 q 419 545 465 583 q 374 421 374 507 q 417 301 374 342 q 528 260 461 260 q 589 269 567 260 q 629 290 611 279 q 657 246 657 275 q 623 201 657 224 q 521 178 589 178 q 397 206 453 178 q 308 288 342 233 q 275 421 275 342 q 310 561 275 507 q 400 641 346 615 q 510 667 454 667 q 611 645 571 667 q 651 590 651 624 q 642 569 651 581 q 622 553 633 558 q 579 574 603 564 q 524 583 556 583 z "},"ª":{"ha":489,"x_min":58,"x_max":418,"o":"m 242 497 q 296 503 271 497 q 333 517 321 510 l 333 628 l 239 618 q 167 599 189 613 q 144 561 144 586 q 168 514 144 531 q 242 497 192 497 m 238 861 q 367 829 315 861 q 418 708 418 797 l 418 493 q 409 471 418 481 q 385 453 400 461 q 242 424 324 424 q 108 456 157 424 q 58 556 58 489 q 100 649 58 617 q 221 688 142 681 l 333 699 l 333 708 q 309 771 333 754 q 232 788 285 788 q 161 776 197 788 q 101 750 125 765 q 84 767 92 756 q 76 792 76 778 q 84 816 76 807 q 106 833 92 825 q 163 853 126 844 q 238 861 200 861 z "},"«":{"ha":651,"x_min":49,"x_max":596,"o":"m 332 114 q 319 76 332 93 q 279 58 306 58 q 246 70 261 58 q 217 96 231 82 l 63 267 q 53 288 57 276 q 49 314 49 300 q 54 348 49 336 q 69 368 60 360 l 271 578 q 312 559 299 572 q 325 528 325 546 q 316 498 325 511 q 288 464 307 485 l 140 313 l 332 114 m 596 114 q 583 76 596 93 q 544 58 569 58 q 510 70 526 58 q 482 96 494 82 l 326 267 q 317 288 321 276 q 313 314 313 300 q 318 348 313 336 q 333 368 324 360 l 535 578 q 576 559 563 572 q 589 528 589 546 q 580 498 589 511 q 551 464 571 485 l 406 313 l 596 114 z "},"¬":{"ha":753,"x_min":71,"x_max":681,"o":"m 628 532 q 666 519 651 532 q 681 481 681 506 l 681 253 q 658 246 671 249 q 631 243 646 243 q 590 256 603 243 q 576 299 576 268 l 576 442 l 81 442 q 74 461 76 450 q 71 485 71 472 q 84 520 71 508 q 119 532 97 532 l 628 532 z "},"­":{"ha":540,"x_min":75,"x_max":465,"o":"m 85 317 q 78 337 81 326 q 75 361 75 347 q 88 397 75 385 q 124 408 101 408 l 456 408 q 462 389 458 400 q 465 365 465 378 q 453 330 465 343 q 417 317 440 317 l 85 317 z "},"®":{"ha":860,"x_min":81,"x_max":779,"o":"m 81 524 q 124 696 81 618 q 247 821 168 774 q 429 868 325 868 q 611 821 532 868 q 735 696 690 774 q 779 524 779 618 q 735 351 779 429 q 611 226 690 272 q 429 179 532 179 q 247 226 325 179 q 124 351 168 272 q 81 524 81 429 m 157 524 q 191 382 157 444 q 286 283 225 319 q 429 247 347 247 q 572 283 511 247 q 667 382 633 319 q 701 524 701 444 q 667 665 701 603 q 572 764 633 728 q 429 800 511 800 q 286 764 347 800 q 191 665 225 728 q 157 524 157 603 m 388 486 l 388 375 q 372 373 382 374 q 351 372 363 372 q 325 378 335 372 q 315 404 315 383 l 315 661 q 346 686 315 681 q 382 692 365 690 q 418 693 399 693 q 522 666 485 693 q 560 589 560 639 q 540 530 560 554 q 490 496 519 506 l 569 399 q 556 379 567 388 q 529 371 544 371 q 505 378 515 371 q 483 399 494 385 l 424 486 l 388 486 m 432 543 q 485 592 485 543 q 468 624 485 613 q 424 636 451 636 q 405 635 414 636 q 388 633 396 635 l 388 543 l 432 543 z "},"¯":{"ha":456,"x_min":40,"x_max":415,"o":"m 56 792 q 45 811 50 800 q 40 836 40 822 q 53 871 40 860 q 85 882 65 882 l 401 882 q 411 862 407 874 q 415 838 415 850 q 403 803 415 814 q 371 792 392 792 l 56 792 z "},"°":{"ha":500,"x_min":54,"x_max":446,"o":"m 446 679 q 419 583 446 624 q 349 519 393 542 q 251 497 304 497 q 110 549 165 497 q 54 679 54 601 q 81 776 54 735 q 153 839 108 817 q 250 861 197 861 q 347 839 303 861 q 419 776 392 817 q 446 679 446 736 m 250 779 q 182 753 213 779 q 151 679 151 728 q 181 604 151 631 q 250 578 211 578 q 319 604 290 578 q 349 679 349 631 q 318 753 349 728 q 250 779 288 779 z "},"±":{"ha":761,"x_min":92,"x_max":668,"o":"m 100 442 q 94 461 97 450 q 92 485 92 472 q 105 520 92 508 q 140 532 118 532 l 660 532 q 665 513 663 524 q 668 489 668 503 q 656 454 668 467 q 619 442 643 442 l 100 442 m 100 0 q 94 19 97 8 q 92 43 92 31 q 105 78 92 67 q 140 90 118 90 l 660 90 q 665 72 663 82 q 668 47 668 61 q 656 13 668 25 q 619 0 643 0 l 100 0 m 433 208 q 413 202 424 206 q 386 199 401 199 q 345 212 358 199 q 332 256 332 225 l 332 760 q 355 767 343 764 q 382 769 367 769 q 421 757 408 769 q 433 714 433 744 l 433 208 z "},"²":{"ha":383,"x_min":32,"x_max":339,"o":"m 171 968 q 286 932 244 968 q 328 831 328 896 q 305 749 328 788 q 222 661 282 710 l 125 583 l 331 583 q 337 568 335 576 q 339 549 339 560 q 331 525 339 535 q 303 515 324 515 l 50 515 q 37 535 42 524 q 32 560 32 546 q 38 591 32 579 q 54 611 44 603 l 175 718 q 228 775 208 747 q 247 831 247 803 q 224 882 247 865 q 167 899 200 899 q 115 889 140 899 q 71 864 90 879 q 54 878 61 869 q 47 903 47 888 q 85 949 47 931 q 171 968 124 968 z "},"³":{"ha":378,"x_min":24,"x_max":336,"o":"m 186 776 q 232 792 214 776 q 250 833 250 808 q 226 881 250 864 q 160 899 201 899 q 103 889 129 899 q 60 868 76 879 q 44 885 50 875 q 38 908 38 894 q 77 951 38 935 q 168 968 117 968 q 288 933 246 968 q 331 842 331 899 q 313 782 331 808 q 263 744 294 756 q 316 704 296 733 q 336 638 336 675 q 287 536 336 568 q 167 504 238 504 q 65 524 107 504 q 24 572 24 544 q 31 599 24 588 q 51 615 39 610 q 95 588 68 601 q 164 574 122 574 q 230 592 204 574 q 256 644 256 610 q 237 690 256 672 q 186 708 218 708 l 107 708 q 99 724 101 715 q 96 743 96 733 q 107 776 96 765 l 186 776 z "},"´":{"ha":414,"x_min":104,"x_max":328,"o":"m 260 954 q 309 937 290 953 q 328 901 328 921 q 319 871 328 883 q 292 840 311 858 l 165 717 q 122 731 139 717 q 104 764 104 746 q 111 785 104 776 q 125 803 118 794 l 260 954 z "},"µ":{"ha":767,"x_min":107,"x_max":663,"o":"m 218 310 l 204 90 q 214 -19 210 51 q 218 -160 218 -89 l 218 -256 q 198 -260 213 -257 q 168 -264 183 -264 q 122 -251 138 -264 q 107 -214 107 -237 l 107 310 l 218 310 m 165 360 l 218 361 l 218 240 q 267 113 218 151 q 396 74 315 74 q 490 85 451 74 q 551 110 529 97 l 551 361 l 663 361 l 663 114 q 655 67 663 85 q 618 33 647 50 q 535 -1 589 17 q 408 -18 482 -18 q 286 1 342 -18 q 198 67 231 21 q 165 194 165 114 l 165 360 m 551 289 l 551 639 q 572 645 558 642 q 603 649 586 649 q 647 637 632 649 q 663 597 663 625 l 663 289 l 551 289 m 107 289 l 107 639 q 128 645 114 642 q 158 649 143 649 q 203 637 189 649 q 218 597 218 625 l 218 289 l 107 289 z "},"¶":{"ha":613,"x_min":21,"x_max":515,"o":"m 456 851 q 499 842 483 851 q 515 799 515 832 l 515 -96 q 495 -101 510 -97 q 465 -104 481 -104 q 420 -92 436 -104 q 404 -53 404 -81 l 404 756 l 313 756 l 313 383 q 294 356 313 367 q 236 344 276 344 q 135 371 185 344 q 53 452 85 397 q 21 592 21 507 q 60 738 21 681 q 161 823 99 794 q 296 851 224 851 l 456 851 z "},"·":{"ha":196,"x_min":22,"x_max":174,"o":"m 22 350 q 42 406 22 383 q 99 428 63 428 q 154 406 135 428 q 174 350 174 383 q 154 296 174 318 q 99 274 135 274 q 42 296 63 274 q 22 350 22 318 z "},"¸":{"ha":271,"x_min":4,"x_max":226,"o":"m 154 24 q 210 -39 193 -3 q 226 -118 226 -75 q 185 -224 226 -185 q 76 -262 143 -262 q 23 -249 42 -262 q 4 -212 4 -236 q 13 -179 4 -193 l 33 -179 q 106 -158 83 -179 q 129 -100 129 -136 q 119 -49 129 -76 q 85 3 108 -21 l 154 24 z "},"¹":{"ha":293,"x_min":22,"x_max":218,"o":"m 139 872 l 54 832 q 33 849 43 838 q 22 875 22 860 q 31 899 22 889 q 56 915 39 908 l 158 961 l 175 961 q 208 949 197 961 q 218 915 218 938 l 218 518 q 200 512 210 514 q 181 510 190 510 q 150 518 161 510 q 139 549 139 526 l 139 872 z "},"º":{"ha":525,"x_min":61,"x_max":463,"o":"m 463 642 q 408 480 463 536 q 263 424 353 424 q 117 479 174 424 q 61 643 61 535 q 119 806 61 750 q 263 861 176 861 q 408 805 353 861 q 463 642 463 749 m 263 786 q 180 749 211 786 q 149 643 149 711 q 180 538 149 575 q 263 500 211 500 q 344 537 314 500 q 375 642 375 574 q 345 748 375 710 q 263 786 315 786 z "},"»":{"ha":651,"x_min":56,"x_max":603,"o":"m 319 522 q 333 560 319 543 q 371 578 346 578 q 406 567 390 578 q 433 540 421 556 l 589 369 q 599 349 596 360 q 603 322 603 338 q 597 288 603 300 q 582 268 592 276 l 379 58 q 340 78 353 65 q 326 108 326 90 q 335 138 326 125 q 364 172 344 151 l 510 324 l 319 522 m 56 522 q 69 560 56 543 q 107 578 82 578 q 142 567 126 578 q 169 540 157 556 l 325 369 q 335 349 332 360 q 339 322 339 338 q 333 288 339 300 q 317 268 328 276 l 115 58 q 76 78 89 65 q 63 108 63 90 q 72 138 63 125 q 100 172 81 151 l 246 324 l 56 522 z "},"¿":{"ha":638,"x_min":54,"x_max":600,"o":"m 478 356 q 498 328 490 343 q 506 294 506 313 q 494 263 506 275 q 456 243 483 250 l 360 218 q 219 148 268 194 q 169 26 169 101 q 217 -88 169 -40 q 367 -136 265 -136 q 478 -119 422 -136 q 568 -74 535 -101 q 592 -100 583 -85 q 600 -133 600 -115 q 533 -204 600 -174 q 363 -235 467 -235 q 201 -201 271 -235 q 93 -110 132 -168 q 54 25 54 -51 q 126 214 54 142 q 342 322 197 286 l 478 356 m 493 571 q 472 515 493 538 q 415 492 450 492 q 358 515 379 492 q 336 571 336 538 q 358 626 336 604 q 415 649 379 649 q 472 626 450 649 q 493 571 493 604 z "},"À":{"ha":822,"x_min":42,"x_max":782,"o":"m 408 757 q 359 618 388 699 q 301 452 331 538 q 244 293 271 367 l 238 272 q 217 210 229 247 q 190 131 204 172 q 164 55 176 90 q 144 -3 151 19 q 124 -9 135 -7 q 99 -11 114 -11 q 59 1 76 -11 q 42 39 42 13 q 46 65 42 51 q 56 93 50 78 q 97 208 72 140 q 150 357 121 276 q 211 522 179 438 q 274 688 243 607 q 331 835 304 768 q 364 846 342 840 q 410 851 386 851 q 463 843 438 851 q 496 815 489 835 q 567 633 529 735 q 644 420 606 531 q 719 206 683 310 q 782 17 754 101 q 756 -3 772 4 q 721 -11 740 -11 q 681 1 694 -11 q 657 40 667 13 l 581 267 l 569 306 q 512 476 542 390 q 456 636 482 563 q 414 757 431 710 l 408 757 m 219 318 l 607 318 l 629 225 l 183 225 l 219 318 m 239 1067 q 238 1076 238 1072 q 238 1083 238 1081 q 251 1120 238 1106 q 285 1135 264 1135 q 335 1110 317 1135 l 451 969 q 438 935 450 947 q 407 922 426 922 q 383 928 393 922 q 361 944 372 935 l 239 1067 z "},"Á":{"ha":822,"x_min":42,"x_max":782,"o":"m 408 757 q 359 618 388 699 q 301 452 331 538 q 244 293 271 367 l 238 272 q 217 210 229 247 q 190 131 204 172 q 164 55 176 90 q 144 -3 151 19 q 124 -9 135 -7 q 99 -11 114 -11 q 59 1 76 -11 q 42 39 42 13 q 46 65 42 51 q 56 93 50 78 q 97 208 72 140 q 150 357 121 276 q 211 522 179 438 q 274 688 243 607 q 331 835 304 768 q 364 846 342 840 q 410 851 386 851 q 463 843 438 851 q 496 815 489 835 q 567 633 529 735 q 644 420 606 531 q 719 206 683 310 q 782 17 754 101 q 756 -3 772 4 q 721 -11 740 -11 q 681 1 694 -11 q 657 40 667 13 l 581 267 l 569 306 q 512 476 542 390 q 456 636 482 563 q 414 757 431 710 l 408 757 m 219 318 l 607 318 l 629 225 l 183 225 l 219 318 m 522 1139 q 569 1123 553 1138 q 585 1089 585 1108 q 577 1057 585 1069 q 550 1028 569 1044 l 432 922 q 391 936 406 925 q 376 964 376 947 q 382 988 376 978 q 396 1006 388 997 l 522 1139 z "},"Â":{"ha":822,"x_min":42,"x_max":782,"o":"m 414 1043 q 359 985 392 1019 q 286 915 326 951 q 247 930 263 918 q 232 961 232 942 q 242 990 232 978 q 268 1018 253 1003 l 350 1100 q 415 1131 381 1131 q 453 1122 438 1131 q 485 1094 468 1113 l 599 965 q 585 931 599 944 q 551 918 572 918 q 522 926 536 918 q 489 957 508 935 l 414 1043 m 408 757 q 359 618 388 699 q 301 452 331 538 q 244 293 271 367 l 238 272 q 217 210 229 247 q 190 131 204 172 q 164 55 176 90 q 144 -3 151 19 q 124 -9 135 -7 q 99 -11 114 -11 q 59 1 76 -11 q 42 39 42 13 q 46 65 42 51 q 56 93 50 78 q 97 208 72 140 q 150 357 121 276 q 211 522 179 438 q 274 688 243 607 q 331 835 304 768 q 364 846 342 840 q 410 851 386 851 q 463 843 438 851 q 496 815 489 835 q 567 633 529 735 q 644 420 606 531 q 719 206 683 310 q 782 17 754 101 q 756 -3 772 4 q 721 -11 740 -11 q 681 1 694 -11 q 657 40 667 13 l 581 267 l 569 306 q 512 476 542 390 q 456 636 482 563 q 414 757 431 710 l 408 757 m 219 318 l 607 318 l 629 225 l 183 225 l 219 318 z "},"Ã":{"ha":822,"x_min":42,"x_max":782,"o":"m 408 757 q 359 618 388 699 q 301 452 331 538 q 244 293 271 367 l 238 272 q 217 210 229 247 q 190 131 204 172 q 164 55 176 90 q 144 -3 151 19 q 124 -9 135 -7 q 99 -11 114 -11 q 59 1 76 -11 q 42 39 42 13 q 46 65 42 51 q 56 93 50 78 q 97 208 72 140 q 150 357 121 276 q 211 522 179 438 q 274 688 243 607 q 331 835 304 768 q 364 846 342 840 q 410 851 386 851 q 463 843 438 851 q 496 815 489 835 q 567 633 529 735 q 644 420 606 531 q 719 206 683 310 q 782 17 754 101 q 756 -3 772 4 q 721 -11 740 -11 q 681 1 694 -11 q 657 40 667 13 l 581 267 l 569 306 q 512 476 542 390 q 456 636 482 563 q 414 757 431 710 l 408 757 m 219 318 l 607 318 l 629 225 l 183 225 l 219 318 m 319 1092 q 390 1080 358 1092 q 448 1056 421 1068 q 499 1044 475 1044 q 535 1060 524 1044 q 553 1097 547 1075 l 561 1097 q 606 1085 586 1097 q 625 1044 625 1074 q 597 982 625 1006 q 524 958 569 958 q 451 971 485 958 q 390 995 418 983 q 340 1007 363 1007 q 304 992 315 1007 q 288 953 293 976 l 279 953 q 235 965 254 953 q 215 1006 215 978 q 230 1052 215 1033 q 269 1081 244 1071 q 319 1092 293 1092 z "},"Ä":{"ha":822,"x_min":42,"x_max":782,"o":"m 408 757 q 359 618 388 699 q 301 452 331 538 q 244 293 271 367 l 238 272 q 217 210 229 247 q 190 131 204 172 q 164 55 176 90 q 144 -3 151 19 q 124 -9 135 -7 q 99 -11 114 -11 q 59 1 76 -11 q 42 39 42 13 q 46 65 42 51 q 56 93 50 78 q 97 208 72 140 q 150 357 121 276 q 211 522 179 438 q 274 688 243 607 q 331 835 304 768 q 364 846 342 840 q 410 851 386 851 q 463 843 438 851 q 496 815 489 835 q 567 633 529 735 q 644 420 606 531 q 719 206 683 310 q 782 17 754 101 q 756 -3 772 4 q 721 -11 740 -11 q 681 1 694 -11 q 657 40 667 13 l 581 267 l 569 306 q 512 476 542 390 q 456 636 482 563 q 414 757 431 710 l 408 757 m 219 318 l 607 318 l 629 225 l 183 225 l 219 318 m 360 1025 q 340 978 360 999 q 290 958 321 958 q 242 978 261 958 q 224 1025 224 999 q 242 1072 224 1053 q 290 1092 261 1092 q 340 1072 321 1092 q 360 1025 360 1053 m 600 1025 q 580 978 600 999 q 531 958 560 958 q 483 978 503 958 q 463 1025 463 999 q 483 1072 463 1053 q 531 1092 503 1092 q 580 1072 560 1092 q 600 1025 600 1053 z "},"Å":{"ha":822,"x_min":42,"x_max":782,"o":"m 408 757 q 359 618 388 699 q 301 452 331 538 q 244 293 271 367 l 238 272 q 217 210 229 247 q 190 131 204 172 q 164 55 176 90 q 144 -3 151 19 q 124 -9 135 -7 q 99 -11 114 -11 q 59 1 76 -11 q 42 39 42 13 q 46 65 42 51 q 56 93 50 78 q 97 208 72 140 q 150 357 121 276 q 211 522 179 438 q 274 688 243 607 q 331 835 304 768 q 364 846 342 840 q 410 851 386 851 q 463 843 438 851 q 496 815 489 835 q 567 633 529 735 q 644 420 606 531 q 719 206 683 310 q 782 17 754 101 q 756 -3 772 4 q 721 -11 740 -11 q 681 1 694 -11 q 657 40 667 13 l 581 267 l 569 306 q 512 476 542 390 q 456 636 482 563 q 414 757 431 710 l 408 757 m 219 318 l 607 318 l 629 225 l 183 225 l 219 318 m 265 1033 q 305 1124 265 1088 q 413 1160 344 1160 q 521 1124 482 1160 q 560 1033 560 1088 q 521 944 560 981 q 413 908 482 908 q 305 944 344 908 q 265 1033 265 981 m 349 1033 q 367 992 349 1007 q 413 976 385 976 q 459 992 440 976 q 478 1033 478 1007 q 459 1076 478 1061 q 413 1092 440 1092 q 367 1076 385 1092 q 349 1033 349 1061 z "},"Æ":{"ha":1172,"x_min":54,"x_max":1101,"o":"m 553 751 l 308 297 l 276 239 l 150 -4 q 133 -9 140 -7 q 110 -11 125 -11 q 68 1 82 -11 q 54 33 54 13 q 60 60 54 46 q 75 93 65 75 q 123 183 90 122 q 199 324 156 243 q 292 495 243 406 q 390 673 342 585 q 481 835 439 761 q 510 847 492 842 q 551 851 528 851 q 588 847 571 851 q 617 835 604 843 q 633 817 629 828 l 635 751 l 553 751 m 229 318 l 601 318 l 624 225 l 192 225 l 229 318 m 672 763 l 672 11 q 651 5 667 10 q 619 0 635 0 q 577 17 593 0 q 561 61 561 35 l 561 763 l 672 763 m 619 481 l 1038 481 q 1047 463 1043 475 q 1051 436 1051 450 q 1040 400 1051 414 q 1008 386 1028 386 l 619 386 l 619 481 m 619 94 l 1088 94 q 1097 77 1092 89 q 1101 50 1101 65 q 1090 14 1101 28 q 1058 0 1078 0 l 619 0 l 619 94 m 604 793 q 623 831 606 817 q 671 844 640 844 l 1081 844 q 1090 826 1086 839 q 1094 800 1094 814 q 1083 763 1094 778 q 1051 749 1071 749 l 604 749 l 604 793 z "},"Ç":{"ha":817,"x_min":75,"x_max":749,"o":"m 740 751 q 728 719 740 733 q 701 697 717 704 q 617 744 667 722 q 490 767 568 767 q 338 728 406 767 q 231 612 271 689 q 192 421 192 535 q 276 164 192 250 q 494 78 360 78 q 621 99 567 78 q 710 146 675 119 q 736 126 724 140 q 749 92 749 111 q 741 65 749 78 q 715 39 733 51 q 628 -1 683 17 q 486 -18 572 -18 q 277 31 371 -18 q 129 178 183 81 q 75 421 75 275 q 131 665 75 567 q 280 813 188 764 q 482 863 372 863 q 617 846 558 863 q 708 803 675 829 q 740 751 740 778 m 496 24 q 551 -39 535 -3 q 568 -118 568 -75 q 526 -224 568 -185 q 418 -262 485 -262 q 365 -249 383 -262 q 346 -212 346 -236 q 354 -179 346 -193 l 375 -179 q 448 -158 425 -179 q 471 -100 471 -136 q 460 -49 471 -76 q 426 3 450 -21 l 496 24 z "},"È":{"ha":753,"x_min":140,"x_max":682,"o":"m 253 508 l 253 11 q 232 5 247 10 q 201 0 217 0 q 157 17 174 0 q 140 61 140 35 l 140 508 l 253 508 m 140 346 l 140 783 q 157 828 140 811 q 201 844 174 844 q 232 840 217 844 q 253 833 247 836 l 253 344 l 140 346 m 201 481 l 619 481 q 628 463 624 475 q 632 436 632 450 q 621 400 632 414 q 589 386 610 386 l 201 386 l 201 481 m 201 94 l 669 94 q 678 77 674 89 q 682 50 682 65 q 671 14 682 28 q 639 0 660 0 l 201 0 l 201 94 m 201 844 l 663 844 q 671 826 667 839 q 675 800 675 814 q 664 763 675 778 q 632 749 653 749 l 201 749 l 201 844 m 265 1067 q 264 1076 264 1072 q 264 1083 264 1081 q 277 1120 264 1106 q 311 1135 290 1135 q 361 1110 343 1135 l 478 969 q 465 935 476 947 q 433 922 453 922 q 409 928 419 922 q 388 944 399 935 l 265 1067 z "},"É":{"ha":753,"x_min":140,"x_max":682,"o":"m 253 508 l 253 11 q 232 5 247 10 q 201 0 217 0 q 157 17 174 0 q 140 61 140 35 l 140 508 l 253 508 m 140 346 l 140 783 q 157 828 140 811 q 201 844 174 844 q 232 840 217 844 q 253 833 247 836 l 253 344 l 140 346 m 201 481 l 619 481 q 628 463 624 475 q 632 436 632 450 q 621 400 632 414 q 589 386 610 386 l 201 386 l 201 481 m 201 94 l 669 94 q 678 77 674 89 q 682 50 682 65 q 671 14 682 28 q 639 0 660 0 l 201 0 l 201 94 m 201 844 l 663 844 q 671 826 667 839 q 675 800 675 814 q 664 763 675 778 q 632 749 653 749 l 201 749 l 201 844 m 514 1139 q 560 1123 544 1138 q 576 1089 576 1108 q 569 1057 576 1069 q 542 1028 561 1044 l 424 922 q 383 936 397 925 q 368 964 368 947 q 374 988 368 978 q 388 1006 379 997 l 514 1139 z "},"Ê":{"ha":753,"x_min":140,"x_max":682,"o":"m 253 508 l 253 11 q 232 5 247 10 q 201 0 217 0 q 157 17 174 0 q 140 61 140 35 l 140 508 l 253 508 m 140 346 l 140 783 q 157 828 140 811 q 201 844 174 844 q 232 840 217 844 q 253 833 247 836 l 253 344 l 140 346 m 201 481 l 619 481 q 628 463 624 475 q 632 436 632 450 q 621 400 632 414 q 589 386 610 386 l 201 386 l 201 481 m 201 94 l 669 94 q 678 77 674 89 q 682 50 682 65 q 671 14 682 28 q 639 0 660 0 l 201 0 l 201 94 m 201 844 l 663 844 q 671 826 667 839 q 675 800 675 814 q 664 763 675 778 q 632 749 653 749 l 201 749 l 201 844 m 411 1043 q 356 985 389 1019 q 283 915 324 951 q 244 930 260 918 q 229 961 229 942 q 240 990 229 978 q 265 1018 250 1003 l 347 1100 q 413 1131 378 1131 q 450 1122 435 1131 q 482 1094 465 1113 l 596 965 q 583 931 596 944 q 549 918 569 918 q 519 926 533 918 q 486 957 506 935 l 411 1043 z "},"Ë":{"ha":753,"x_min":140,"x_max":682,"o":"m 253 508 l 253 11 q 232 5 247 10 q 201 0 217 0 q 157 17 174 0 q 140 61 140 35 l 140 508 l 253 508 m 140 346 l 140 783 q 157 828 140 811 q 201 844 174 844 q 232 840 217 844 q 253 833 247 836 l 253 344 l 140 346 m 201 481 l 619 481 q 628 463 624 475 q 632 436 632 450 q 621 400 632 414 q 589 386 610 386 l 201 386 l 201 481 m 201 94 l 669 94 q 678 77 674 89 q 682 50 682 65 q 671 14 682 28 q 639 0 660 0 l 201 0 l 201 94 m 201 844 l 663 844 q 671 826 667 839 q 675 800 675 814 q 664 763 675 778 q 632 749 653 749 l 201 749 l 201 844 m 367 1013 q 347 966 367 986 q 297 946 328 946 q 249 966 268 946 q 231 1013 231 986 q 249 1060 231 1040 q 297 1079 268 1079 q 347 1060 328 1079 q 367 1013 367 1040 m 607 1013 q 587 966 607 986 q 538 946 567 946 q 490 966 510 946 q 469 1013 469 986 q 490 1060 469 1040 q 538 1079 510 1079 q 587 1060 567 1079 q 607 1013 607 1040 z "},"Ì":{"ha":364,"x_min":4,"x_max":238,"o":"m 238 504 l 238 3 q 217 -3 231 0 q 186 -7 203 -7 q 140 6 156 -7 q 125 44 125 18 l 125 504 l 238 504 m 125 411 l 125 842 q 147 848 132 844 q 178 851 161 851 q 223 840 208 851 q 238 800 238 828 l 238 411 l 125 411 m 6 1067 q 4 1076 4 1072 q 4 1083 4 1081 q 17 1120 4 1106 q 51 1135 31 1135 q 101 1110 83 1135 l 218 969 q 205 935 217 947 q 174 922 193 922 q 149 928 160 922 q 128 944 139 935 l 6 1067 z "},"Í":{"ha":364,"x_min":125,"x_max":346,"o":"m 238 504 l 238 3 q 217 -3 231 0 q 186 -7 203 -7 q 140 6 156 -7 q 125 44 125 18 l 125 504 l 238 504 m 125 411 l 125 842 q 147 848 132 844 q 178 851 161 851 q 223 840 208 851 q 238 800 238 828 l 238 411 l 125 411 m 283 1139 q 330 1123 314 1138 q 346 1089 346 1108 q 338 1057 346 1069 q 311 1028 331 1044 l 193 922 q 152 936 167 925 q 138 964 138 947 q 143 988 138 978 q 157 1006 149 997 l 283 1139 z "},"Î":{"ha":364,"x_min":1,"x_max":368,"o":"m 238 504 l 238 3 q 217 -3 231 0 q 186 -7 203 -7 q 140 6 156 -7 q 125 44 125 18 l 125 504 l 238 504 m 125 411 l 125 842 q 147 848 132 844 q 178 851 161 851 q 223 840 208 851 q 238 800 238 828 l 238 411 l 125 411 m 183 1043 q 128 985 161 1019 q 56 915 96 951 q 17 930 32 918 q 1 961 1 942 q 12 990 1 978 q 38 1018 22 1003 l 119 1100 q 185 1131 150 1131 q 222 1122 207 1131 q 254 1094 238 1113 l 368 965 q 355 931 368 944 q 321 918 342 918 q 292 926 306 918 q 258 957 278 935 l 183 1043 z "},"Ï":{"ha":364,"x_min":-6,"x_max":371,"o":"m 238 504 l 238 3 q 217 -3 231 0 q 186 -7 203 -7 q 140 6 156 -7 q 125 44 125 18 l 125 504 l 238 504 m 125 411 l 125 842 q 147 848 132 844 q 178 851 161 851 q 223 840 208 851 q 238 800 238 828 l 238 411 l 125 411 m 131 1013 q 111 966 131 986 q 61 946 92 946 q 13 966 32 946 q -6 1013 -6 986 q 13 1060 -6 1040 q 61 1079 32 1079 q 111 1060 92 1079 q 131 1013 131 1040 m 371 1013 q 351 966 371 986 q 301 946 331 946 q 253 966 274 946 q 233 1013 233 986 q 253 1060 233 1040 q 301 1079 274 1079 q 351 1060 331 1079 q 371 1013 371 1040 z "},"Ð":{"ha":947,"x_min":14,"x_max":871,"o":"m 208 375 l 460 375 q 491 389 479 375 q 503 425 503 403 q 499 452 503 440 q 490 469 494 464 l 208 469 l 208 375 m 296 469 l 57 469 q 26 456 38 469 q 14 419 14 443 q 18 394 14 406 q 28 375 22 382 l 296 375 l 296 469 m 756 432 q 672 169 756 258 q 426 79 589 79 q 348 82 386 79 q 276 93 310 85 l 276 754 q 338 763 304 760 q 414 765 371 765 q 585 731 508 765 q 709 624 663 697 q 756 432 756 551 m 871 432 q 813 669 871 575 q 653 812 756 764 q 415 860 551 860 q 307 856 361 860 q 210 838 253 851 q 176 819 188 831 q 164 785 164 807 l 164 71 q 222 7 164 25 q 328 -12 272 -8 q 428 -15 385 -15 q 662 33 563 -15 q 816 181 761 82 q 871 432 871 281 z "},"Ñ":{"ha":917,"x_min":124,"x_max":793,"o":"m 218 757 q 228 656 224 714 q 234 535 232 597 q 236 418 236 474 l 236 3 q 215 -3 229 0 q 185 -7 200 -7 q 139 5 154 -7 q 124 43 124 17 l 124 749 l 218 757 m 697 88 q 681 326 683 204 q 679 561 679 447 l 679 842 q 701 848 688 844 q 732 851 715 851 q 778 840 763 851 q 793 801 793 828 l 793 96 l 697 88 m 793 143 l 793 15 q 761 -1 781 6 q 718 -8 742 -8 q 661 5 685 -8 q 618 53 638 18 l 354 497 q 308 580 333 535 q 261 666 283 625 q 226 733 239 707 l 124 707 l 124 828 q 155 846 135 839 q 199 853 175 853 q 256 840 232 853 q 299 792 279 826 l 564 347 q 610 265 586 310 q 656 178 635 219 q 689 111 676 138 l 793 138 l 793 143 m 347 1092 q 417 1080 386 1092 q 476 1056 449 1068 q 526 1044 503 1044 q 563 1060 551 1044 q 581 1097 575 1075 l 589 1097 q 633 1085 614 1097 q 653 1044 653 1074 q 625 982 653 1006 q 551 958 597 958 q 479 971 513 958 q 418 995 446 983 q 368 1007 390 1007 q 332 992 343 1007 q 315 953 321 976 l 307 953 q 263 965 282 953 q 243 1006 243 978 q 258 1052 243 1033 q 297 1081 272 1071 q 347 1092 321 1092 z "},"Ò":{"ha":957,"x_min":75,"x_max":881,"o":"m 881 422 q 828 180 881 278 q 684 32 775 82 q 478 -18 593 -18 q 272 32 364 -18 q 128 180 181 82 q 75 422 75 278 q 129 665 75 567 q 274 813 183 763 q 478 863 365 863 q 683 813 592 863 q 827 665 774 763 q 881 422 881 567 m 765 422 q 687 677 765 588 q 478 767 608 767 q 270 677 349 767 q 192 422 192 588 q 269 167 192 257 q 478 78 347 78 q 688 167 610 78 q 765 422 765 257 m 310 1067 q 308 1076 308 1072 q 308 1083 308 1081 q 322 1120 308 1106 q 356 1135 335 1135 q 406 1110 388 1135 l 522 969 q 509 935 521 947 q 478 922 497 922 q 453 928 464 922 q 432 944 443 935 l 310 1067 z "},"Ó":{"ha":957,"x_min":75,"x_max":881,"o":"m 881 422 q 828 180 881 278 q 684 32 775 82 q 478 -18 593 -18 q 272 32 364 -18 q 128 180 181 82 q 75 422 75 278 q 129 665 75 567 q 274 813 183 763 q 478 863 365 863 q 683 813 592 863 q 827 665 774 763 q 881 422 881 567 m 765 422 q 687 677 765 588 q 478 767 608 767 q 270 677 349 767 q 192 422 192 588 q 269 167 192 257 q 478 78 347 78 q 688 167 610 78 q 765 422 765 257 m 586 1139 q 633 1123 617 1138 q 649 1089 649 1108 q 641 1057 649 1069 q 614 1028 633 1044 l 496 922 q 455 936 469 925 q 440 964 440 947 q 446 988 440 978 q 460 1006 451 997 l 586 1139 z "},"Ô":{"ha":957,"x_min":75,"x_max":881,"o":"m 881 422 q 828 180 881 278 q 684 32 775 82 q 478 -18 593 -18 q 272 32 364 -18 q 128 180 181 82 q 75 422 75 278 q 129 665 75 567 q 274 813 183 763 q 478 863 365 863 q 683 813 592 863 q 827 665 774 763 q 881 422 881 567 m 765 422 q 687 677 765 588 q 478 767 608 767 q 270 677 349 767 q 192 422 192 588 q 269 167 192 257 q 478 78 347 78 q 688 167 610 78 q 765 422 765 257 m 476 1043 q 422 985 454 1019 q 349 915 389 951 q 310 930 325 918 q 294 961 294 942 q 305 990 294 978 q 331 1018 315 1003 l 413 1100 q 478 1131 443 1131 q 515 1122 500 1131 q 547 1094 531 1113 l 661 965 q 648 931 661 944 q 614 918 635 918 q 585 926 599 918 q 551 957 571 935 l 476 1043 z "},"Õ":{"ha":957,"x_min":75,"x_max":881,"o":"m 881 422 q 828 180 881 278 q 684 32 775 82 q 478 -18 593 -18 q 272 32 364 -18 q 128 180 181 82 q 75 422 75 278 q 129 665 75 567 q 274 813 183 763 q 478 863 365 863 q 683 813 592 863 q 827 665 774 763 q 881 422 881 567 m 765 422 q 687 677 765 588 q 478 767 608 767 q 270 677 349 767 q 192 422 192 588 q 269 167 192 257 q 478 78 347 78 q 688 167 610 78 q 765 422 765 257 m 378 1092 q 448 1080 417 1092 q 506 1056 479 1068 q 557 1044 533 1044 q 594 1060 582 1044 q 611 1097 606 1075 l 619 1097 q 664 1085 644 1097 q 683 1044 683 1074 q 656 982 683 1006 q 582 958 628 958 q 510 971 543 958 q 449 995 476 983 q 399 1007 421 1007 q 363 992 374 1007 q 346 953 351 976 l 338 953 q 293 965 313 953 q 274 1006 274 978 q 288 1052 274 1033 q 327 1081 303 1071 q 378 1092 351 1092 z "},"Ö":{"ha":957,"x_min":75,"x_max":881,"o":"m 881 422 q 828 180 881 278 q 684 32 775 82 q 478 -18 593 -18 q 272 32 364 -18 q 128 180 181 82 q 75 422 75 278 q 129 665 75 567 q 274 813 183 763 q 478 863 365 863 q 683 813 592 863 q 827 665 774 763 q 881 422 881 567 m 765 422 q 687 677 765 588 q 478 767 608 767 q 270 677 349 767 q 192 422 192 588 q 269 167 192 257 q 478 78 347 78 q 688 167 610 78 q 765 422 765 257 m 425 1013 q 406 966 425 986 q 356 946 386 946 q 308 966 326 946 q 289 1013 289 986 q 308 1060 289 1040 q 356 1079 326 1079 q 406 1060 386 1079 q 425 1013 425 1040 m 665 1013 q 645 966 665 986 q 596 946 625 946 q 548 966 568 946 q 528 1013 528 986 q 548 1060 528 1040 q 596 1079 568 1079 q 645 1060 625 1079 q 665 1013 665 1040 z "},"×":{"ha":688,"x_min":83,"x_max":606,"o":"m 606 196 q 585 163 600 178 q 549 147 571 147 q 525 153 536 147 q 507 168 514 160 l 329 367 l 297 392 l 86 617 q 106 651 92 635 q 140 668 119 668 q 165 660 154 668 q 183 644 176 653 l 363 450 l 394 424 l 606 196 m 400 388 l 356 356 l 140 142 q 103 162 122 149 q 83 196 83 175 q 92 220 83 208 q 111 242 101 232 l 293 419 l 333 446 l 543 665 q 576 647 560 660 q 593 611 593 633 q 586 588 593 599 q 569 567 579 576 l 400 388 z "},"Ø":{"ha":957,"x_min":68,"x_max":881,"o":"m 133 -22 q 83 2 99 -15 q 68 35 68 19 q 78 66 68 53 q 104 97 88 79 l 174 168 l 251 106 l 133 -22 m 760 667 l 696 746 l 807 869 q 853 849 835 864 q 872 815 872 835 q 865 789 872 803 q 838 751 857 775 l 760 667 m 235 86 l 188 179 l 675 724 l 740 647 l 235 86 m 881 422 q 828 180 881 278 q 684 32 775 82 q 478 -18 593 -18 q 272 33 364 -18 q 128 183 181 85 q 75 422 75 282 q 129 665 75 567 q 274 813 183 763 q 478 863 365 863 q 683 811 592 863 q 827 661 774 760 q 881 422 881 563 m 767 422 q 688 675 767 583 q 478 767 608 767 q 269 677 349 767 q 190 422 190 588 q 269 170 190 263 q 478 78 347 78 q 688 167 610 78 q 767 422 767 257 z "},"Ù":{"ha":901,"x_min":122,"x_max":779,"o":"m 450 -18 q 272 20 346 -18 q 160 128 199 58 q 122 292 122 199 l 122 406 l 235 406 l 235 301 q 297 134 235 190 q 450 78 358 78 q 603 134 542 78 q 665 301 665 190 l 665 406 l 779 406 l 779 292 q 741 128 779 199 q 629 20 703 58 q 450 -18 556 -18 m 122 349 l 122 842 q 144 848 129 844 q 175 851 158 851 q 220 840 206 851 q 235 800 235 828 l 235 349 l 122 349 m 665 349 l 665 842 q 687 848 672 844 q 718 851 701 851 q 764 840 749 851 q 779 800 779 828 l 779 349 l 665 349 m 275 1067 q 274 1076 274 1072 q 274 1083 274 1081 q 287 1120 274 1106 q 321 1135 300 1135 q 371 1110 353 1135 l 488 969 q 474 935 486 947 q 443 922 463 922 q 419 928 429 922 q 397 944 408 935 l 275 1067 z "},"Ú":{"ha":901,"x_min":122,"x_max":779,"o":"m 450 -18 q 272 20 346 -18 q 160 128 199 58 q 122 292 122 199 l 122 406 l 235 406 l 235 301 q 297 134 235 190 q 450 78 358 78 q 603 134 542 78 q 665 301 665 190 l 665 406 l 779 406 l 779 292 q 741 128 779 199 q 629 20 703 58 q 450 -18 556 -18 m 122 349 l 122 842 q 144 848 129 844 q 175 851 158 851 q 220 840 206 851 q 235 800 235 828 l 235 349 l 122 349 m 665 349 l 665 842 q 687 848 672 844 q 718 851 701 851 q 764 840 749 851 q 779 800 779 828 l 779 349 l 665 349 m 557 1139 q 603 1123 588 1138 q 619 1089 619 1108 q 612 1057 619 1069 q 585 1028 604 1044 l 467 922 q 426 936 440 925 q 411 964 411 947 q 417 988 411 978 q 431 1006 422 997 l 557 1139 z "},"Û":{"ha":901,"x_min":122,"x_max":779,"o":"m 450 -18 q 272 20 346 -18 q 160 128 199 58 q 122 292 122 199 l 122 406 l 235 406 l 235 301 q 297 134 235 190 q 450 78 358 78 q 603 134 542 78 q 665 301 665 190 l 665 406 l 779 406 l 779 292 q 741 128 779 199 q 629 20 703 58 q 450 -18 556 -18 m 122 349 l 122 842 q 144 848 129 844 q 175 851 158 851 q 220 840 206 851 q 235 800 235 828 l 235 349 l 122 349 m 665 349 l 665 842 q 687 848 672 844 q 718 851 701 851 q 764 840 749 851 q 779 800 779 828 l 779 349 l 665 349 m 457 1043 q 402 985 435 1019 q 329 915 369 951 q 290 930 306 918 q 275 961 275 942 q 285 990 275 978 q 311 1018 296 1003 l 393 1100 q 458 1131 424 1131 q 496 1122 481 1131 q 528 1094 511 1113 l 642 965 q 628 931 642 944 q 594 918 615 918 q 565 926 579 918 q 532 957 551 935 l 457 1043 z "},"Ü":{"ha":901,"x_min":122,"x_max":779,"o":"m 450 -18 q 272 20 346 -18 q 160 128 199 58 q 122 292 122 199 l 122 406 l 235 406 l 235 301 q 297 134 235 190 q 450 78 358 78 q 603 134 542 78 q 665 301 665 190 l 665 406 l 779 406 l 779 292 q 741 128 779 199 q 629 20 703 58 q 450 -18 556 -18 m 122 349 l 122 842 q 144 848 129 844 q 175 851 158 851 q 220 840 206 851 q 235 800 235 828 l 235 349 l 122 349 m 665 349 l 665 842 q 687 848 672 844 q 718 851 701 851 q 764 840 749 851 q 779 800 779 828 l 779 349 l 665 349 m 397 1013 q 378 966 397 986 q 328 946 358 946 q 280 966 299 946 q 261 1013 261 986 q 280 1060 261 1040 q 328 1079 299 1079 q 378 1060 358 1079 q 397 1013 397 1040 m 638 1013 q 617 966 638 986 q 568 946 597 946 q 520 966 540 946 q 500 1013 500 986 q 520 1060 500 1040 q 568 1079 540 1079 q 617 1060 597 1079 q 638 1013 638 1040 z "},"Ý":{"ha":764,"x_min":29,"x_max":726,"o":"m 338 303 q 256 426 299 361 q 173 557 214 490 q 95 688 132 624 q 29 808 58 753 q 50 838 35 824 q 90 853 65 853 q 131 839 117 853 q 161 797 146 825 q 202 726 179 765 q 250 642 225 686 q 300 556 275 599 q 347 475 325 513 q 385 410 368 438 l 390 410 q 479 563 439 490 q 557 704 519 635 q 631 843 594 774 q 651 851 639 849 q 674 853 664 853 q 713 840 700 853 q 726 806 726 828 q 705 747 726 792 q 644 634 683 701 q 553 482 606 567 q 436 303 500 397 l 338 303 m 443 357 l 443 3 q 422 -3 436 0 q 392 -7 407 -7 q 346 6 361 -7 q 331 44 331 18 l 331 357 l 443 357 m 479 1139 q 526 1123 510 1138 q 542 1089 542 1108 q 534 1057 542 1069 q 507 1028 526 1044 l 389 922 q 348 936 363 925 q 333 964 333 947 q 339 988 333 978 q 353 1006 344 997 l 479 1139 z "},"Þ":{"ha":799,"x_min":124,"x_max":725,"o":"m 236 594 l 388 594 q 553 553 493 594 q 613 424 613 511 q 553 294 613 336 q 388 253 493 253 l 236 253 l 236 594 m 124 157 l 414 157 q 648 231 571 157 q 725 424 725 304 q 648 619 725 547 q 414 690 571 690 l 124 690 l 124 157 m 124 224 l 124 43 q 140 6 124 18 q 186 -7 156 -7 q 216 -3 201 -7 q 236 1 231 0 l 236 224 l 124 224 m 236 636 l 236 801 q 221 839 236 826 q 175 851 206 851 q 145 849 160 851 q 124 843 131 846 l 124 636 l 236 636 z "},"ß":{"ha":801,"x_min":111,"x_max":743,"o":"m 111 396 l 111 660 q 147 808 111 747 q 245 899 183 868 q 385 931 307 931 q 526 899 464 931 q 626 804 589 868 q 663 643 663 740 q 614 576 663 596 l 553 553 q 502 518 517 535 q 488 472 488 501 q 504 424 488 444 q 565 376 521 404 q 663 313 624 343 q 723 248 703 283 q 743 161 743 213 q 679 22 743 68 q 514 -24 615 -24 q 388 1 433 -24 q 343 63 343 26 q 352 96 343 79 q 379 119 361 113 q 439 85 406 99 q 518 71 472 71 q 599 97 568 71 q 631 163 631 122 q 607 227 631 200 q 514 292 583 254 q 410 370 446 328 q 374 474 374 413 q 403 568 374 531 q 492 631 433 606 l 551 656 q 505 785 551 733 q 383 836 458 836 q 271 794 319 836 q 222 658 222 753 l 222 396 l 111 396 m 222 517 l 222 -3 q 203 -8 217 -4 q 174 -11 189 -11 q 127 2 143 -11 q 111 40 111 15 l 111 517 l 222 517 z "},"à":{"ha":693,"x_min":60,"x_max":594,"o":"m 333 72 q 430 84 392 72 q 485 107 468 96 l 485 308 l 313 290 q 206 258 240 285 q 171 182 171 232 q 212 101 171 131 q 333 72 253 72 m 332 660 q 524 606 453 660 q 594 435 594 551 l 594 106 q 583 59 594 75 q 547 29 571 43 q 458 -4 514 11 q 333 -19 403 -19 q 131 32 203 -19 q 60 181 60 83 q 120 319 60 271 q 288 376 181 367 l 485 396 l 485 435 q 443 536 485 504 q 331 568 401 568 q 222 551 274 568 q 129 514 169 535 q 109 537 118 524 q 100 564 100 550 q 140 619 100 600 q 227 649 178 639 q 332 660 276 660 m 164 881 q 162 891 163 886 q 161 899 161 896 q 176 935 161 921 q 214 949 192 949 q 241 942 229 949 q 263 925 253 936 l 388 768 q 374 733 386 746 q 342 719 361 719 q 316 726 326 719 q 294 742 306 732 l 164 881 z "},"á":{"ha":693,"x_min":60,"x_max":594,"o":"m 333 72 q 430 84 392 72 q 485 107 468 96 l 485 308 l 313 290 q 206 258 240 285 q 171 182 171 232 q 212 101 171 131 q 333 72 253 72 m 332 660 q 524 606 453 660 q 594 435 594 551 l 594 106 q 583 59 594 75 q 547 29 571 43 q 458 -4 514 11 q 333 -19 403 -19 q 131 32 203 -19 q 60 181 60 83 q 120 319 60 271 q 288 376 181 367 l 485 396 l 485 435 q 443 536 485 504 q 331 568 401 568 q 222 551 274 568 q 129 514 169 535 q 109 537 118 524 q 100 564 100 550 q 140 619 100 600 q 227 649 178 639 q 332 660 276 660 m 438 954 q 487 937 468 953 q 506 901 506 921 q 497 871 506 883 q 469 840 489 858 l 343 717 q 299 731 317 717 q 282 764 282 746 q 289 785 282 776 q 303 803 296 794 l 438 954 z "},"â":{"ha":693,"x_min":60,"x_max":594,"o":"m 333 72 q 430 84 392 72 q 485 107 468 96 l 485 308 l 313 290 q 206 258 240 285 q 171 182 171 232 q 212 101 171 131 q 333 72 253 72 m 332 660 q 524 606 453 660 q 594 435 594 551 l 594 106 q 583 59 594 75 q 547 29 571 43 q 458 -4 514 11 q 333 -19 403 -19 q 131 32 203 -19 q 60 181 60 83 q 120 319 60 271 q 288 376 181 367 l 485 396 l 485 435 q 443 536 485 504 q 331 568 401 568 q 222 551 274 568 q 129 514 169 535 q 109 537 118 524 q 100 564 100 550 q 140 619 100 600 q 227 649 178 639 q 332 660 276 660 m 338 858 q 274 787 306 819 q 215 722 243 754 q 174 738 190 725 q 157 768 157 750 q 166 795 157 783 q 188 821 175 807 l 272 913 q 305 936 290 928 q 338 944 319 944 q 374 936 360 944 q 403 911 389 928 l 519 772 q 509 740 519 754 q 476 725 499 725 q 449 733 460 725 q 428 751 439 740 l 338 858 z "},"ã":{"ha":693,"x_min":60,"x_max":594,"o":"m 333 72 q 430 84 392 72 q 485 107 468 96 l 485 308 l 313 290 q 206 258 240 285 q 171 182 171 232 q 212 101 171 131 q 333 72 253 72 m 332 660 q 524 606 453 660 q 594 435 594 551 l 594 106 q 583 59 594 75 q 547 29 571 43 q 458 -4 514 11 q 333 -19 403 -19 q 131 32 203 -19 q 60 181 60 83 q 120 319 60 271 q 288 376 181 367 l 485 396 l 485 435 q 443 536 485 504 q 331 568 401 568 q 222 551 274 568 q 129 514 169 535 q 109 537 118 524 q 100 564 100 550 q 140 619 100 600 q 227 649 178 639 q 332 660 276 660 m 232 904 q 302 892 271 904 q 360 869 333 881 q 411 857 388 857 q 448 872 436 857 q 465 910 460 888 l 474 910 q 518 898 499 910 q 538 857 538 886 q 510 794 538 818 q 436 771 482 771 q 364 783 397 771 q 303 808 331 796 q 253 819 275 819 q 217 804 228 819 q 200 765 206 789 l 192 765 q 147 778 167 765 q 128 818 128 790 q 142 865 128 846 q 181 894 157 883 q 232 904 206 904 z "},"ä":{"ha":693,"x_min":60,"x_max":594,"o":"m 333 72 q 430 84 392 72 q 485 107 468 96 l 485 308 l 313 290 q 206 258 240 285 q 171 182 171 232 q 212 101 171 131 q 333 72 253 72 m 332 660 q 524 606 453 660 q 594 435 594 551 l 594 106 q 583 59 594 75 q 547 29 571 43 q 458 -4 514 11 q 333 -19 403 -19 q 131 32 203 -19 q 60 181 60 83 q 120 319 60 271 q 288 376 181 367 l 485 396 l 485 435 q 443 536 485 504 q 331 568 401 568 q 222 551 274 568 q 129 514 169 535 q 109 537 118 524 q 100 564 100 550 q 140 619 100 600 q 227 649 178 639 q 332 660 276 660 m 293 835 q 274 788 293 808 q 224 768 254 768 q 176 788 194 768 q 157 835 157 808 q 176 882 157 863 q 224 901 194 901 q 274 882 254 901 q 293 835 293 863 m 533 835 q 513 788 533 808 q 464 768 493 768 q 416 788 436 768 q 396 835 396 808 q 416 882 396 863 q 464 901 436 901 q 513 882 493 901 q 533 835 533 863 z "},"å":{"ha":693,"x_min":60,"x_max":594,"o":"m 333 72 q 430 84 392 72 q 485 107 468 96 l 485 308 l 313 290 q 206 258 240 285 q 171 182 171 232 q 212 101 171 131 q 333 72 253 72 m 332 660 q 524 606 453 660 q 594 435 594 551 l 594 106 q 583 59 594 75 q 547 29 571 43 q 458 -4 514 11 q 333 -19 403 -19 q 131 32 203 -19 q 60 181 60 83 q 120 319 60 271 q 288 376 181 367 l 485 396 l 485 435 q 443 536 485 504 q 331 568 401 568 q 222 551 274 568 q 129 514 169 535 q 109 537 118 524 q 100 564 100 550 q 140 619 100 600 q 227 649 178 639 q 332 660 276 660 m 204 850 q 242 942 204 904 q 349 979 281 979 q 456 942 418 979 q 493 850 493 904 q 456 758 493 796 q 349 721 418 721 q 242 758 281 721 q 204 850 204 796 m 285 850 q 303 803 285 819 q 349 786 321 786 q 395 803 376 786 q 414 850 414 819 q 395 897 414 881 q 349 914 376 914 q 303 897 321 914 q 285 850 285 881 z "},"æ":{"ha":1126,"x_min":60,"x_max":1069,"o":"m 544 338 l 964 394 q 910 520 957 471 q 781 569 864 569 q 638 508 693 569 q 582 331 582 446 l 582 300 q 653 131 590 189 q 826 74 717 74 q 932 93 885 74 q 1008 135 979 113 q 1033 112 1024 125 q 1042 82 1042 99 q 1012 33 1042 56 q 933 -4 982 10 q 822 -18 883 -18 q 590 65 671 -18 q 510 281 510 147 q 502 302 510 288 q 494 325 494 317 q 531 505 494 431 q 631 619 567 579 q 782 660 696 660 q 931 624 867 660 q 1033 523 996 588 q 1069 375 1069 458 q 1056 331 1069 344 q 1017 315 1042 318 l 550 250 l 544 338 m 333 72 q 430 84 392 72 q 485 107 468 96 l 485 308 l 313 290 q 206 258 240 285 q 171 182 171 232 q 212 101 171 131 q 333 72 253 72 m 332 660 q 510 605 446 660 q 574 435 574 550 l 574 97 q 559 47 574 67 q 521 17 544 28 q 447 -8 490 3 q 333 -19 403 -19 q 131 32 203 -19 q 60 181 60 83 q 120 319 60 271 q 288 376 181 367 l 485 396 l 485 435 q 443 536 485 504 q 331 568 401 568 q 222 551 274 568 q 129 514 169 535 q 109 537 118 524 q 100 564 100 550 q 140 619 100 600 q 227 649 178 639 q 332 660 276 660 z "},"ç":{"ha":664,"x_min":68,"x_max":603,"o":"m 401 567 q 244 503 307 567 q 182 319 182 439 q 242 138 182 201 q 401 74 303 74 q 499 90 460 74 q 568 126 538 106 q 593 106 583 118 q 603 75 603 93 q 545 9 603 36 q 401 -18 488 -18 q 230 19 306 -18 q 111 131 154 56 q 68 319 68 206 q 113 508 68 432 q 233 622 157 583 q 399 660 308 660 q 541 631 485 660 q 597 564 597 601 q 588 535 597 547 q 563 515 578 522 q 495 551 532 536 q 401 567 458 567 m 417 24 q 472 -39 456 -3 q 489 -118 489 -75 q 447 -224 489 -185 q 339 -262 406 -262 q 285 -249 304 -262 q 267 -212 267 -236 q 275 -179 267 -193 l 296 -179 q 369 -158 346 -179 q 392 -100 392 -136 q 381 -49 392 -76 q 347 3 371 -21 l 417 24 z "},"è":{"ha":721,"x_min":68,"x_max":664,"o":"m 139 338 l 558 394 q 506 520 553 471 q 375 569 458 569 q 233 508 289 569 q 176 331 176 446 l 176 300 q 249 131 186 189 q 422 74 313 74 q 528 93 481 74 q 603 135 575 113 q 627 112 618 125 q 636 82 636 99 q 606 33 636 56 q 527 -4 576 10 q 417 -18 478 -18 q 231 21 310 -18 q 110 137 153 60 q 68 325 68 214 q 91 466 68 404 q 155 571 114 528 q 253 637 196 614 q 376 660 310 660 q 526 624 461 660 q 627 523 590 588 q 664 375 664 458 q 650 331 664 344 q 611 315 636 318 l 144 250 l 139 338 m 196 881 q 194 891 194 886 q 193 899 193 896 q 208 935 193 921 q 246 949 224 949 q 273 942 261 949 q 294 925 285 936 l 419 768 q 406 733 418 746 q 374 719 393 719 q 348 726 358 719 q 326 742 338 732 l 196 881 z "},"é":{"ha":721,"x_min":68,"x_max":664,"o":"m 139 338 l 558 394 q 506 520 553 471 q 375 569 458 569 q 233 508 289 569 q 176 331 176 446 l 176 300 q 249 131 186 189 q 422 74 313 74 q 528 93 481 74 q 603 135 575 113 q 627 112 618 125 q 636 82 636 99 q 606 33 636 56 q 527 -4 576 10 q 417 -18 478 -18 q 231 21 310 -18 q 110 137 153 60 q 68 325 68 214 q 91 466 68 404 q 155 571 114 528 q 253 637 196 614 q 376 660 310 660 q 526 624 461 660 q 627 523 590 588 q 664 375 664 458 q 650 331 664 344 q 611 315 636 318 l 144 250 l 139 338 m 493 954 q 542 937 524 953 q 561 901 561 921 q 553 871 561 883 q 525 840 544 858 l 399 717 q 355 731 372 717 q 338 764 338 746 q 344 785 338 776 q 358 803 351 794 l 493 954 z "},"ê":{"ha":721,"x_min":68,"x_max":664,"o":"m 139 338 l 558 394 q 506 520 553 471 q 375 569 458 569 q 233 508 289 569 q 176 331 176 446 l 176 300 q 249 131 186 189 q 422 74 313 74 q 528 93 481 74 q 603 135 575 113 q 627 112 618 125 q 636 82 636 99 q 606 33 636 56 q 527 -4 576 10 q 417 -18 478 -18 q 231 21 310 -18 q 110 137 153 60 q 68 325 68 214 q 91 466 68 404 q 155 571 114 528 q 253 637 196 614 q 376 660 310 660 q 526 624 461 660 q 627 523 590 588 q 664 375 664 458 q 650 331 664 344 q 611 315 636 318 l 144 250 l 139 338 m 378 858 q 315 787 346 819 q 256 722 283 754 q 214 738 231 725 q 197 768 197 750 q 206 795 197 783 q 228 821 215 807 l 313 913 q 345 936 331 928 q 378 944 360 944 q 415 936 400 944 q 443 911 429 928 l 560 772 q 549 740 560 754 q 517 725 539 725 q 490 733 500 725 q 468 751 479 740 l 378 858 z "},"ë":{"ha":721,"x_min":68,"x_max":664,"o":"m 139 338 l 558 394 q 506 520 553 471 q 375 569 458 569 q 233 508 289 569 q 176 331 176 446 l 176 300 q 249 131 186 189 q 422 74 313 74 q 528 93 481 74 q 603 135 575 113 q 627 112 618 125 q 636 82 636 99 q 606 33 636 56 q 527 -4 576 10 q 417 -18 478 -18 q 231 21 310 -18 q 110 137 153 60 q 68 325 68 214 q 91 466 68 404 q 155 571 114 528 q 253 637 196 614 q 376 660 310 660 q 526 624 461 660 q 627 523 590 588 q 664 375 664 458 q 650 331 664 344 q 611 315 636 318 l 144 250 l 139 338 m 322 835 q 303 788 322 808 q 253 768 283 768 q 205 788 224 768 q 186 835 186 808 q 205 882 186 863 q 253 901 224 901 q 303 882 283 901 q 322 835 322 863 m 563 835 q 542 788 563 808 q 493 768 522 768 q 445 788 465 768 q 425 835 425 808 q 445 882 425 863 q 493 901 465 901 q 542 882 522 901 q 563 835 563 863 z "},"ì":{"ha":335,"x_min":-17,"x_max":222,"o":"m 222 476 l 222 -3 q 203 -8 217 -4 q 174 -11 189 -11 q 127 2 143 -11 q 111 40 111 15 l 111 476 l 222 476 m 111 406 l 111 638 q 132 643 118 640 q 161 646 146 646 q 207 633 192 646 q 222 594 222 619 l 222 406 l 111 406 m -14 881 q -16 891 -15 886 q -17 899 -17 896 q -1 935 -17 921 q 36 949 14 949 q 63 942 51 949 q 85 925 75 936 l 210 768 q 196 733 208 746 q 164 719 183 719 q 138 726 149 719 q 117 742 128 732 l -14 881 z "},"í":{"ha":335,"x_min":111,"x_max":347,"o":"m 222 476 l 222 -3 q 203 -8 217 -4 q 174 -11 189 -11 q 127 2 143 -11 q 111 40 111 15 l 111 476 l 222 476 m 111 406 l 111 638 q 132 643 118 640 q 161 646 146 646 q 207 633 192 646 q 222 594 222 619 l 222 406 l 111 406 m 279 954 q 328 937 310 953 q 347 901 347 921 q 339 871 347 883 q 311 840 331 858 l 185 717 q 141 731 158 717 q 124 764 124 746 q 131 785 124 776 q 144 803 138 794 l 279 954 z "},"î":{"ha":335,"x_min":-10,"x_max":353,"o":"m 222 476 l 222 -3 q 203 -8 217 -4 q 174 -11 189 -11 q 127 2 143 -11 q 111 40 111 15 l 111 476 l 222 476 m 111 406 l 111 638 q 132 643 118 640 q 161 646 146 646 q 207 633 192 646 q 222 594 222 619 l 222 406 l 111 406 m 171 858 q 108 787 139 819 q 49 722 76 754 q 7 738 24 725 q -10 768 -10 750 q -1 795 -10 783 q 21 821 8 807 l 106 913 q 138 936 124 928 q 171 944 153 944 q 208 936 193 944 q 236 911 222 928 l 353 772 q 342 740 353 754 q 310 725 332 725 q 283 733 293 725 q 261 751 272 740 l 171 858 z "},"ï":{"ha":335,"x_min":-21,"x_max":356,"o":"m 222 476 l 222 -3 q 203 -8 217 -4 q 174 -11 189 -11 q 127 2 143 -11 q 111 40 111 15 l 111 476 l 222 476 m 111 406 l 111 638 q 132 643 118 640 q 161 646 146 646 q 207 633 192 646 q 222 594 222 619 l 222 406 l 111 406 m 115 835 q 96 788 115 808 q 46 768 76 768 q -2 788 17 768 q -21 835 -21 808 q -2 882 -21 863 q 46 901 17 901 q 96 882 76 901 q 115 835 115 863 m 356 835 q 335 788 356 808 q 286 768 315 768 q 238 788 258 768 q 218 835 218 808 q 238 882 218 863 q 286 901 258 901 q 335 882 315 901 q 356 835 356 863 z "},"ð":{"ha":746,"x_min":68,"x_max":676,"o":"m 468 736 l 257 661 q 233 684 243 669 q 224 717 224 699 q 258 758 224 746 l 388 807 l 421 815 l 588 881 q 612 858 601 871 q 622 825 622 844 q 614 797 622 806 q 588 781 606 788 l 503 749 l 468 736 m 567 401 q 488 484 536 454 q 379 514 439 514 q 231 456 281 514 q 182 297 182 397 q 235 135 182 196 q 378 74 288 74 q 517 137 471 74 q 564 306 564 200 q 560 391 564 353 q 550 465 557 429 q 547 494 547 488 q 544 506 546 501 q 538 524 543 511 q 477 642 511 588 q 394 738 443 696 q 376 756 382 749 q 358 774 371 764 q 283 819 322 801 q 201 849 243 836 q 216 895 201 875 q 260 915 231 915 q 353 890 301 915 q 457 822 406 864 q 469 813 467 814 q 481 801 471 811 q 576 678 532 750 q 649 518 621 606 q 676 332 676 431 q 640 139 676 217 q 538 22 604 61 q 376 -18 471 -18 q 152 66 236 -18 q 68 297 68 150 q 110 472 68 404 q 218 573 151 540 q 360 606 285 606 q 494 573 438 606 q 585 489 550 540 l 567 401 z "},"ñ":{"ha":778,"x_min":118,"x_max":674,"o":"m 674 282 l 563 282 l 563 418 q 519 532 563 496 q 401 568 475 568 q 303 554 346 568 q 229 522 260 540 l 229 282 l 118 282 l 118 517 q 130 565 118 546 q 171 601 142 583 q 267 641 207 622 q 401 660 326 660 q 601 602 528 660 q 674 424 674 544 l 674 282 m 229 358 l 229 3 q 208 -3 222 0 q 178 -7 194 -7 q 133 5 149 -7 q 118 43 118 17 l 118 358 l 229 358 m 674 358 l 674 3 q 652 -3 667 0 q 622 -7 638 -7 q 577 5 592 -7 q 563 43 563 17 l 563 358 l 674 358 m 282 904 q 352 892 321 904 q 410 869 383 881 q 461 857 438 857 q 498 872 486 857 q 515 910 510 888 l 524 910 q 568 898 549 910 q 588 857 588 886 q 560 794 588 818 q 486 771 532 771 q 414 783 447 771 q 353 808 381 796 q 303 819 325 819 q 267 804 278 819 q 250 765 256 789 l 242 765 q 197 778 217 765 q 178 818 178 790 q 192 865 178 846 q 231 894 207 883 q 282 904 256 904 z "},"ò":{"ha":768,"x_min":68,"x_max":700,"o":"m 700 321 q 661 142 700 218 q 551 24 622 65 q 385 -18 481 -18 q 217 24 289 -18 q 107 142 146 65 q 68 321 68 218 q 108 501 68 425 q 219 618 147 576 q 385 660 290 660 q 550 618 479 660 q 660 501 621 576 q 700 321 700 425 m 385 568 q 237 502 292 568 q 182 321 182 436 q 235 139 182 204 q 385 74 289 74 q 533 140 479 74 q 586 321 586 206 q 533 502 586 436 q 385 568 479 568 m 207 881 q 205 891 206 886 q 204 899 204 896 q 219 935 204 921 q 257 949 235 949 q 284 942 272 949 q 306 925 296 936 l 431 768 q 417 733 429 746 q 385 719 404 719 q 359 726 369 719 q 338 742 349 732 l 207 881 z "},"ó":{"ha":768,"x_min":68,"x_max":700,"o":"m 700 321 q 661 142 700 218 q 551 24 622 65 q 385 -18 481 -18 q 217 24 289 -18 q 107 142 146 65 q 68 321 68 218 q 108 501 68 425 q 219 618 147 576 q 385 660 290 660 q 550 618 479 660 q 660 501 621 576 q 700 321 700 425 m 385 568 q 237 502 292 568 q 182 321 182 436 q 235 139 182 204 q 385 74 289 74 q 533 140 479 74 q 586 321 586 206 q 533 502 586 436 q 385 568 479 568 m 515 954 q 565 937 546 953 q 583 901 583 921 q 575 871 583 883 q 547 840 567 858 l 421 717 q 377 731 394 717 q 360 764 360 746 q 367 785 360 776 q 381 803 374 794 l 515 954 z "},"ô":{"ha":768,"x_min":68,"x_max":700,"o":"m 700 321 q 661 142 700 218 q 551 24 622 65 q 385 -18 481 -18 q 217 24 289 -18 q 107 142 146 65 q 68 321 68 218 q 108 501 68 425 q 219 618 147 576 q 385 660 290 660 q 550 618 479 660 q 660 501 621 576 q 700 321 700 425 m 385 568 q 237 502 292 568 q 182 321 182 436 q 235 139 182 204 q 385 74 289 74 q 533 140 479 74 q 586 321 586 206 q 533 502 586 436 q 385 568 479 568 m 385 858 q 322 787 353 819 q 263 722 290 754 q 221 738 238 725 q 204 768 204 750 q 213 795 204 783 q 235 821 222 807 l 319 913 q 352 936 338 928 q 385 944 367 944 q 422 936 407 944 q 450 911 436 928 l 567 772 q 556 740 567 754 q 524 725 546 725 q 497 733 507 725 q 475 751 486 740 l 385 858 z "},"õ":{"ha":768,"x_min":68,"x_max":700,"o":"m 700 321 q 661 142 700 218 q 551 24 622 65 q 385 -18 481 -18 q 217 24 289 -18 q 107 142 146 65 q 68 321 68 218 q 108 501 68 425 q 219 618 147 576 q 385 660 290 660 q 550 618 479 660 q 660 501 621 576 q 700 321 700 425 m 385 568 q 237 502 292 568 q 182 321 182 436 q 235 139 182 204 q 385 74 289 74 q 533 140 479 74 q 586 321 586 206 q 533 502 586 436 q 385 568 479 568 m 286 904 q 356 892 325 904 q 415 869 388 881 q 465 857 442 857 q 502 872 490 857 q 519 910 514 888 l 528 910 q 572 898 553 910 q 592 857 592 886 q 564 794 592 818 q 490 771 536 771 q 418 783 451 771 q 357 808 385 796 q 307 819 329 819 q 271 804 282 819 q 254 765 260 789 l 246 765 q 201 778 221 765 q 182 818 182 790 q 197 865 182 846 q 235 894 211 883 q 286 904 260 904 z "},"ö":{"ha":768,"x_min":68,"x_max":700,"o":"m 700 321 q 661 142 700 218 q 551 24 622 65 q 385 -18 481 -18 q 217 24 289 -18 q 107 142 146 65 q 68 321 68 218 q 108 501 68 425 q 219 618 147 576 q 385 660 290 660 q 550 618 479 660 q 660 501 621 576 q 700 321 700 425 m 385 568 q 237 502 292 568 q 182 321 182 436 q 235 139 182 204 q 385 74 289 74 q 533 140 479 74 q 586 321 586 206 q 533 502 586 436 q 385 568 479 568 m 333 835 q 314 788 333 808 q 264 768 294 768 q 216 788 235 768 q 197 835 197 808 q 216 882 197 863 q 264 901 235 901 q 314 882 294 901 q 333 835 333 863 m 574 835 q 553 788 574 808 q 504 768 533 768 q 456 788 476 768 q 436 835 436 808 q 456 882 436 863 q 504 901 476 901 q 553 882 533 901 q 574 835 574 863 z "},"÷":{"ha":725,"x_min":71,"x_max":654,"o":"m 81 369 q 74 390 76 379 q 71 414 71 400 q 84 449 71 438 q 119 461 97 461 l 644 461 q 651 442 649 453 q 654 418 654 431 q 642 383 654 396 q 606 369 629 369 l 81 369 m 292 188 q 312 240 292 219 q 365 261 332 261 q 419 240 399 261 q 439 188 439 219 q 419 135 439 157 q 365 114 399 114 q 312 135 332 114 q 292 188 292 157 m 292 638 q 312 690 292 669 q 365 711 332 711 q 419 690 399 711 q 439 638 439 669 q 419 585 439 606 q 365 564 399 564 q 312 585 332 564 q 292 638 292 606 z "},"ø":{"ha":768,"x_min":68,"x_max":700,"o":"m 524 615 l 597 726 q 632 721 617 726 q 656 704 647 715 q 665 676 665 693 q 657 654 665 667 l 590 554 l 524 615 m 168 -85 q 131 -78 147 -85 q 107 -61 115 -72 q 99 -36 99 -50 q 107 -11 99 -24 l 167 75 l 249 35 l 168 -85 m 218 144 l 482 554 l 560 518 l 271 65 l 218 144 m 700 321 q 661 142 700 218 q 551 24 622 65 q 385 -18 481 -18 q 217 24 289 -18 q 107 142 146 65 q 68 321 68 218 q 108 501 68 425 q 219 618 147 576 q 385 660 290 660 q 550 618 479 660 q 660 501 621 576 q 700 321 700 425 m 385 568 q 235 502 292 568 q 179 321 179 436 q 234 139 179 204 q 385 74 289 74 q 534 139 479 74 q 589 321 589 204 q 534 502 589 436 q 385 568 479 568 z "},"ù":{"ha":764,"x_min":104,"x_max":660,"o":"m 104 361 l 215 361 l 215 240 q 263 113 215 151 q 393 74 310 74 q 488 85 449 74 q 549 110 526 97 l 549 361 l 660 361 l 660 114 q 652 67 660 85 q 615 33 644 50 q 528 -1 585 15 q 392 -18 471 -18 q 235 9 300 -18 q 138 92 171 36 q 104 235 104 149 l 104 361 m 549 289 l 549 639 q 570 645 556 642 q 600 649 585 649 q 645 637 631 649 q 660 597 660 625 l 660 289 l 549 289 m 104 289 l 104 639 q 126 645 111 642 q 157 649 140 649 q 201 637 186 649 q 215 597 215 625 l 215 289 l 104 289 m 200 881 q 198 891 199 886 q 197 899 197 896 q 213 935 197 921 q 250 949 228 949 q 277 942 265 949 q 299 925 289 936 l 424 768 q 410 733 422 746 q 378 719 397 719 q 352 726 363 719 q 331 742 342 732 l 200 881 z "},"ú":{"ha":764,"x_min":104,"x_max":660,"o":"m 104 361 l 215 361 l 215 240 q 263 113 215 151 q 393 74 310 74 q 488 85 449 74 q 549 110 526 97 l 549 361 l 660 361 l 660 114 q 652 67 660 85 q 615 33 644 50 q 528 -1 585 15 q 392 -18 471 -18 q 235 9 300 -18 q 138 92 171 36 q 104 235 104 149 l 104 361 m 549 289 l 549 639 q 570 645 556 642 q 600 649 585 649 q 645 637 631 649 q 660 597 660 625 l 660 289 l 549 289 m 104 289 l 104 639 q 126 645 111 642 q 157 649 140 649 q 201 637 186 649 q 215 597 215 625 l 215 289 l 104 289 m 494 954 q 544 937 525 953 q 563 901 563 921 q 554 871 563 883 q 526 840 546 858 l 400 717 q 356 731 374 717 q 339 764 339 746 q 346 785 339 776 q 360 803 353 794 l 494 954 z "},"û":{"ha":764,"x_min":104,"x_max":660,"o":"m 104 361 l 215 361 l 215 240 q 263 113 215 151 q 393 74 310 74 q 488 85 449 74 q 549 110 526 97 l 549 361 l 660 361 l 660 114 q 652 67 660 85 q 615 33 644 50 q 528 -1 585 15 q 392 -18 471 -18 q 235 9 300 -18 q 138 92 171 36 q 104 235 104 149 l 104 361 m 549 289 l 549 639 q 570 645 556 642 q 600 649 585 649 q 645 637 631 649 q 660 597 660 625 l 660 289 l 549 289 m 104 289 l 104 639 q 126 645 111 642 q 157 649 140 649 q 201 637 186 649 q 215 597 215 625 l 215 289 l 104 289 m 386 858 q 323 787 354 819 q 264 722 292 754 q 222 738 239 725 q 206 768 206 750 q 215 795 206 783 q 236 821 224 807 l 321 913 q 353 936 339 928 q 386 944 368 944 q 423 936 408 944 q 451 911 438 928 l 568 772 q 558 740 568 754 q 525 725 547 725 q 498 733 508 725 q 476 751 488 740 l 386 858 z "},"ü":{"ha":764,"x_min":104,"x_max":660,"o":"m 104 361 l 215 361 l 215 240 q 263 113 215 151 q 393 74 310 74 q 488 85 449 74 q 549 110 526 97 l 549 361 l 660 361 l 660 114 q 652 67 660 85 q 615 33 644 50 q 528 -1 585 15 q 392 -18 471 -18 q 235 9 300 -18 q 138 92 171 36 q 104 235 104 149 l 104 361 m 549 289 l 549 639 q 570 645 556 642 q 600 649 585 649 q 645 637 631 649 q 660 597 660 625 l 660 289 l 549 289 m 104 289 l 104 639 q 126 645 111 642 q 157 649 140 649 q 201 637 186 649 q 215 597 215 625 l 215 289 l 104 289 m 328 835 q 308 788 328 808 q 258 768 289 768 q 210 788 229 768 q 192 835 192 808 q 210 882 192 863 q 258 901 229 901 q 308 882 289 901 q 328 835 328 863 m 568 835 q 548 788 568 808 q 499 768 528 768 q 451 788 471 768 q 431 835 431 808 q 451 882 431 863 q 499 901 471 901 q 548 882 528 901 q 568 835 568 863 z "},"ý":{"ha":679,"x_min":42,"x_max":632,"o":"m 235 143 q 178 263 211 188 q 109 433 144 339 q 42 624 74 526 q 67 646 51 638 q 101 654 83 654 q 140 642 125 654 q 165 600 156 629 q 253 368 207 483 q 354 129 299 253 l 360 129 q 421 275 389 188 q 482 460 453 363 q 531 643 511 557 q 552 651 540 647 q 578 654 564 654 q 617 642 601 654 q 632 607 632 631 q 619 533 632 585 q 585 412 607 481 q 535 266 564 343 q 474 115 507 189 q 408 -19 442 40 q 292 -201 344 -137 q 194 -264 239 -264 q 145 -247 163 -264 q 124 -208 128 -231 q 192 -138 154 -182 q 266 -44 231 -94 q 324 53 301 7 q 280 78 300 60 q 235 143 260 96 m 457 954 q 506 937 488 953 q 525 901 525 921 q 517 871 525 883 q 489 840 508 858 l 363 717 q 319 731 336 717 q 301 764 301 746 q 308 785 301 776 q 322 803 315 794 l 457 954 z "},"þ":{"ha":768,"x_min":107,"x_max":693,"o":"m 218 72 l 218 860 q 203 897 218 883 q 158 910 189 910 q 128 907 143 910 q 107 901 114 904 l 107 72 l 218 72 m 381 -18 q 543 19 472 -18 q 653 133 614 57 q 693 322 693 208 q 650 515 693 440 q 535 624 607 589 q 374 660 463 660 q 256 641 308 660 q 175 604 203 622 l 213 526 q 278 556 240 543 q 365 568 315 568 q 472 544 422 568 q 551 467 521 521 q 581 322 581 414 q 522 133 581 192 q 365 74 463 74 q 263 94 306 74 q 193 140 221 114 l 193 38 q 269 -1 217 17 q 381 -18 321 -18 m 107 107 l 107 -208 q 122 -247 107 -235 q 167 -260 138 -260 q 197 -256 183 -260 q 218 -250 211 -253 l 218 104 l 107 107 z "},"ÿ":{"ha":679,"x_min":42,"x_max":632,"o":"m 235 143 q 178 263 211 188 q 109 433 144 339 q 42 624 74 526 q 67 646 51 638 q 101 654 83 654 q 140 642 125 654 q 165 600 156 629 q 253 368 207 483 q 354 129 299 253 l 360 129 q 421 275 389 188 q 482 460 453 363 q 531 643 511 557 q 552 651 540 647 q 578 654 564 654 q 617 642 601 654 q 632 607 632 631 q 619 533 632 585 q 585 412 607 481 q 535 266 564 343 q 474 115 507 189 q 408 -19 442 40 q 292 -201 344 -137 q 194 -264 239 -264 q 145 -247 163 -264 q 124 -208 128 -231 q 192 -138 154 -182 q 266 -44 231 -94 q 324 53 301 7 q 280 78 300 60 q 235 143 260 96 m 289 835 q 269 788 289 808 q 219 768 250 768 q 172 788 190 768 q 153 835 153 808 q 172 882 153 863 q 219 901 190 901 q 269 882 250 901 q 289 835 289 863 m 529 835 q 509 788 529 808 q 460 768 489 768 q 412 788 432 768 q 392 835 392 808 q 412 882 392 863 q 460 901 432 901 q 509 882 489 901 q 529 835 529 863 z "},"Ā":{"ha":822,"x_min":42,"x_max":782,"o":"m 229 958 q 219 978 224 967 q 214 1003 214 989 q 226 1038 214 1026 q 258 1049 239 1049 l 575 1049 q 585 1028 581 1040 q 589 1004 589 1017 q 577 969 589 981 q 544 958 565 958 l 229 958 m 408 757 q 359 618 388 699 q 301 452 331 538 q 244 293 271 367 l 238 272 q 217 210 229 247 q 190 131 204 172 q 164 55 176 90 q 144 -3 151 19 q 124 -9 135 -7 q 99 -11 114 -11 q 59 1 76 -11 q 42 39 42 13 q 46 65 42 51 q 56 93 50 78 q 97 208 72 140 q 150 357 121 276 q 211 522 179 438 q 274 688 243 607 q 331 835 304 768 q 364 846 342 840 q 410 851 386 851 q 463 843 438 851 q 496 815 489 835 q 567 633 529 735 q 644 420 606 531 q 719 206 683 310 q 782 17 754 101 q 756 -3 772 4 q 721 -11 740 -11 q 681 1 694 -11 q 657 40 667 13 l 581 267 l 569 306 q 512 476 542 390 q 456 636 482 563 q 414 757 431 710 l 408 757 m 219 318 l 607 318 l 629 225 l 183 225 l 219 318 z "},"ā":{"ha":693,"x_min":60,"x_max":594,"o":"m 333 72 q 430 84 392 72 q 485 107 468 96 l 485 308 l 313 290 q 206 258 240 285 q 171 182 171 232 q 212 101 171 131 q 333 72 253 72 m 332 660 q 524 606 453 660 q 594 435 594 551 l 594 106 q 583 59 594 75 q 547 29 571 43 q 458 -4 514 11 q 333 -19 403 -19 q 131 32 203 -19 q 60 181 60 83 q 120 319 60 271 q 288 376 181 367 l 485 396 l 485 435 q 443 536 485 504 q 331 568 401 568 q 222 551 274 568 q 129 514 169 535 q 109 537 118 524 q 100 564 100 550 q 140 619 100 600 q 227 649 178 639 q 332 660 276 660 m 174 792 q 163 811 168 800 q 158 836 158 822 q 171 871 158 860 q 203 882 183 882 l 519 882 q 529 862 525 874 q 533 838 533 850 q 522 803 533 814 q 489 792 510 792 l 174 792 z "},"Ă":{"ha":822,"x_min":42,"x_max":782,"o":"m 408 757 q 359 618 388 699 q 301 452 331 538 q 244 293 271 367 l 238 272 q 217 210 229 247 q 190 131 204 172 q 164 55 176 90 q 144 -3 151 19 q 124 -9 135 -7 q 99 -11 114 -11 q 59 1 76 -11 q 42 39 42 13 q 46 65 42 51 q 56 93 50 78 q 97 208 72 140 q 150 357 121 276 q 211 522 179 438 q 274 688 243 607 q 331 835 304 768 q 364 846 342 840 q 410 851 386 851 q 463 843 438 851 q 496 815 489 835 q 567 633 529 735 q 644 420 606 531 q 719 206 683 310 q 782 17 754 101 q 756 -3 772 4 q 721 -11 740 -11 q 681 1 694 -11 q 657 40 667 13 l 581 267 l 569 306 q 512 476 542 390 q 456 636 482 563 q 414 757 431 710 l 408 757 m 219 318 l 607 318 l 629 225 l 183 225 l 219 318 m 411 1007 q 483 1031 456 1007 q 517 1099 510 1054 q 528 1101 522 1100 q 540 1101 533 1101 q 576 1089 563 1101 q 589 1049 589 1076 q 544 966 589 1006 q 411 926 500 926 q 276 966 319 926 q 233 1049 233 1006 q 247 1089 233 1076 q 282 1101 260 1101 q 295 1101 289 1101 q 306 1099 301 1100 q 340 1031 313 1054 q 411 1007 368 1007 z "},"ă":{"ha":693,"x_min":60,"x_max":594,"o":"m 333 72 q 430 84 392 72 q 485 107 468 96 l 485 308 l 313 290 q 206 258 240 285 q 171 182 171 232 q 212 101 171 131 q 333 72 253 72 m 332 660 q 524 606 453 660 q 594 435 594 551 l 594 106 q 583 59 594 75 q 547 29 571 43 q 458 -4 514 11 q 333 -19 403 -19 q 131 32 203 -19 q 60 181 60 83 q 120 319 60 271 q 288 376 181 367 l 485 396 l 485 435 q 443 536 485 504 q 331 568 401 568 q 222 551 274 568 q 129 514 169 535 q 109 537 118 524 q 100 564 100 550 q 140 619 100 600 q 227 649 178 639 q 332 660 276 660 m 351 832 q 423 856 396 832 q 457 924 450 879 q 468 926 463 925 q 481 926 474 926 q 516 914 503 926 q 529 874 529 901 q 485 791 529 831 q 351 751 440 751 q 217 791 260 751 q 174 874 174 831 q 187 914 174 901 q 222 926 200 926 q 235 926 229 926 q 246 924 242 925 q 281 856 253 879 q 351 832 308 832 z "},"Ą":{"ha":822,"x_min":42,"x_max":817,"o":"m 772 7 q 722 -37 744 -12 q 700 -101 700 -62 q 724 -157 700 -139 q 789 -175 749 -175 l 808 -175 q 815 -192 813 -183 q 817 -207 817 -200 q 801 -243 817 -229 q 750 -257 786 -257 q 644 -222 689 -257 q 600 -124 600 -186 q 617 -52 600 -82 q 658 -3 635 -22 q 700 22 682 15 l 772 7 m 408 757 q 359 618 388 699 q 301 452 331 538 q 244 293 271 367 l 238 272 q 217 210 229 247 q 190 131 204 172 q 164 55 176 90 q 144 -3 151 19 q 124 -9 135 -7 q 99 -11 114 -11 q 59 1 76 -11 q 42 39 42 13 q 46 65 42 51 q 56 93 50 78 q 97 208 72 140 q 150 357 121 276 q 211 522 179 438 q 274 688 243 607 q 331 835 304 768 q 364 846 342 840 q 410 851 386 851 q 463 843 438 851 q 496 815 489 835 q 567 633 529 735 q 644 420 606 531 q 719 206 683 310 q 782 17 754 101 q 756 -3 772 4 q 721 -11 740 -11 q 681 1 694 -11 q 657 40 667 13 l 581 267 l 569 306 q 512 476 542 390 q 456 636 482 563 q 414 757 431 710 l 408 757 m 219 318 l 607 318 l 629 225 l 183 225 l 219 318 z "},"ą":{"ha":693,"x_min":60,"x_max":594,"o":"m 571 47 q 499 -19 526 13 q 471 -101 471 -50 q 494 -157 471 -139 q 558 -175 518 -175 l 579 -175 q 585 -192 583 -183 q 588 -207 588 -200 q 572 -243 588 -229 q 519 -257 557 -257 q 415 -222 460 -257 q 371 -124 371 -186 q 404 -28 371 -62 q 471 22 438 7 l 571 47 m 333 72 q 430 84 392 72 q 485 107 468 96 l 485 308 l 313 290 q 206 258 240 285 q 171 182 171 232 q 212 101 171 131 q 333 72 253 72 m 332 660 q 524 606 453 660 q 594 435 594 551 l 594 106 q 583 59 594 75 q 547 29 571 43 q 458 -4 514 11 q 333 -19 403 -19 q 131 32 203 -19 q 60 181 60 83 q 120 319 60 271 q 288 376 181 367 l 485 396 l 485 435 q 443 536 485 504 q 331 568 401 568 q 222 551 274 568 q 129 514 169 535 q 109 537 118 524 q 100 564 100 550 q 140 619 100 600 q 227 649 178 639 q 332 660 276 660 z "},"Ć":{"ha":817,"x_min":75,"x_max":749,"o":"m 740 751 q 728 719 740 733 q 701 697 717 704 q 617 744 667 722 q 490 767 568 767 q 338 728 406 767 q 231 612 271 689 q 192 421 192 535 q 276 164 192 250 q 494 78 360 78 q 621 99 567 78 q 710 146 675 119 q 736 126 724 140 q 749 92 749 111 q 741 65 749 78 q 715 39 733 51 q 628 -1 683 17 q 486 -18 572 -18 q 277 31 371 -18 q 129 178 183 81 q 75 421 75 275 q 131 665 75 567 q 280 813 188 764 q 482 863 372 863 q 617 846 558 863 q 708 803 675 829 q 740 751 740 778 m 568 1139 q 615 1123 599 1138 q 631 1089 631 1108 q 623 1057 631 1069 q 596 1028 615 1044 l 478 922 q 437 936 451 925 q 422 964 422 947 q 428 988 422 978 q 442 1006 433 997 l 568 1139 z "},"ć":{"ha":664,"x_min":68,"x_max":603,"o":"m 401 567 q 244 503 307 567 q 182 319 182 439 q 242 138 182 201 q 401 74 303 74 q 499 90 460 74 q 568 126 538 106 q 593 106 583 118 q 603 75 603 93 q 545 9 603 36 q 401 -18 488 -18 q 230 19 306 -18 q 111 131 154 56 q 68 319 68 206 q 113 508 68 432 q 233 622 157 583 q 399 660 308 660 q 541 631 485 660 q 597 564 597 601 q 588 535 597 547 q 563 515 578 522 q 495 551 532 536 q 401 567 458 567 m 496 954 q 545 937 526 953 q 564 901 564 921 q 556 871 564 883 q 528 840 547 858 l 401 717 q 358 731 375 717 q 340 764 340 746 q 347 785 340 776 q 361 803 354 794 l 496 954 z "},"Ĉ":{"ha":817,"x_min":75,"x_max":749,"o":"m 740 751 q 728 719 740 733 q 701 697 717 704 q 617 744 667 722 q 490 767 568 767 q 338 728 406 767 q 231 612 271 689 q 192 421 192 535 q 276 164 192 250 q 494 78 360 78 q 621 99 567 78 q 710 146 675 119 q 736 126 724 140 q 749 92 749 111 q 741 65 749 78 q 715 39 733 51 q 628 -1 683 17 q 486 -18 572 -18 q 277 31 371 -18 q 129 178 183 81 q 75 421 75 275 q 131 665 75 567 q 280 813 188 764 q 482 863 372 863 q 617 846 558 863 q 708 803 675 829 q 740 751 740 778 m 475 1043 q 420 985 453 1019 q 347 915 388 951 q 308 930 324 918 q 293 961 293 942 q 303 990 293 978 q 329 1018 314 1003 l 411 1100 q 476 1131 442 1131 q 514 1122 499 1131 q 546 1094 529 1113 l 660 965 q 647 931 660 944 q 613 918 633 918 q 583 926 597 918 q 550 957 569 935 l 475 1043 z "},"ĉ":{"ha":664,"x_min":68,"x_max":603,"o":"m 401 567 q 244 503 307 567 q 182 319 182 439 q 242 138 182 201 q 401 74 303 74 q 499 90 460 74 q 568 126 538 106 q 593 106 583 118 q 603 75 603 93 q 545 9 603 36 q 401 -18 488 -18 q 230 19 306 -18 q 111 131 154 56 q 68 319 68 206 q 113 508 68 432 q 233 622 157 583 q 399 660 308 660 q 541 631 485 660 q 597 564 597 601 q 588 535 597 547 q 563 515 578 522 q 495 551 532 536 q 401 567 458 567 m 385 858 q 322 787 353 819 q 263 722 290 754 q 221 738 238 725 q 204 768 204 750 q 213 795 204 783 q 235 821 222 807 l 319 913 q 352 936 338 928 q 385 944 367 944 q 422 936 407 944 q 450 911 436 928 l 567 772 q 556 740 567 754 q 524 725 546 725 q 497 733 507 725 q 475 751 486 740 l 385 858 z "},"Ċ":{"ha":817,"x_min":75,"x_max":749,"o":"m 740 751 q 728 719 740 733 q 701 697 717 704 q 617 744 667 722 q 490 767 568 767 q 338 728 406 767 q 231 612 271 689 q 192 421 192 535 q 276 164 192 250 q 494 78 360 78 q 621 99 567 78 q 710 146 675 119 q 736 126 724 140 q 749 92 749 111 q 741 65 749 78 q 715 39 733 51 q 628 -1 683 17 q 486 -18 572 -18 q 277 31 371 -18 q 129 178 183 81 q 75 421 75 275 q 131 665 75 567 q 280 813 188 764 q 482 863 372 863 q 617 846 558 863 q 708 803 675 829 q 740 751 740 778 m 538 1014 q 518 965 538 983 q 467 946 499 946 q 417 965 436 946 q 397 1014 397 983 q 417 1065 397 1046 q 467 1083 436 1083 q 518 1065 499 1083 q 538 1014 538 1046 z "},"ċ":{"ha":664,"x_min":68,"x_max":603,"o":"m 401 567 q 244 503 307 567 q 182 319 182 439 q 242 138 182 201 q 401 74 303 74 q 499 90 460 74 q 568 126 538 106 q 593 106 583 118 q 603 75 603 93 q 545 9 603 36 q 401 -18 488 -18 q 230 19 306 -18 q 111 131 154 56 q 68 319 68 206 q 113 508 68 432 q 233 622 157 583 q 399 660 308 660 q 541 631 485 660 q 597 564 597 601 q 588 535 597 547 q 563 515 578 522 q 495 551 532 536 q 401 567 458 567 m 446 843 q 426 794 446 813 q 375 775 407 775 q 325 794 344 775 q 306 843 306 813 q 325 894 306 875 q 375 913 344 913 q 426 894 407 913 q 446 843 446 875 z "},"Č":{"ha":817,"x_min":75,"x_max":749,"o":"m 740 751 q 728 719 740 733 q 701 697 717 704 q 617 744 667 722 q 490 767 568 767 q 338 728 406 767 q 231 612 271 689 q 192 421 192 535 q 276 164 192 250 q 494 78 360 78 q 621 99 567 78 q 710 146 675 119 q 736 126 724 140 q 749 92 749 111 q 741 65 749 78 q 715 39 733 51 q 628 -1 683 17 q 486 -18 572 -18 q 277 31 371 -18 q 129 178 183 81 q 75 421 75 275 q 131 665 75 567 q 280 813 188 764 q 482 863 372 863 q 617 846 558 863 q 708 803 675 829 q 740 751 740 778 m 483 1001 q 539 1060 507 1026 q 606 1131 571 1093 q 649 1117 631 1129 q 667 1085 667 1104 q 656 1056 667 1068 q 631 1028 646 1043 l 547 944 q 517 924 532 931 q 483 917 503 917 q 447 925 463 917 q 415 951 431 933 l 300 1074 q 313 1114 300 1100 q 346 1128 325 1128 q 376 1119 361 1128 q 408 1089 390 1111 l 483 1001 z "},"č":{"ha":664,"x_min":68,"x_max":603,"o":"m 401 567 q 244 503 307 567 q 182 319 182 439 q 242 138 182 201 q 401 74 303 74 q 499 90 460 74 q 568 126 538 106 q 593 106 583 118 q 603 75 603 93 q 545 9 603 36 q 401 -18 488 -18 q 230 19 306 -18 q 111 131 154 56 q 68 319 68 206 q 113 508 68 432 q 233 622 157 583 q 399 660 308 660 q 541 631 485 660 q 597 564 597 601 q 588 535 597 547 q 563 515 578 522 q 495 551 532 536 q 401 567 458 567 m 379 810 l 501 944 q 545 930 529 943 q 561 897 561 917 q 551 869 561 882 q 526 840 542 857 l 439 751 q 411 731 425 738 q 378 724 397 724 q 353 728 365 724 q 331 740 342 732 q 310 760 321 749 l 192 889 q 197 915 192 903 q 213 934 203 926 q 238 942 224 942 q 267 934 256 942 q 294 908 279 926 l 379 810 z "},"Ď":{"ha":906,"x_min":124,"x_max":831,"o":"m 715 432 q 632 169 715 258 q 386 79 549 79 q 308 82 346 79 q 236 93 269 85 l 236 754 q 297 763 264 760 q 374 765 331 765 q 545 731 468 765 q 669 624 622 697 q 715 432 715 551 m 831 432 q 773 669 831 575 q 613 812 715 764 q 375 860 511 860 q 267 856 321 860 q 169 838 213 851 q 135 819 147 831 q 124 785 124 807 l 124 71 q 182 7 124 25 q 288 -12 232 -8 q 388 -15 344 -15 q 622 33 522 -15 q 776 181 721 82 q 831 432 831 281 m 438 1001 q 493 1060 461 1026 q 560 1131 525 1093 q 603 1117 585 1129 q 621 1085 621 1104 q 610 1056 621 1068 q 585 1028 600 1043 l 501 944 q 472 924 486 931 q 438 917 457 917 q 401 925 417 917 q 369 951 385 933 l 254 1074 q 267 1114 254 1100 q 300 1128 279 1128 q 330 1119 315 1128 q 363 1089 344 1111 l 438 1001 z "},"ď":{"ha":867,"x_min":68,"x_max":881,"o":"m 542 576 l 653 578 l 653 106 q 641 63 653 79 q 604 32 629 47 q 525 -2 576 14 q 407 -18 474 -18 q 231 17 307 -18 q 111 126 154 51 q 68 318 68 200 q 110 514 68 439 q 225 624 153 589 q 383 660 297 660 q 486 644 438 660 q 563 607 535 629 l 563 504 q 494 549 536 531 q 394 568 451 568 q 289 544 338 568 q 211 464 240 519 q 182 315 182 408 q 243 131 182 189 q 406 74 304 74 q 485 84 454 74 q 542 110 517 94 l 542 576 m 542 549 l 542 900 q 563 906 549 903 q 593 910 578 910 q 638 898 624 910 q 653 860 653 886 l 653 550 l 542 549 m 818 717 q 794 697 807 703 q 765 692 781 692 q 722 710 736 692 q 758 810 742 758 q 779 900 775 861 q 803 908 792 906 q 829 910 815 910 q 866 899 851 910 q 881 868 881 889 q 871 816 881 846 q 847 760 861 786 q 818 717 832 733 z "},"Đ":{"ha":960,"x_min":7,"x_max":885,"o":"m 221 375 l 463 375 q 495 389 483 375 q 507 425 507 403 q 502 452 507 440 q 493 469 497 464 l 221 469 l 221 375 m 310 469 l 50 469 q 19 456 31 469 q 7 419 7 443 q 11 394 7 406 q 21 375 15 382 l 310 375 l 310 469 m 769 432 q 686 169 769 258 q 440 79 603 79 q 362 82 400 79 q 290 93 324 85 l 290 754 q 351 763 318 760 q 428 765 385 765 q 599 731 522 765 q 723 624 676 697 q 769 432 769 551 m 885 432 q 827 669 885 575 q 667 812 769 764 q 429 860 565 860 q 321 856 375 860 q 224 838 267 851 q 190 819 201 831 q 178 785 178 807 l 178 71 q 236 7 178 25 q 342 -12 286 -8 q 442 -15 399 -15 q 676 33 576 -15 q 830 181 775 82 q 885 432 885 281 z "},"đ":{"ha":764,"x_min":68,"x_max":757,"o":"m 399 732 q 391 749 394 739 q 388 774 388 760 q 425 815 388 815 l 746 815 q 753 799 749 810 q 757 776 757 789 q 718 732 757 732 l 399 732 m 542 576 l 653 578 l 653 106 q 641 63 653 79 q 604 32 629 47 q 525 -2 576 14 q 407 -18 474 -18 q 231 17 307 -18 q 111 126 154 51 q 68 318 68 200 q 110 514 68 439 q 225 624 153 589 q 383 660 297 660 q 486 644 438 660 q 563 607 535 629 l 563 504 q 494 549 536 531 q 394 568 451 568 q 289 544 338 568 q 211 464 240 519 q 182 315 182 408 q 243 131 182 189 q 406 74 304 74 q 485 84 454 74 q 542 110 517 94 l 542 576 m 542 549 l 542 901 q 563 908 549 904 q 593 911 578 911 q 638 899 624 911 q 653 861 653 888 l 653 550 l 542 549 z "},"Ē":{"ha":753,"x_min":140,"x_max":682,"o":"m 253 508 l 253 11 q 232 5 247 10 q 201 0 217 0 q 157 17 174 0 q 140 61 140 35 l 140 508 l 253 508 m 140 346 l 140 783 q 157 828 140 811 q 201 844 174 844 q 232 840 217 844 q 253 833 247 836 l 253 344 l 140 346 m 201 481 l 619 481 q 628 463 624 475 q 632 436 632 450 q 621 400 632 414 q 589 386 610 386 l 201 386 l 201 481 m 201 94 l 669 94 q 678 77 674 89 q 682 50 682 65 q 671 14 682 28 q 639 0 660 0 l 201 0 l 201 94 m 201 844 l 663 844 q 671 826 667 839 q 675 800 675 814 q 664 763 675 778 q 632 749 653 749 l 201 749 l 201 844 m 225 958 q 215 978 219 967 q 210 1003 210 989 q 222 1038 210 1026 q 254 1049 235 1049 l 571 1049 q 581 1028 576 1040 q 585 1004 585 1017 q 573 969 585 981 q 540 958 561 958 l 225 958 z "},"ē":{"ha":721,"x_min":68,"x_max":664,"o":"m 139 338 l 558 394 q 506 520 553 471 q 375 569 458 569 q 233 508 289 569 q 176 331 176 446 l 176 300 q 249 131 186 189 q 422 74 313 74 q 528 93 481 74 q 603 135 575 113 q 627 112 618 125 q 636 82 636 99 q 606 33 636 56 q 527 -4 576 10 q 417 -18 478 -18 q 231 21 310 -18 q 110 137 153 60 q 68 325 68 214 q 91 466 68 404 q 155 571 114 528 q 253 637 196 614 q 376 660 310 660 q 526 624 461 660 q 627 523 590 588 q 664 375 664 458 q 650 331 664 344 q 611 315 636 318 l 144 250 l 139 338 m 201 792 q 191 811 196 800 q 186 836 186 822 q 199 871 186 860 q 231 882 211 882 l 547 882 q 557 862 553 874 q 561 838 561 850 q 549 803 561 814 q 517 792 538 792 l 201 792 z "},"Ĕ":{"ha":753,"x_min":140,"x_max":682,"o":"m 253 508 l 253 11 q 232 5 247 10 q 201 0 217 0 q 157 17 174 0 q 140 61 140 35 l 140 508 l 253 508 m 140 346 l 140 783 q 157 828 140 811 q 201 844 174 844 q 232 840 217 844 q 253 833 247 836 l 253 344 l 140 346 m 201 481 l 619 481 q 628 463 624 475 q 632 436 632 450 q 621 400 632 414 q 589 386 610 386 l 201 386 l 201 481 m 201 94 l 669 94 q 678 77 674 89 q 682 50 682 65 q 671 14 682 28 q 639 0 660 0 l 201 0 l 201 94 m 201 844 l 663 844 q 671 826 667 839 q 675 800 675 814 q 664 763 675 778 q 632 749 653 749 l 201 749 l 201 844 m 419 1008 q 491 1032 464 1008 q 525 1100 518 1056 q 536 1102 531 1101 q 549 1103 542 1103 q 584 1090 571 1103 q 597 1050 597 1078 q 553 967 597 1007 q 419 928 508 928 q 285 967 328 928 q 242 1050 242 1007 q 255 1090 242 1078 q 290 1103 268 1103 q 303 1102 297 1103 q 314 1100 310 1101 q 349 1032 321 1056 q 419 1008 376 1008 z "},"ĕ":{"ha":721,"x_min":68,"x_max":664,"o":"m 139 338 l 558 394 q 506 520 553 471 q 375 569 458 569 q 233 508 289 569 q 176 331 176 446 l 176 300 q 249 131 186 189 q 422 74 313 74 q 528 93 481 74 q 603 135 575 113 q 627 112 618 125 q 636 82 636 99 q 606 33 636 56 q 527 -4 576 10 q 417 -18 478 -18 q 231 21 310 -18 q 110 137 153 60 q 68 325 68 214 q 91 466 68 404 q 155 571 114 528 q 253 637 196 614 q 376 660 310 660 q 526 624 461 660 q 627 523 590 588 q 664 375 664 458 q 650 331 664 344 q 611 315 636 318 l 144 250 l 139 338 m 376 832 q 448 856 421 832 q 482 924 475 879 q 493 926 488 925 q 506 926 499 926 q 541 914 528 926 q 554 874 554 901 q 510 791 554 831 q 376 751 465 751 q 242 791 285 751 q 199 874 199 831 q 212 914 199 901 q 247 926 225 926 q 260 926 254 926 q 271 924 267 925 q 306 856 278 879 q 376 832 333 832 z "},"Ė":{"ha":753,"x_min":140,"x_max":682,"o":"m 253 508 l 253 11 q 232 5 247 10 q 201 0 217 0 q 157 17 174 0 q 140 61 140 35 l 140 508 l 253 508 m 140 346 l 140 783 q 157 828 140 811 q 201 844 174 844 q 232 840 217 844 q 253 833 247 836 l 253 344 l 140 346 m 201 481 l 619 481 q 628 463 624 475 q 632 436 632 450 q 621 400 632 414 q 589 386 610 386 l 201 386 l 201 481 m 201 94 l 669 94 q 678 77 674 89 q 682 50 682 65 q 671 14 682 28 q 639 0 660 0 l 201 0 l 201 94 m 201 844 l 663 844 q 671 826 667 839 q 675 800 675 814 q 664 763 675 778 q 632 749 653 749 l 201 749 l 201 844 m 504 1014 q 485 965 504 983 q 433 946 465 946 q 383 965 403 946 q 364 1014 364 983 q 383 1065 364 1046 q 433 1083 403 1083 q 485 1065 465 1083 q 504 1014 504 1046 z "},"ė":{"ha":721,"x_min":68,"x_max":664,"o":"m 139 338 l 558 394 q 506 520 553 471 q 375 569 458 569 q 233 508 289 569 q 176 331 176 446 l 176 300 q 249 131 186 189 q 422 74 313 74 q 528 93 481 74 q 603 135 575 113 q 627 112 618 125 q 636 82 636 99 q 606 33 636 56 q 527 -4 576 10 q 417 -18 478 -18 q 231 21 310 -18 q 110 137 153 60 q 68 325 68 214 q 91 466 68 404 q 155 571 114 528 q 253 637 196 614 q 376 660 310 660 q 526 624 461 660 q 627 523 590 588 q 664 375 664 458 q 650 331 664 344 q 611 315 636 318 l 144 250 l 139 338 m 444 843 q 425 794 444 813 q 374 775 406 775 q 324 794 343 775 q 304 843 304 813 q 324 894 304 875 q 374 913 343 913 q 425 894 406 913 q 444 843 444 875 z "},"Ę":{"ha":753,"x_min":140,"x_max":692,"o":"m 253 508 l 253 11 q 232 5 247 10 q 201 0 217 0 q 157 17 174 0 q 140 61 140 35 l 140 508 l 253 508 m 140 346 l 140 783 q 157 828 140 811 q 201 844 174 844 q 232 840 217 844 q 253 833 247 836 l 253 344 l 140 346 m 201 481 l 619 481 q 628 463 624 475 q 632 436 632 450 q 621 400 632 414 q 589 386 610 386 l 201 386 l 201 481 m 201 94 l 669 94 q 678 77 674 89 q 682 50 682 65 q 671 14 682 28 q 639 0 660 0 l 201 0 l 201 94 m 201 844 l 663 844 q 671 826 667 839 q 675 800 675 814 q 664 763 675 778 q 632 749 653 749 l 201 749 l 201 844 m 647 7 q 597 -37 618 -12 q 575 -101 575 -62 q 599 -157 575 -139 q 663 -175 622 -175 l 683 -175 q 690 -192 688 -183 q 692 -207 692 -200 q 676 -243 692 -229 q 624 -257 661 -257 q 519 -222 564 -257 q 475 -124 475 -186 q 492 -53 475 -82 q 532 -6 508 -25 q 575 24 556 14 l 647 7 z "},"ę":{"ha":721,"x_min":68,"x_max":664,"o":"m 139 338 l 558 394 q 506 520 553 471 q 375 569 458 569 q 233 508 289 569 q 176 331 176 446 l 176 300 q 249 131 186 189 q 422 74 313 74 q 528 93 481 74 q 603 135 575 113 q 627 112 618 125 q 636 82 636 99 q 606 33 636 56 q 527 -4 576 10 q 417 -18 478 -18 q 231 21 310 -18 q 110 137 153 60 q 68 325 68 214 q 91 466 68 404 q 155 571 114 528 q 253 637 196 614 q 376 660 310 660 q 526 624 461 660 q 627 523 590 588 q 664 375 664 458 q 650 331 664 344 q 611 315 636 318 l 144 250 l 139 338 m 558 7 q 508 -37 529 -12 q 486 -101 486 -62 q 510 -157 486 -139 q 574 -175 533 -175 l 594 -175 q 601 -192 599 -183 q 603 -207 603 -200 q 588 -243 603 -229 q 535 -257 572 -257 q 431 -222 475 -257 q 386 -124 386 -186 q 403 -53 386 -82 q 443 -6 419 -25 q 486 24 467 14 l 558 7 z "},"Ě":{"ha":753,"x_min":140,"x_max":682,"o":"m 253 508 l 253 11 q 232 5 247 10 q 201 0 217 0 q 157 17 174 0 q 140 61 140 35 l 140 508 l 253 508 m 140 346 l 140 783 q 157 828 140 811 q 201 844 174 844 q 232 840 217 844 q 253 833 247 836 l 253 344 l 140 346 m 201 481 l 619 481 q 628 463 624 475 q 632 436 632 450 q 621 400 632 414 q 589 386 610 386 l 201 386 l 201 481 m 201 94 l 669 94 q 678 77 674 89 q 682 50 682 65 q 671 14 682 28 q 639 0 660 0 l 201 0 l 201 94 m 201 844 l 663 844 q 671 826 667 839 q 675 800 675 814 q 664 763 675 778 q 632 749 653 749 l 201 749 l 201 844 m 425 1001 q 481 1060 449 1026 q 547 1131 513 1093 q 590 1117 572 1129 q 608 1085 608 1104 q 598 1056 608 1068 q 572 1028 588 1043 l 489 944 q 459 924 474 931 q 425 917 444 917 q 388 925 404 917 q 357 951 372 933 l 242 1074 q 254 1114 242 1100 q 288 1128 267 1128 q 317 1119 303 1128 q 350 1089 332 1111 l 425 1001 z "},"ě":{"ha":721,"x_min":68,"x_max":664,"o":"m 139 338 l 558 394 q 506 520 553 471 q 375 569 458 569 q 233 508 289 569 q 176 331 176 446 l 176 300 q 249 131 186 189 q 422 74 313 74 q 528 93 481 74 q 603 135 575 113 q 627 112 618 125 q 636 82 636 99 q 606 33 636 56 q 527 -4 576 10 q 417 -18 478 -18 q 231 21 310 -18 q 110 137 153 60 q 68 325 68 214 q 91 466 68 404 q 155 571 114 528 q 253 637 196 614 q 376 660 310 660 q 526 624 461 660 q 627 523 590 588 q 664 375 664 458 q 650 331 664 344 q 611 315 636 318 l 144 250 l 139 338 m 379 810 l 501 944 q 545 930 529 943 q 561 897 561 917 q 551 869 561 882 q 526 840 542 857 l 439 751 q 411 731 425 738 q 378 724 397 724 q 353 728 365 724 q 331 740 342 732 q 310 760 321 749 l 192 889 q 197 915 192 903 q 213 934 203 926 q 238 942 224 942 q 267 934 256 942 q 294 908 279 926 l 379 810 z "},"Ĝ":{"ha":888,"x_min":75,"x_max":792,"o":"m 792 97 q 777 55 792 72 q 733 24 763 38 q 638 -6 699 6 q 514 -18 576 -18 q 285 29 385 -18 q 131 174 186 76 q 75 421 75 271 q 133 667 75 569 q 286 814 190 765 q 496 863 382 863 q 635 846 575 863 q 728 804 694 829 q 761 753 761 779 q 750 720 761 735 q 724 699 739 706 q 635 745 686 724 q 503 767 583 767 q 344 728 415 767 q 233 612 274 689 q 192 421 192 535 q 234 226 192 301 q 350 114 276 150 q 515 78 424 78 q 610 86 565 78 q 679 107 654 94 l 679 363 l 469 363 q 461 381 465 369 q 457 407 457 393 q 468 444 457 431 q 500 457 479 457 l 732 457 q 774 441 757 457 q 792 399 792 425 l 792 97 m 479 1043 q 424 985 457 1019 q 351 915 392 951 q 313 930 328 918 q 297 961 297 942 q 308 990 297 978 q 333 1018 318 1003 l 415 1100 q 481 1131 446 1131 q 518 1122 503 1131 q 550 1094 533 1113 l 664 965 q 651 931 664 944 q 617 918 638 918 q 588 926 601 918 q 554 957 574 935 l 479 1043 z "},"ĝ":{"ha":746,"x_min":71,"x_max":644,"o":"m 371 19 q 222 51 290 19 q 113 153 154 82 q 71 340 71 224 q 112 517 71 446 q 225 624 153 588 q 390 660 297 660 q 508 644 454 660 q 597 604 561 628 q 631 573 618 590 q 644 531 644 556 l 644 101 l 533 101 l 533 529 q 474 556 510 544 q 390 568 439 568 q 240 511 297 568 q 183 342 183 454 q 241 164 183 217 q 383 111 299 111 q 482 132 444 111 q 542 178 519 153 l 547 79 q 481 38 526 57 q 371 19 436 19 m 533 125 l 644 125 l 644 -28 q 605 -175 644 -119 q 497 -256 565 -231 q 342 -281 428 -281 q 222 -265 272 -281 q 154 -240 172 -250 q 113 -181 113 -217 q 122 -148 113 -161 q 144 -128 131 -135 q 227 -169 174 -150 q 342 -187 281 -187 q 484 -147 435 -187 q 533 -21 533 -107 l 533 125 m 385 858 q 322 787 353 819 q 263 722 290 754 q 221 738 238 725 q 204 768 204 750 q 213 795 204 783 q 235 821 222 807 l 319 913 q 352 936 338 928 q 385 944 367 944 q 422 936 407 944 q 450 911 436 928 l 567 772 q 556 740 567 754 q 524 725 546 725 q 497 733 507 725 q 475 751 486 740 l 385 858 z "},"Ğ":{"ha":888,"x_min":75,"x_max":792,"o":"m 792 97 q 777 55 792 72 q 733 24 763 38 q 638 -6 699 6 q 514 -18 576 -18 q 285 29 385 -18 q 131 174 186 76 q 75 421 75 271 q 133 667 75 569 q 286 814 190 765 q 496 863 382 863 q 635 846 575 863 q 728 804 694 829 q 761 753 761 779 q 750 720 761 735 q 724 699 739 706 q 635 745 686 724 q 503 767 583 767 q 344 728 415 767 q 233 612 274 689 q 192 421 192 535 q 234 226 192 301 q 350 114 276 150 q 515 78 424 78 q 610 86 565 78 q 679 107 654 94 l 679 363 l 469 363 q 461 381 465 369 q 457 407 457 393 q 468 444 457 431 q 500 457 479 457 l 732 457 q 774 441 757 457 q 792 399 792 425 l 792 97 m 472 1008 q 544 1032 517 1008 q 578 1100 571 1056 q 589 1102 583 1101 q 601 1103 594 1103 q 637 1090 624 1103 q 650 1050 650 1078 q 606 967 650 1007 q 472 928 561 928 q 338 967 381 928 q 294 1050 294 1007 q 308 1090 294 1078 q 343 1103 321 1103 q 356 1102 350 1103 q 367 1100 363 1101 q 401 1032 374 1056 q 472 1008 429 1008 z "},"ğ":{"ha":746,"x_min":71,"x_max":644,"o":"m 371 19 q 222 51 290 19 q 113 153 154 82 q 71 340 71 224 q 112 517 71 446 q 225 624 153 588 q 390 660 297 660 q 508 644 454 660 q 597 604 561 628 q 631 573 618 590 q 644 531 644 556 l 644 101 l 533 101 l 533 529 q 474 556 510 544 q 390 568 439 568 q 240 511 297 568 q 183 342 183 454 q 241 164 183 217 q 383 111 299 111 q 482 132 444 111 q 542 178 519 153 l 547 79 q 481 38 526 57 q 371 19 436 19 m 533 125 l 644 125 l 644 -28 q 605 -175 644 -119 q 497 -256 565 -231 q 342 -281 428 -281 q 222 -265 272 -281 q 154 -240 172 -250 q 113 -181 113 -217 q 122 -148 113 -161 q 144 -128 131 -135 q 227 -169 174 -150 q 342 -187 281 -187 q 484 -147 435 -187 q 533 -21 533 -107 l 533 125 m 382 832 q 453 856 426 832 q 488 924 481 879 q 499 926 493 925 q 511 926 504 926 q 547 914 533 926 q 560 874 560 901 q 515 791 560 831 q 382 751 471 751 q 247 791 290 751 q 204 874 204 831 q 217 914 204 901 q 253 926 231 926 q 266 926 260 926 q 276 924 272 925 q 311 856 283 879 q 382 832 339 832 z "},"Ġ":{"ha":888,"x_min":75,"x_max":792,"o":"m 792 97 q 777 55 792 72 q 733 24 763 38 q 638 -6 699 6 q 514 -18 576 -18 q 285 29 385 -18 q 131 174 186 76 q 75 421 75 271 q 133 667 75 569 q 286 814 190 765 q 496 863 382 863 q 635 846 575 863 q 728 804 694 829 q 761 753 761 779 q 750 720 761 735 q 724 699 739 706 q 635 745 686 724 q 503 767 583 767 q 344 728 415 767 q 233 612 274 689 q 192 421 192 535 q 234 226 192 301 q 350 114 276 150 q 515 78 424 78 q 610 86 565 78 q 679 107 654 94 l 679 363 l 469 363 q 461 381 465 369 q 457 407 457 393 q 468 444 457 431 q 500 457 479 457 l 732 457 q 774 441 757 457 q 792 399 792 425 l 792 97 m 564 1014 q 544 965 564 983 q 493 946 525 946 q 443 965 463 946 q 424 1014 424 983 q 443 1065 424 1046 q 493 1083 463 1083 q 544 1065 525 1083 q 564 1014 564 1046 z "},"ġ":{"ha":746,"x_min":71,"x_max":644,"o":"m 371 19 q 222 51 290 19 q 113 153 154 82 q 71 340 71 224 q 112 517 71 446 q 225 624 153 588 q 390 660 297 660 q 508 644 454 660 q 597 604 561 628 q 631 573 618 590 q 644 531 644 556 l 644 101 l 533 101 l 533 529 q 474 556 510 544 q 390 568 439 568 q 240 511 297 568 q 183 342 183 454 q 241 164 183 217 q 383 111 299 111 q 482 132 444 111 q 542 178 519 153 l 547 79 q 481 38 526 57 q 371 19 436 19 m 533 125 l 644 125 l 644 -28 q 605 -175 644 -119 q 497 -256 565 -231 q 342 -281 428 -281 q 222 -265 272 -281 q 154 -240 172 -250 q 113 -181 113 -217 q 122 -148 113 -161 q 144 -128 131 -135 q 227 -169 174 -150 q 342 -187 281 -187 q 484 -147 435 -187 q 533 -21 533 -107 l 533 125 m 456 843 q 436 794 456 813 q 385 775 417 775 q 335 794 354 775 q 315 843 315 813 q 335 894 315 875 q 385 913 354 913 q 436 894 417 913 q 456 843 456 875 z "},"Ģ":{"ha":888,"x_min":75,"x_max":792,"o":"m 792 97 q 777 55 792 72 q 733 24 763 38 q 638 -6 699 6 q 514 -18 576 -18 q 285 29 385 -18 q 131 174 186 76 q 75 421 75 271 q 133 667 75 569 q 286 814 190 765 q 496 863 382 863 q 635 846 575 863 q 728 804 694 829 q 761 753 761 779 q 750 720 761 735 q 724 699 739 706 q 635 745 686 724 q 503 767 583 767 q 344 728 415 767 q 233 612 274 689 q 192 421 192 535 q 234 226 192 301 q 350 114 276 150 q 515 78 424 78 q 610 86 565 78 q 679 107 654 94 l 679 363 l 469 363 q 461 381 465 369 q 457 407 457 393 q 468 444 457 431 q 500 457 479 457 l 732 457 q 774 441 757 457 q 792 399 792 425 l 792 97 m 478 -279 q 453 -299 467 -293 q 425 -304 440 -304 q 382 -286 396 -304 q 418 -186 401 -237 q 439 -96 435 -135 q 463 -88 451 -90 q 489 -86 475 -86 q 526 -97 511 -86 q 540 -128 540 -107 q 531 -180 540 -150 q 506 -236 521 -210 q 478 -279 492 -262 z "},"ģ":{"ha":746,"x_min":71,"x_max":644,"o":"m 386 922 q 410 944 397 938 q 439 950 424 950 q 465 944 451 950 q 485 932 478 939 q 447 835 463 885 q 426 742 432 786 q 404 735 417 738 q 379 732 392 732 q 342 741 357 732 q 326 767 326 750 q 335 822 326 792 q 358 879 344 851 q 386 922 372 907 m 371 19 q 222 51 290 19 q 113 153 154 82 q 71 340 71 224 q 112 517 71 446 q 225 624 153 588 q 390 660 297 660 q 508 644 454 660 q 597 604 561 628 q 631 573 618 590 q 644 531 644 556 l 644 101 l 533 101 l 533 529 q 474 556 510 544 q 390 568 439 568 q 240 511 297 568 q 183 342 183 454 q 241 164 183 217 q 383 111 299 111 q 482 132 444 111 q 542 178 519 153 l 547 79 q 481 38 526 57 q 371 19 436 19 m 533 125 l 644 125 l 644 -28 q 605 -175 644 -119 q 497 -256 565 -231 q 342 -281 428 -281 q 222 -265 272 -281 q 154 -240 172 -250 q 113 -181 113 -217 q 122 -148 113 -161 q 144 -128 131 -135 q 227 -169 174 -150 q 342 -187 281 -187 q 484 -147 435 -187 q 533 -21 533 -107 l 533 125 z "},"Ĥ":{"ha":896,"x_min":125,"x_max":786,"o":"m 239 503 l 239 3 q 217 -3 231 0 q 186 -7 203 -7 q 140 6 156 -7 q 125 44 125 18 l 125 503 l 239 503 m 125 410 l 125 842 q 147 848 132 844 q 178 851 161 851 q 224 840 208 851 q 239 800 239 828 l 239 410 l 125 410 m 786 503 l 786 3 q 764 -3 778 0 q 733 -7 750 -7 q 688 6 703 -7 q 672 44 672 18 l 672 503 l 786 503 m 672 410 l 672 842 q 694 848 679 844 q 725 851 708 851 q 771 840 756 851 q 786 800 786 828 l 786 410 l 672 410 m 193 381 l 193 475 l 732 475 l 732 381 l 193 381 m 453 1043 q 398 985 431 1019 q 325 915 365 951 q 286 930 301 918 q 271 961 271 942 q 281 990 271 978 q 307 1018 292 1003 l 389 1100 q 454 1131 419 1131 q 492 1122 476 1131 q 524 1094 507 1113 l 638 965 q 624 931 638 944 q 590 918 611 918 q 561 926 575 918 q 528 957 547 935 l 453 1043 z "},"ĥ":{"ha":774,"x_min":-51,"x_max":632,"o":"m 521 276 l 521 404 q 474 528 521 488 q 354 568 428 568 q 253 547 300 568 q 175 497 207 526 l 154 588 q 242 635 188 611 q 369 660 297 660 q 558 597 485 660 q 632 407 632 535 l 632 276 l 521 276 m 189 367 l 189 3 q 168 -3 182 0 q 138 -7 154 -7 q 93 5 108 -7 q 78 43 78 17 l 78 367 l 189 367 m 632 364 l 632 3 q 610 -3 625 0 q 581 -7 596 -7 q 535 5 550 -7 q 521 43 521 17 l 521 365 l 632 364 m 78 313 l 78 900 q 99 906 85 903 q 131 910 114 910 q 174 898 160 910 q 189 860 189 886 l 189 313 l 78 313 m 131 1050 q 76 992 108 1026 q 3 922 43 958 q -36 937 -21 925 q -51 968 -51 949 q -41 997 -51 985 q -15 1025 -31 1010 l 67 1107 q 132 1138 97 1138 q 169 1128 154 1138 q 201 1101 185 1119 l 315 972 q 302 938 315 951 q 268 925 289 925 q 239 933 253 925 q 206 964 225 942 l 131 1050 z "},"Ħ":{"ha":908,"x_min":33,"x_max":875,"o":"m 46 604 q 38 622 42 611 q 33 646 33 632 q 74 690 33 690 l 864 690 q 871 674 867 685 q 875 649 875 663 q 865 614 875 624 q 835 604 854 604 l 46 604 m 243 503 l 243 3 q 221 -3 235 0 q 190 -7 207 -7 q 144 6 160 -7 q 129 44 129 18 l 129 503 l 243 503 m 129 410 l 129 842 q 151 848 136 844 q 182 851 165 851 q 228 840 213 851 q 243 800 243 828 l 243 410 l 129 410 m 790 503 l 790 3 q 768 -3 782 0 q 738 -7 754 -7 q 692 6 707 -7 q 676 44 676 18 l 676 503 l 790 503 m 676 410 l 676 842 q 698 848 683 844 q 729 851 713 851 q 775 840 760 851 q 790 800 790 828 l 790 410 l 676 410 m 197 381 l 197 475 l 736 475 l 736 381 l 197 381 z "},"ħ":{"ha":775,"x_min":7,"x_max":661,"o":"m 364 815 q 373 799 369 808 q 376 775 376 789 q 338 732 376 732 l 18 732 q 11 749 15 739 q 7 772 7 758 q 44 815 7 815 l 364 815 m 550 276 l 550 404 q 503 528 550 488 q 383 568 457 568 q 283 547 329 568 q 204 497 236 526 l 183 588 q 272 635 217 611 q 399 660 326 660 q 588 597 514 660 q 661 407 661 535 l 661 276 l 550 276 m 218 367 l 218 3 q 197 -3 211 0 q 167 -7 183 -7 q 122 5 138 -7 q 107 43 107 17 l 107 367 l 218 367 m 661 364 l 661 3 q 640 -3 654 0 q 610 -7 625 -7 q 565 5 579 -7 q 550 43 550 17 l 550 365 l 661 364 m 107 313 l 107 901 q 128 908 114 904 q 160 911 143 911 q 203 899 189 911 q 218 861 218 888 l 218 313 l 107 313 z "},"Ĩ":{"ha":364,"x_min":-22,"x_max":388,"o":"m 238 504 l 238 3 q 217 -3 231 0 q 186 -7 203 -7 q 140 6 156 -7 q 125 44 125 18 l 125 504 l 238 504 m 125 411 l 125 842 q 147 848 132 844 q 178 851 161 851 q 223 840 208 851 q 238 800 238 828 l 238 411 l 125 411 m 82 1092 q 152 1080 121 1092 q 210 1056 183 1068 q 261 1044 238 1044 q 298 1060 286 1044 q 315 1097 310 1075 l 324 1097 q 368 1085 349 1097 q 388 1044 388 1074 q 360 982 388 1006 q 286 958 332 958 q 214 971 247 958 q 153 995 181 983 q 103 1007 125 1007 q 67 992 78 1007 q 50 953 56 976 l 42 953 q -3 965 17 953 q -22 1006 -22 978 q -8 1052 -22 1033 q 31 1081 7 1071 q 82 1092 56 1092 z "},"ĩ":{"ha":335,"x_min":-33,"x_max":376,"o":"m 222 476 l 222 -3 q 203 -8 217 -4 q 174 -11 189 -11 q 127 2 143 -11 q 111 40 111 15 l 111 476 l 222 476 m 111 406 l 111 638 q 132 643 118 640 q 161 646 146 646 q 207 633 192 646 q 222 594 222 619 l 222 406 l 111 406 m 71 904 q 141 892 110 904 q 199 869 172 881 q 250 857 226 857 q 287 872 275 857 q 304 910 299 888 l 313 910 q 357 898 338 910 q 376 857 376 886 q 349 794 376 818 q 275 771 321 771 q 203 783 236 771 q 142 808 169 796 q 92 819 114 819 q 56 804 67 819 q 39 765 44 789 l 31 765 q -14 778 6 765 q -33 818 -33 790 q -19 865 -33 846 q 20 894 -4 883 q 71 904 44 904 z "},"Ī":{"ha":364,"x_min":-12,"x_max":363,"o":"m 238 504 l 238 3 q 217 -3 231 0 q 186 -7 203 -7 q 140 6 156 -7 q 125 44 125 18 l 125 504 l 238 504 m 125 411 l 125 842 q 147 848 132 844 q 178 851 161 851 q 223 840 208 851 q 238 800 238 828 l 238 411 l 125 411 m 3 958 q -8 978 -3 967 q -12 1003 -12 989 q 0 1038 -12 1026 q 32 1049 13 1049 l 349 1049 q 358 1028 354 1040 q 363 1004 363 1017 q 351 969 363 981 q 318 958 339 958 l 3 958 z "},"ī":{"ha":335,"x_min":-26,"x_max":349,"o":"m 222 476 l 222 -3 q 203 -8 217 -4 q 174 -11 189 -11 q 127 2 143 -11 q 111 40 111 15 l 111 476 l 222 476 m 111 406 l 111 638 q 132 643 118 640 q 161 646 146 646 q 207 633 192 646 q 222 594 222 619 l 222 406 l 111 406 m -11 792 q -22 811 -17 800 q -26 836 -26 822 q -14 871 -26 860 q 18 882 -1 882 l 335 882 q 344 862 340 874 q 349 838 349 850 q 337 803 349 814 q 304 792 325 792 l -11 792 z "},"Į":{"ha":364,"x_min":88,"x_max":319,"o":"m 238 3 q 189 -92 189 -35 q 213 -156 189 -133 q 278 -178 238 -178 l 311 -178 q 319 -212 319 -192 q 303 -250 319 -235 q 244 -265 286 -265 q 131 -223 174 -265 q 88 -117 88 -181 q 106 -42 88 -75 q 158 13 124 -10 l 238 3 m 238 504 l 238 3 q 217 -3 231 0 q 186 -7 203 -7 q 140 6 156 -7 q 125 44 125 18 l 125 504 l 238 504 m 125 411 l 125 842 q 147 848 132 844 q 178 851 161 851 q 223 840 208 851 q 238 800 238 828 l 238 411 l 125 411 z "},"į":{"ha":335,"x_min":56,"x_max":272,"o":"m 222 3 q 176 -40 196 -15 q 156 -101 156 -65 q 179 -157 156 -139 q 243 -175 203 -175 l 264 -175 q 270 -192 268 -183 q 272 -207 272 -200 q 257 -243 272 -229 q 204 -257 242 -257 q 100 -222 144 -257 q 56 -124 56 -186 q 72 -53 56 -82 q 113 -6 89 -25 q 156 24 136 14 l 222 3 m 94 844 q 115 894 94 874 q 167 914 136 914 q 218 894 199 914 q 238 844 238 874 q 218 795 238 815 q 167 775 199 775 q 115 795 136 775 q 94 844 94 815 m 222 367 l 222 3 q 201 -3 215 0 q 171 -7 188 -7 q 126 5 142 -7 q 111 43 111 17 l 111 367 l 222 367 m 111 313 l 111 639 q 133 645 118 642 q 164 649 147 649 q 208 637 193 649 q 222 597 222 625 l 222 313 l 111 313 z "},"İ":{"ha":364,"x_min":110,"x_max":250,"o":"m 238 504 l 238 3 q 217 -3 231 0 q 186 -7 203 -7 q 140 6 156 -7 q 125 44 125 18 l 125 504 l 238 504 m 125 411 l 125 842 q 147 848 132 844 q 178 851 161 851 q 223 840 208 851 q 238 800 238 828 l 238 411 l 125 411 m 250 1014 q 231 965 250 983 q 179 946 211 946 q 129 965 149 946 q 110 1014 110 983 q 129 1065 110 1046 q 179 1083 149 1083 q 231 1065 211 1083 q 250 1014 250 1046 z "},"ı":{"ha":335,"x_min":111,"x_max":222,"o":"m 222 476 l 222 1 q 203 -3 217 0 q 174 -7 189 -7 q 127 6 143 -7 q 111 43 111 19 l 111 476 l 222 476 m 111 406 l 111 640 q 132 646 118 643 q 161 649 146 649 q 207 635 192 649 q 222 597 222 622 l 222 406 l 111 406 z "},"Ĵ":{"ha":517,"x_min":22,"x_max":519,"o":"m 399 401 l 399 206 q 367 74 399 122 q 285 5 336 25 q 174 -15 233 -15 q 59 3 96 -15 q 22 53 22 22 q 31 86 22 72 q 46 107 39 100 q 97 89 67 97 q 157 81 126 81 q 253 111 219 81 q 286 211 286 142 l 286 401 l 399 401 m 286 368 l 286 842 q 308 848 293 844 q 338 851 322 851 q 383 840 368 851 q 399 800 399 828 l 399 368 l 286 368 m 335 1043 q 280 985 313 1019 q 207 915 247 951 q 168 930 183 918 q 153 961 153 942 q 163 990 153 978 q 189 1018 174 1003 l 271 1100 q 336 1131 301 1131 q 374 1122 358 1131 q 406 1094 389 1113 l 519 965 q 506 931 519 944 q 472 918 493 918 q 443 926 457 918 q 410 957 429 935 l 335 1043 z "},"ĵ":{"ha":331,"x_min":-19,"x_max":343,"o":"m 46 -183 q 96 -139 82 -165 q 110 -61 110 -112 l 110 440 l 222 440 l 222 -74 q 182 -217 222 -171 q 135 -254 160 -243 q 86 -265 110 -265 q 37 -249 56 -265 q 18 -196 18 -232 l 46 -183 m 110 406 l 110 638 q 131 643 117 640 q 160 646 144 646 q 206 633 190 646 q 222 594 222 619 l 222 406 l 110 406 m 161 858 q 98 787 129 819 q 39 722 67 754 q -3 738 14 725 q -19 768 -19 750 q -10 795 -19 783 q 11 821 -1 807 l 96 913 q 128 936 114 928 q 161 944 143 944 q 198 936 183 944 q 226 911 213 928 l 343 772 q 333 740 343 754 q 300 725 322 725 q 273 733 283 725 q 251 751 263 740 l 161 858 z "},"Ķ":{"ha":774,"x_min":111,"x_max":719,"o":"m 286 486 q 540 233 433 344 q 719 56 646 122 q 701 8 718 25 q 660 -10 685 -10 q 617 4 636 -10 q 579 36 599 18 l 199 431 l 286 486 m 189 417 l 607 850 q 661 832 643 849 q 679 793 679 815 q 670 759 679 775 q 642 726 661 743 l 301 392 l 189 417 m 225 510 l 225 1 q 203 -5 217 -1 q 172 -8 189 -8 q 126 4 142 -8 q 111 43 111 17 l 111 510 l 225 510 m 111 417 l 111 842 q 133 848 118 844 q 164 851 147 851 q 210 840 194 851 q 225 800 225 828 l 225 417 l 111 417 m 389 -279 q 365 -299 378 -293 q 336 -304 351 -304 q 293 -286 307 -304 q 329 -186 313 -237 q 350 -96 346 -135 q 374 -88 363 -90 q 400 -86 386 -86 q 437 -97 422 -86 q 451 -128 451 -107 q 442 -180 451 -150 q 417 -236 432 -210 q 389 -279 403 -262 z "},"ķ":{"ha":676,"x_min":107,"x_max":633,"o":"m 206 347 l 522 654 q 574 638 556 653 q 593 600 593 624 q 581 565 593 581 q 547 532 569 550 l 275 293 l 206 347 m 281 375 l 633 58 q 615 10 631 28 q 572 -8 599 -8 q 534 3 551 -8 q 499 32 517 14 l 203 329 l 281 375 m 218 356 l 218 3 q 197 -3 211 0 q 167 -7 183 -7 q 122 5 138 -7 q 107 43 107 17 l 107 372 l 218 356 m 107 318 l 107 900 q 128 906 114 903 q 160 910 143 910 q 203 898 189 910 q 218 860 218 886 l 218 301 l 107 318 m 364 -279 q 340 -299 353 -293 q 311 -304 326 -304 q 268 -286 282 -304 q 304 -186 288 -237 q 325 -96 321 -135 q 349 -88 338 -90 q 375 -86 361 -86 q 412 -97 397 -86 q 426 -128 426 -107 q 417 -180 426 -150 q 392 -236 407 -210 q 364 -279 378 -262 z "},"ĸ":{"ha":676,"x_min":107,"x_max":633,"o":"m 107 389 l 107 640 q 128 646 114 643 q 157 649 142 649 q 203 635 188 649 q 218 597 218 622 l 218 389 l 107 389 m 206 346 l 535 654 q 588 638 569 653 q 607 599 607 622 q 593 565 607 581 q 558 532 579 550 l 271 286 l 206 346 m 274 378 l 633 58 q 615 10 631 28 q 572 -8 599 -8 q 534 3 551 -8 q 499 32 517 14 l 203 326 l 274 378 m 218 425 l 218 3 q 197 -3 211 0 q 167 -7 183 -7 q 122 5 138 -7 q 107 43 107 17 l 107 425 l 218 425 z "},"Ĺ":{"ha":696,"x_min":124,"x_max":651,"o":"m 238 493 l 238 11 l 185 0 q 141 17 158 0 q 124 61 124 35 l 124 493 l 238 493 m 185 97 l 636 97 q 647 79 643 92 q 651 51 651 67 q 639 14 651 28 q 606 0 626 0 l 185 0 l 185 97 m 124 410 l 124 842 q 145 848 131 844 q 176 851 160 851 q 222 840 207 851 q 238 800 238 828 l 238 410 l 124 410 m 292 1139 q 338 1123 322 1138 q 354 1089 354 1108 q 347 1057 354 1069 q 319 1028 339 1044 l 201 922 q 160 936 175 925 q 146 964 146 947 q 151 988 146 978 q 165 1006 157 997 l 292 1139 z "},"ĺ":{"ha":342,"x_min":115,"x_max":336,"o":"m 274 1182 q 320 1166 304 1181 q 336 1132 336 1151 q 328 1100 336 1113 q 301 1071 321 1088 l 183 965 q 142 979 157 968 q 128 1007 128 990 q 133 1031 128 1021 q 147 1049 139 1040 l 274 1182 m 226 350 l 226 3 q 206 -3 219 0 q 175 -7 192 -7 q 131 5 146 -7 q 115 43 115 17 l 115 367 l 226 350 m 115 313 l 115 900 q 137 906 122 903 q 167 910 151 910 q 212 898 197 910 q 226 860 226 886 l 226 297 l 115 313 z "},"Ļ":{"ha":696,"x_min":124,"x_max":651,"o":"m 238 493 l 238 11 l 185 0 q 141 17 158 0 q 124 61 124 35 l 124 493 l 238 493 m 185 97 l 636 97 q 647 79 643 92 q 651 51 651 67 q 639 14 651 28 q 606 0 626 0 l 185 0 l 185 97 m 124 410 l 124 842 q 145 848 131 844 q 176 851 160 851 q 222 840 207 851 q 238 800 238 828 l 238 410 l 124 410 m 376 -279 q 352 -299 365 -293 q 324 -304 339 -304 q 281 -286 294 -304 q 317 -186 300 -237 q 338 -96 333 -135 q 362 -88 350 -90 q 388 -86 374 -86 q 424 -97 410 -86 q 439 -128 439 -107 q 429 -180 439 -150 q 405 -236 419 -210 q 376 -279 390 -262 z "},"ļ":{"ha":342,"x_min":64,"x_max":226,"o":"m 226 350 l 226 3 q 206 -3 219 0 q 175 -7 192 -7 q 131 5 146 -7 q 115 43 115 17 l 115 367 l 226 350 m 115 313 l 115 900 q 137 906 122 903 q 167 910 151 910 q 212 898 197 910 q 226 860 226 886 l 226 297 l 115 313 m 160 -279 q 135 -299 149 -293 q 107 -304 122 -304 q 64 -286 78 -304 q 100 -186 83 -237 q 121 -96 117 -135 q 145 -88 133 -90 q 171 -86 157 -86 q 208 -97 193 -86 q 222 -128 222 -107 q 213 -180 222 -150 q 188 -236 203 -210 q 160 -279 174 -262 z "},"Ľ":{"ha":696,"x_min":124,"x_max":651,"o":"m 238 493 l 238 11 l 185 0 q 141 17 158 0 q 124 61 124 35 l 124 493 l 238 493 m 185 97 l 636 97 q 647 79 643 92 q 651 51 651 67 q 639 14 651 28 q 606 0 626 0 l 185 0 l 185 97 m 124 410 l 124 842 q 145 848 131 844 q 176 851 160 851 q 222 840 207 851 q 238 800 238 828 l 238 410 l 124 410 m 482 658 q 458 639 471 644 q 429 633 444 633 q 386 651 400 633 q 422 751 406 700 q 443 842 439 803 q 467 849 456 847 q 493 851 479 851 q 530 841 515 851 q 544 810 544 831 q 535 758 544 788 q 510 701 525 728 q 482 658 496 675 z "},"ľ":{"ha":440,"x_min":115,"x_max":454,"o":"m 226 350 l 226 3 q 206 -3 219 0 q 175 -7 192 -7 q 131 5 146 -7 q 115 43 115 17 l 115 367 l 226 350 m 115 313 l 115 900 q 137 906 122 903 q 167 910 151 910 q 212 898 197 910 q 226 860 226 886 l 226 297 l 115 313 m 392 717 q 367 697 381 703 q 339 692 354 692 q 296 710 310 692 q 332 810 315 758 q 353 900 349 861 q 377 908 365 906 q 403 910 389 910 q 440 899 425 910 q 454 868 454 889 q 444 816 454 846 q 420 760 435 786 q 392 717 406 733 z "},"Ŀ":{"ha":696,"x_min":124,"x_max":651,"o":"m 238 493 l 238 11 l 185 0 q 141 17 158 0 q 124 61 124 35 l 124 493 l 238 493 m 185 97 l 636 97 q 647 79 643 92 q 651 51 651 67 q 639 14 651 28 q 606 0 626 0 l 185 0 l 185 97 m 124 410 l 124 842 q 145 848 131 844 q 176 851 160 851 q 222 840 207 851 q 238 800 238 828 l 238 410 l 124 410 m 440 444 q 460 500 440 478 q 517 522 481 522 q 572 500 553 522 q 592 444 592 478 q 572 390 592 413 q 517 368 553 368 q 460 390 481 368 q 440 444 440 413 z "},"ŀ":{"ha":439,"x_min":115,"x_max":467,"o":"m 226 350 l 226 3 q 206 -3 219 0 q 175 -7 192 -7 q 131 5 146 -7 q 115 43 115 17 l 115 367 l 226 350 m 115 313 l 115 900 q 137 906 122 903 q 167 910 151 910 q 212 898 197 910 q 226 860 226 886 l 226 297 l 115 313 m 315 419 q 335 475 315 453 q 392 497 356 497 q 447 475 428 497 q 467 419 467 453 q 447 365 467 388 q 392 343 428 343 q 335 365 356 343 q 315 419 315 388 z "},"Ł":{"ha":724,"x_min":14,"x_max":693,"o":"m 51 310 q 26 335 39 319 q 14 371 14 350 q 43 411 14 399 l 486 588 q 511 563 499 579 q 524 528 524 547 q 516 503 524 514 q 494 488 508 493 l 51 310 m 279 493 l 279 11 l 226 0 q 183 17 200 0 q 165 61 165 35 l 165 493 l 279 493 m 226 97 l 678 97 q 689 79 685 92 q 693 51 693 67 q 681 14 693 28 q 647 0 668 0 l 226 0 l 226 97 m 165 410 l 165 842 q 187 848 172 844 q 218 851 201 851 q 264 840 249 851 q 279 800 279 828 l 279 410 l 165 410 z "},"ł":{"ha":451,"x_min":14,"x_max":438,"o":"m 51 332 q 26 356 39 340 q 14 393 14 372 q 43 432 14 422 l 401 578 q 426 553 414 569 q 438 517 438 538 q 431 493 438 503 q 410 478 424 483 l 51 332 m 281 350 l 281 3 q 260 -3 274 0 q 229 -7 246 -7 q 185 5 200 -7 q 169 43 169 17 l 169 367 l 281 350 m 169 313 l 169 900 q 191 906 176 903 q 221 910 206 910 q 266 898 251 910 q 281 860 281 886 l 281 297 l 169 313 z "},"Ń":{"ha":904,"x_min":121,"x_max":790,"o":"m 215 757 q 225 656 221 714 q 231 535 229 597 q 233 418 233 474 l 233 3 q 212 -3 226 0 q 182 -7 197 -7 q 136 5 151 -7 q 121 43 121 17 l 121 749 l 215 757 m 694 88 q 678 326 681 204 q 676 561 676 447 l 676 842 q 699 848 685 844 q 729 851 713 851 q 775 840 760 851 q 790 801 790 828 l 790 96 l 694 88 m 790 143 l 790 15 q 758 -1 778 6 q 715 -8 739 -8 q 658 5 682 -8 q 615 53 635 18 l 351 497 q 306 580 331 535 q 258 666 281 625 q 224 733 236 707 l 121 707 l 121 828 q 152 846 132 839 q 196 853 172 853 q 253 840 229 853 q 296 792 276 826 l 561 347 q 608 265 583 310 q 653 178 632 219 q 686 111 674 138 l 790 138 l 790 143 m 572 1139 q 619 1123 603 1138 q 635 1089 635 1108 q 627 1057 635 1069 q 600 1028 619 1044 l 482 922 q 441 936 456 925 q 426 964 426 947 q 432 988 426 978 q 446 1006 438 997 l 572 1139 z "},"ń":{"ha":764,"x_min":104,"x_max":660,"o":"m 660 282 l 549 282 l 549 418 q 505 532 549 496 q 388 568 461 568 q 289 554 332 568 q 215 522 246 540 l 215 282 l 104 282 l 104 517 q 116 565 104 546 q 157 601 128 583 q 253 641 193 622 q 388 660 313 660 q 587 602 514 660 q 660 424 660 544 l 660 282 m 215 358 l 215 3 q 194 -3 208 0 q 164 -7 181 -7 q 119 5 135 -7 q 104 43 104 17 l 104 358 l 215 358 m 660 358 l 660 3 q 638 -3 653 0 q 608 -7 624 -7 q 563 5 578 -7 q 549 43 549 17 l 549 358 l 660 358 m 499 954 q 548 937 529 953 q 567 901 567 921 q 558 871 567 883 q 531 840 550 858 l 404 717 q 360 731 378 717 q 343 764 343 746 q 350 785 343 776 q 364 803 357 794 l 499 954 z "},"Ņ":{"ha":904,"x_min":121,"x_max":790,"o":"m 215 757 q 225 656 221 714 q 231 535 229 597 q 233 418 233 474 l 233 3 q 212 -3 226 0 q 182 -7 197 -7 q 136 5 151 -7 q 121 43 121 17 l 121 749 l 215 757 m 694 88 q 678 326 681 204 q 676 561 676 447 l 676 842 q 699 848 685 844 q 729 851 713 851 q 775 840 760 851 q 790 801 790 828 l 790 96 l 694 88 m 790 143 l 790 15 q 758 -1 778 6 q 715 -8 739 -8 q 658 5 682 -8 q 615 53 635 18 l 351 497 q 306 580 331 535 q 258 666 281 625 q 224 733 236 707 l 121 707 l 121 828 q 152 846 132 839 q 196 853 172 853 q 253 840 229 853 q 296 792 276 826 l 561 347 q 608 265 583 310 q 653 178 632 219 q 686 111 674 138 l 790 138 l 790 143 m 464 -279 q 440 -299 453 -293 q 411 -304 426 -304 q 368 -286 382 -304 q 404 -186 388 -237 q 425 -96 421 -135 q 449 -88 438 -90 q 475 -86 461 -86 q 512 -97 497 -86 q 526 -128 526 -107 q 517 -180 526 -150 q 492 -236 507 -210 q 464 -279 478 -262 z "},"ņ":{"ha":764,"x_min":104,"x_max":660,"o":"m 660 282 l 549 282 l 549 418 q 505 532 549 496 q 388 568 461 568 q 289 554 332 568 q 215 522 246 540 l 215 282 l 104 282 l 104 517 q 116 565 104 546 q 157 601 128 583 q 253 641 193 622 q 388 660 313 660 q 587 602 514 660 q 660 424 660 544 l 660 282 m 215 358 l 215 3 q 194 -3 208 0 q 164 -7 181 -7 q 119 5 135 -7 q 104 43 104 17 l 104 358 l 215 358 m 660 358 l 660 3 q 638 -3 653 0 q 608 -7 624 -7 q 563 5 578 -7 q 549 43 549 17 l 549 358 l 660 358 m 378 -279 q 353 -299 367 -293 q 325 -304 340 -304 q 282 -286 296 -304 q 318 -186 301 -237 q 339 -96 335 -135 q 363 -88 351 -90 q 389 -86 375 -86 q 426 -97 411 -86 q 440 -128 440 -107 q 431 -180 440 -150 q 406 -236 421 -210 q 378 -279 392 -262 z "},"Ň":{"ha":904,"x_min":121,"x_max":790,"o":"m 215 757 q 225 656 221 714 q 231 535 229 597 q 233 418 233 474 l 233 3 q 212 -3 226 0 q 182 -7 197 -7 q 136 5 151 -7 q 121 43 121 17 l 121 749 l 215 757 m 694 88 q 678 326 681 204 q 676 561 676 447 l 676 842 q 699 848 685 844 q 729 851 713 851 q 775 840 760 851 q 790 801 790 828 l 790 96 l 694 88 m 790 143 l 790 15 q 758 -1 778 6 q 715 -8 739 -8 q 658 5 682 -8 q 615 53 635 18 l 351 497 q 306 580 331 535 q 258 666 281 625 q 224 733 236 707 l 121 707 l 121 828 q 152 846 132 839 q 196 853 172 853 q 253 840 229 853 q 296 792 276 826 l 561 347 q 608 265 583 310 q 653 178 632 219 q 686 111 674 138 l 790 138 l 790 143 m 465 1001 q 521 1060 489 1026 q 588 1131 553 1093 q 631 1117 613 1129 q 649 1085 649 1104 q 638 1056 649 1068 q 613 1028 628 1043 l 529 944 q 499 924 514 931 q 465 917 485 917 q 428 925 444 917 q 397 951 413 933 l 282 1074 q 294 1114 282 1100 q 328 1128 307 1128 q 358 1119 343 1128 q 390 1089 372 1111 l 465 1001 z "},"ň":{"ha":764,"x_min":104,"x_max":660,"o":"m 660 282 l 549 282 l 549 418 q 505 532 549 496 q 388 568 461 568 q 289 554 332 568 q 215 522 246 540 l 215 282 l 104 282 l 104 517 q 116 565 104 546 q 157 601 128 583 q 253 641 193 622 q 388 660 313 660 q 587 602 514 660 q 660 424 660 544 l 660 282 m 215 358 l 215 3 q 194 -3 208 0 q 164 -7 181 -7 q 119 5 135 -7 q 104 43 104 17 l 104 358 l 215 358 m 660 358 l 660 3 q 638 -3 653 0 q 608 -7 624 -7 q 563 5 578 -7 q 549 43 549 17 l 549 358 l 660 358 m 374 810 l 496 944 q 540 930 524 943 q 556 897 556 917 q 546 869 556 882 q 521 840 536 857 l 433 751 q 406 731 419 738 q 372 724 392 724 q 348 728 360 724 q 326 740 336 732 q 304 760 315 749 l 186 889 q 192 915 186 903 q 208 934 197 926 q 232 942 218 942 q 262 934 250 942 q 289 908 274 926 l 374 810 z "},"ŉ":{"ha":871,"x_min":14,"x_max":767,"o":"m 767 282 l 656 282 l 656 418 q 612 532 656 496 q 494 568 568 568 q 396 554 439 568 q 322 522 353 540 l 322 282 l 211 282 l 211 517 q 223 565 211 546 q 264 601 235 583 q 360 641 300 622 q 494 660 419 660 q 694 602 621 660 q 767 424 767 544 l 767 282 m 322 358 l 322 3 q 301 -3 315 0 q 271 -7 288 -7 q 226 5 242 -7 q 211 43 211 17 l 211 358 l 322 358 m 767 358 l 767 3 q 745 -3 760 0 q 715 -7 731 -7 q 670 5 685 -7 q 656 43 656 17 l 656 358 l 767 358 m 110 607 q 89 578 100 588 q 58 569 78 569 q 34 574 46 569 q 14 585 22 579 q 28 668 21 619 q 42 767 36 717 q 51 860 49 818 q 76 866 64 864 q 104 868 89 868 q 142 855 128 868 q 157 814 157 842 q 149 746 157 788 q 129 666 140 704 q 110 607 118 628 z "},"Ō":{"ha":957,"x_min":75,"x_max":881,"o":"m 881 422 q 828 180 881 278 q 684 32 775 82 q 478 -18 593 -18 q 272 32 364 -18 q 128 180 181 82 q 75 422 75 278 q 129 665 75 567 q 274 813 183 763 q 478 863 365 863 q 683 813 592 863 q 827 665 774 763 q 881 422 881 567 m 765 422 q 687 677 765 588 q 478 767 608 767 q 270 677 349 767 q 192 422 192 588 q 269 167 192 257 q 478 78 347 78 q 688 167 610 78 q 765 422 765 257 m 299 958 q 288 978 293 967 q 283 1003 283 989 q 296 1038 283 1026 q 328 1049 308 1049 l 644 1049 q 654 1028 650 1040 q 658 1004 658 1017 q 647 969 658 981 q 614 958 635 958 l 299 958 z "},"ō":{"ha":768,"x_min":68,"x_max":700,"o":"m 700 321 q 661 142 700 218 q 551 24 622 65 q 385 -18 481 -18 q 217 24 289 -18 q 107 142 146 65 q 68 321 68 218 q 108 501 68 425 q 219 618 147 576 q 385 660 290 660 q 550 618 479 660 q 660 501 621 576 q 700 321 700 425 m 385 568 q 237 502 292 568 q 182 321 182 436 q 235 139 182 204 q 385 74 289 74 q 533 140 479 74 q 586 321 586 206 q 533 502 586 436 q 385 568 479 568 m 214 792 q 203 811 208 800 q 199 836 199 822 q 211 871 199 860 q 243 882 224 882 l 560 882 q 569 862 565 874 q 574 838 574 850 q 562 803 574 814 q 529 792 550 792 l 214 792 z "},"Ő":{"ha":957,"x_min":75,"x_max":881,"o":"m 881 422 q 828 180 881 278 q 684 32 775 82 q 478 -18 593 -18 q 272 32 364 -18 q 128 180 181 82 q 75 422 75 278 q 129 665 75 567 q 274 813 183 763 q 478 863 365 863 q 683 813 592 863 q 827 665 774 763 q 881 422 881 567 m 765 422 q 687 677 765 588 q 478 767 608 767 q 270 677 349 767 q 192 422 192 588 q 269 167 192 257 q 478 78 347 78 q 688 167 610 78 q 765 422 765 257 m 424 1136 q 472 1121 454 1135 q 490 1088 490 1107 q 481 1055 490 1068 q 456 1022 472 1042 l 372 922 q 329 935 346 922 q 313 967 313 949 q 318 989 313 979 q 329 1008 324 999 l 424 1136 m 658 1136 q 707 1121 689 1135 q 725 1088 725 1107 q 715 1055 725 1068 q 690 1022 706 1042 l 607 922 q 564 935 581 922 q 547 967 547 949 q 553 989 547 979 q 564 1008 558 999 l 658 1136 z "},"ő":{"ha":768,"x_min":68,"x_max":700,"o":"m 700 321 q 661 142 700 218 q 551 24 622 65 q 385 -18 481 -18 q 217 24 289 -18 q 107 142 146 65 q 68 321 68 218 q 108 501 68 425 q 219 618 147 576 q 385 660 290 660 q 550 618 479 660 q 660 501 621 576 q 700 321 700 425 m 385 568 q 237 502 292 568 q 182 321 182 436 q 235 139 182 204 q 385 74 289 74 q 533 140 479 74 q 586 321 586 206 q 533 502 586 436 q 385 568 479 568 m 346 954 q 394 939 376 953 q 413 906 413 925 q 403 874 413 888 q 378 840 394 860 l 279 717 q 235 730 253 717 q 218 761 218 743 q 224 783 218 774 q 236 803 229 793 l 346 954 m 579 954 q 628 939 610 953 q 646 906 646 925 q 637 874 646 888 q 611 840 628 860 l 513 717 q 469 730 486 717 q 453 761 453 743 q 458 783 453 774 q 469 803 463 793 l 579 954 z "},"Œ":{"ha":1324,"x_min":74,"x_max":1251,"o":"m 824 508 l 824 11 q 802 5 817 10 q 772 0 788 0 q 727 17 743 0 q 711 61 711 35 l 710 121 l 710 508 l 824 508 m 710 346 l 710 728 l 711 783 q 727 828 711 811 q 772 844 743 844 q 802 840 788 844 q 824 833 817 836 l 824 344 l 710 346 m 771 481 l 1189 481 q 1198 463 1193 475 q 1203 436 1203 450 q 1191 400 1203 414 q 1160 386 1179 386 l 771 386 l 771 481 m 772 94 l 1239 94 q 1247 77 1243 89 q 1251 50 1251 65 q 1240 14 1251 28 q 1208 0 1229 0 l 772 0 l 772 94 m 772 844 l 1232 844 q 1240 826 1236 839 q 1244 800 1244 814 q 1233 763 1244 778 q 1201 749 1222 749 l 772 749 l 772 844 m 810 422 q 765 168 810 265 q 641 26 719 71 q 461 -18 563 -18 q 264 31 351 -18 q 125 178 176 81 q 74 422 74 276 q 126 665 74 567 q 266 813 178 763 q 463 863 354 863 q 594 841 532 863 q 705 769 656 819 q 782 635 754 719 q 810 422 810 550 m 750 422 q 669 681 750 594 q 464 767 589 767 q 267 677 343 767 q 190 422 190 588 q 266 167 190 257 q 464 78 342 78 q 675 167 600 78 q 750 422 750 257 z "},"œ":{"ha":1232,"x_min":68,"x_max":1176,"o":"m 685 321 q 647 140 685 215 q 542 23 610 64 q 381 -18 474 -18 q 215 24 285 -18 q 106 142 144 65 q 68 321 68 218 q 107 501 68 425 q 216 618 146 576 q 381 660 286 660 q 540 620 472 660 q 647 505 608 581 q 685 321 685 429 m 385 568 q 237 502 292 568 q 182 321 182 436 q 235 139 182 204 q 385 74 289 74 q 533 140 479 74 q 586 321 586 206 q 533 502 586 436 q 385 568 479 568 m 650 338 l 1071 394 q 1017 520 1064 471 q 888 569 971 569 q 744 508 800 569 q 688 331 688 446 l 689 300 q 760 131 697 189 q 933 74 824 74 q 1039 93 992 74 q 1114 135 1086 113 q 1139 112 1129 125 q 1149 82 1149 99 q 1119 33 1149 56 q 1039 -4 1089 10 q 928 -18 989 -18 q 685 65 776 -18 q 594 325 594 149 q 632 507 594 432 q 736 621 669 582 q 889 660 803 660 q 1038 624 972 660 q 1140 523 1103 588 q 1176 375 1176 458 q 1162 331 1176 344 q 1122 315 1147 318 l 656 250 l 650 338 z "},"Ŕ":{"ha":818,"x_min":124,"x_max":760,"o":"m 396 414 q 557 458 499 414 q 615 590 615 503 q 554 721 615 676 q 379 765 493 765 q 303 762 342 765 q 236 753 265 758 l 236 414 l 396 414 m 124 319 l 124 783 q 135 817 124 806 q 169 836 147 829 q 269 854 210 849 q 383 860 328 860 q 643 789 557 860 q 729 590 729 718 q 692 447 729 508 q 581 353 654 386 q 396 319 507 319 l 124 319 m 482 397 q 563 296 521 349 q 643 193 604 243 q 713 103 682 143 q 760 42 743 64 q 735 4 754 18 q 697 -10 717 -10 q 658 2 674 -10 q 626 36 643 14 l 399 356 l 482 397 m 238 350 l 238 3 q 215 -3 229 0 q 185 -7 201 -7 q 139 6 154 -7 q 124 44 124 18 l 124 350 l 238 350 m 513 1139 q 559 1123 543 1138 q 575 1089 575 1108 q 567 1057 575 1069 q 540 1028 560 1044 l 422 922 q 381 936 396 925 q 367 964 367 947 q 372 988 367 978 q 386 1006 378 997 l 513 1139 z "},"ŕ":{"ha":531,"x_min":104,"x_max":504,"o":"m 215 303 l 104 303 l 104 514 q 116 565 104 546 q 156 601 128 583 q 254 642 192 625 q 393 660 317 660 q 504 604 504 660 q 500 578 504 590 q 489 558 496 567 q 453 564 475 561 q 408 567 431 567 q 296 553 344 567 q 215 522 247 540 l 215 303 m 215 350 l 215 3 q 194 -3 208 0 q 164 -7 181 -7 q 119 5 135 -7 q 104 43 104 17 l 104 367 l 215 350 m 400 954 q 449 937 431 953 q 468 901 468 921 q 460 871 468 883 q 432 840 451 858 l 306 717 q 262 731 279 717 q 244 764 244 746 q 251 785 244 776 q 265 803 258 794 l 400 954 z "},"Ŗ":{"ha":818,"x_min":124,"x_max":760,"o":"m 396 414 q 557 458 499 414 q 615 590 615 503 q 554 721 615 676 q 379 765 493 765 q 303 762 342 765 q 236 753 265 758 l 236 414 l 396 414 m 124 319 l 124 783 q 135 817 124 806 q 169 836 147 829 q 269 854 210 849 q 383 860 328 860 q 643 789 557 860 q 729 590 729 718 q 692 447 729 508 q 581 353 654 386 q 396 319 507 319 l 124 319 m 482 397 q 563 296 521 349 q 643 193 604 243 q 713 103 682 143 q 760 42 743 64 q 735 4 754 18 q 697 -10 717 -10 q 658 2 674 -10 q 626 36 643 14 l 399 356 l 482 397 m 238 350 l 238 3 q 215 -3 229 0 q 185 -7 201 -7 q 139 6 154 -7 q 124 44 124 18 l 124 350 l 238 350 m 418 -279 q 394 -299 407 -293 q 365 -304 381 -304 q 322 -286 336 -304 q 358 -186 342 -237 q 379 -96 375 -135 q 403 -88 392 -90 q 429 -86 415 -86 q 466 -97 451 -86 q 481 -128 481 -107 q 471 -180 481 -150 q 447 -236 461 -210 q 418 -279 432 -262 z "},"ŗ":{"ha":531,"x_min":56,"x_max":504,"o":"m 215 303 l 104 303 l 104 514 q 116 565 104 546 q 156 601 128 583 q 254 642 192 625 q 393 660 317 660 q 504 604 504 660 q 500 578 504 590 q 489 558 496 567 q 453 564 475 561 q 408 567 431 567 q 296 553 344 567 q 215 522 247 540 l 215 303 m 215 350 l 215 3 q 194 -3 208 0 q 164 -7 181 -7 q 119 5 135 -7 q 104 43 104 17 l 104 367 l 215 350 m 151 -279 q 127 -299 140 -293 q 99 -304 114 -304 q 56 -286 69 -304 q 92 -186 75 -237 q 113 -96 108 -135 q 137 -88 125 -90 q 163 -86 149 -86 q 199 -97 185 -86 q 214 -128 214 -107 q 204 -180 214 -150 q 180 -236 194 -210 q 151 -279 165 -262 z "},"Ř":{"ha":818,"x_min":124,"x_max":760,"o":"m 396 414 q 557 458 499 414 q 615 590 615 503 q 554 721 615 676 q 379 765 493 765 q 303 762 342 765 q 236 753 265 758 l 236 414 l 396 414 m 124 319 l 124 783 q 135 817 124 806 q 169 836 147 829 q 269 854 210 849 q 383 860 328 860 q 643 789 557 860 q 729 590 729 718 q 692 447 729 508 q 581 353 654 386 q 396 319 507 319 l 124 319 m 482 397 q 563 296 521 349 q 643 193 604 243 q 713 103 682 143 q 760 42 743 64 q 735 4 754 18 q 697 -10 717 -10 q 658 2 674 -10 q 626 36 643 14 l 399 356 l 482 397 m 238 350 l 238 3 q 215 -3 229 0 q 185 -7 201 -7 q 139 6 154 -7 q 124 44 124 18 l 124 350 l 238 350 m 411 1001 q 467 1060 435 1026 q 533 1131 499 1093 q 576 1117 558 1129 q 594 1085 594 1104 q 584 1056 594 1068 q 558 1028 574 1043 l 475 944 q 445 924 460 931 q 411 917 431 917 q 374 925 390 917 q 343 951 358 933 l 228 1074 q 240 1114 228 1100 q 274 1128 253 1128 q 303 1119 289 1128 q 336 1089 318 1111 l 411 1001 z "},"ř":{"ha":531,"x_min":104,"x_max":504,"o":"m 215 303 l 104 303 l 104 514 q 116 565 104 546 q 156 601 128 583 q 254 642 192 625 q 393 660 317 660 q 504 604 504 660 q 500 578 504 590 q 489 558 496 567 q 453 564 475 561 q 408 567 431 567 q 296 553 344 567 q 215 522 247 540 l 215 303 m 215 350 l 215 3 q 194 -3 208 0 q 164 -7 181 -7 q 119 5 135 -7 q 104 43 104 17 l 104 367 l 215 350 m 303 810 l 425 944 q 469 930 453 943 q 485 897 485 917 q 475 869 485 882 q 450 840 465 857 l 363 751 q 335 731 349 738 q 301 724 321 724 q 277 728 289 724 q 255 740 265 732 q 233 760 244 749 l 115 889 q 121 915 115 903 q 137 934 126 926 q 161 942 147 942 q 191 934 179 942 q 218 908 203 926 l 303 810 z "},"Ś":{"ha":726,"x_min":75,"x_max":661,"o":"m 357 76 q 498 119 450 76 q 546 228 546 161 q 509 322 546 285 q 393 382 472 360 l 272 418 q 171 465 214 436 q 105 535 128 493 q 82 635 82 578 q 160 802 82 742 q 367 863 238 863 q 501 847 442 863 q 594 806 560 831 q 628 753 628 781 q 618 720 628 735 q 593 697 608 706 q 499 746 558 725 q 371 767 440 767 q 243 731 290 767 q 196 635 196 696 q 230 556 196 586 q 340 503 264 525 l 425 478 q 598 389 535 447 q 661 228 661 331 q 581 50 661 118 q 357 -18 501 -18 q 209 1 272 -18 q 110 48 146 19 q 75 104 75 76 q 90 144 75 128 q 124 167 104 160 q 214 106 156 136 q 357 76 272 76 m 457 1139 q 503 1123 488 1138 q 519 1089 519 1108 q 512 1057 519 1069 q 485 1028 504 1044 l 367 922 q 326 936 340 925 q 311 964 311 947 q 317 988 311 978 q 331 1006 322 997 l 457 1139 z "},"ś":{"ha":621,"x_min":64,"x_max":557,"o":"m 557 171 q 492 32 557 82 q 303 -18 426 -18 q 131 15 197 -18 q 64 86 64 47 q 73 119 64 103 q 100 144 82 135 q 188 96 138 118 q 301 74 238 74 q 446 171 446 74 q 422 237 446 211 q 350 274 397 263 l 235 304 q 111 369 150 325 q 72 478 72 413 q 132 606 72 551 q 314 660 192 660 q 428 647 379 660 q 503 612 476 633 q 531 565 531 590 q 522 533 531 547 q 497 513 513 519 q 455 537 481 524 q 394 559 429 550 q 318 568 360 568 q 219 544 257 568 q 182 478 182 521 q 203 424 182 447 q 272 390 225 401 l 368 367 q 510 297 463 344 q 557 171 557 249 m 413 954 q 462 937 443 953 q 481 901 481 921 q 472 871 481 883 q 444 840 464 858 l 318 717 q 274 731 292 717 q 257 764 257 746 q 264 785 257 776 q 278 803 271 794 l 413 954 z "},"Ŝ":{"ha":726,"x_min":75,"x_max":661,"o":"m 357 76 q 498 119 450 76 q 546 228 546 161 q 509 322 546 285 q 393 382 472 360 l 272 418 q 171 465 214 436 q 105 535 128 493 q 82 635 82 578 q 160 802 82 742 q 367 863 238 863 q 501 847 442 863 q 594 806 560 831 q 628 753 628 781 q 618 720 628 735 q 593 697 608 706 q 499 746 558 725 q 371 767 440 767 q 243 731 290 767 q 196 635 196 696 q 230 556 196 586 q 340 503 264 525 l 425 478 q 598 389 535 447 q 661 228 661 331 q 581 50 661 118 q 357 -18 501 -18 q 209 1 272 -18 q 110 48 146 19 q 75 104 75 76 q 90 144 75 128 q 124 167 104 160 q 214 106 156 136 q 357 76 272 76 m 376 1043 q 322 985 354 1019 q 249 915 289 951 q 210 930 225 918 q 194 961 194 942 q 205 990 194 978 q 231 1018 215 1003 l 313 1100 q 378 1131 343 1131 q 415 1122 400 1131 q 447 1094 431 1113 l 561 965 q 548 931 561 944 q 514 918 535 918 q 485 926 499 918 q 451 957 471 935 l 376 1043 z "},"ŝ":{"ha":621,"x_min":64,"x_max":557,"o":"m 557 171 q 492 32 557 82 q 303 -18 426 -18 q 131 15 197 -18 q 64 86 64 47 q 73 119 64 103 q 100 144 82 135 q 188 96 138 118 q 301 74 238 74 q 446 171 446 74 q 422 237 446 211 q 350 274 397 263 l 235 304 q 111 369 150 325 q 72 478 72 413 q 132 606 72 551 q 314 660 192 660 q 428 647 379 660 q 503 612 476 633 q 531 565 531 590 q 522 533 531 547 q 497 513 513 519 q 455 537 481 524 q 394 559 429 550 q 318 568 360 568 q 219 544 257 568 q 182 478 182 521 q 203 424 182 447 q 272 390 225 401 l 368 367 q 510 297 463 344 q 557 171 557 249 m 311 858 q 248 787 279 819 q 189 722 217 754 q 147 738 164 725 q 131 768 131 750 q 140 795 131 783 q 161 821 149 807 l 246 913 q 278 936 264 928 q 311 944 293 944 q 348 936 333 944 q 376 911 363 928 l 493 772 q 483 740 493 754 q 450 725 472 725 q 423 733 433 725 q 401 751 413 740 l 311 858 z "},"Ş":{"ha":726,"x_min":75,"x_max":661,"o":"m 357 76 q 498 119 450 76 q 546 228 546 161 q 509 322 546 285 q 393 382 472 360 l 272 418 q 171 465 214 436 q 105 535 128 493 q 82 635 82 578 q 160 802 82 742 q 367 863 238 863 q 501 847 442 863 q 594 806 560 831 q 628 753 628 781 q 618 720 628 735 q 593 697 608 706 q 499 746 558 725 q 371 767 440 767 q 243 731 290 767 q 196 635 196 696 q 230 556 196 586 q 340 503 264 525 l 425 478 q 598 389 535 447 q 661 228 661 331 q 581 50 661 118 q 357 -18 501 -18 q 209 1 272 -18 q 110 48 146 19 q 75 104 75 76 q 90 144 75 128 q 124 167 104 160 q 214 106 156 136 q 357 76 272 76 m 379 24 q 435 -39 418 -3 q 451 -118 451 -75 q 410 -224 451 -185 q 301 -262 368 -262 q 248 -249 267 -262 q 229 -212 229 -236 q 238 -179 229 -193 l 258 -179 q 331 -158 308 -179 q 354 -100 354 -136 q 344 -49 354 -76 q 310 3 333 -21 l 379 24 z "},"ş":{"ha":621,"x_min":64,"x_max":557,"o":"m 557 171 q 492 32 557 82 q 303 -18 426 -18 q 131 15 197 -18 q 64 86 64 47 q 73 119 64 103 q 100 144 82 135 q 188 96 138 118 q 301 74 238 74 q 446 171 446 74 q 422 237 446 211 q 350 274 397 263 l 235 304 q 111 369 150 325 q 72 478 72 413 q 132 606 72 551 q 314 660 192 660 q 428 647 379 660 q 503 612 476 633 q 531 565 531 590 q 522 533 531 547 q 497 513 513 519 q 455 537 481 524 q 394 559 429 550 q 318 568 360 568 q 219 544 257 568 q 182 478 182 521 q 203 424 182 447 q 272 390 225 401 l 368 367 q 510 297 463 344 q 557 171 557 249 m 344 24 q 400 -39 383 -3 q 417 -118 417 -75 q 375 -224 417 -185 q 267 -262 333 -262 q 213 -249 232 -262 q 194 -212 194 -236 q 203 -179 194 -193 l 224 -179 q 297 -158 274 -179 q 319 -100 319 -136 q 309 -49 319 -76 q 275 3 299 -21 l 344 24 z "},"Š":{"ha":726,"x_min":75,"x_max":661,"o":"m 357 76 q 498 119 450 76 q 546 228 546 161 q 509 322 546 285 q 393 382 472 360 l 272 418 q 171 465 214 436 q 105 535 128 493 q 82 635 82 578 q 160 802 82 742 q 367 863 238 863 q 501 847 442 863 q 594 806 560 831 q 628 753 628 781 q 618 720 628 735 q 593 697 608 706 q 499 746 558 725 q 371 767 440 767 q 243 731 290 767 q 196 635 196 696 q 230 556 196 586 q 340 503 264 525 l 425 478 q 598 389 535 447 q 661 228 661 331 q 581 50 661 118 q 357 -18 501 -18 q 209 1 272 -18 q 110 48 146 19 q 75 104 75 76 q 90 144 75 128 q 124 167 104 160 q 214 106 156 136 q 357 76 272 76 m 368 1001 q 424 1060 392 1026 q 490 1131 456 1093 q 533 1117 515 1129 q 551 1085 551 1104 q 541 1056 551 1068 q 515 1028 531 1043 l 432 944 q 402 924 417 931 q 368 917 388 917 q 331 925 347 917 q 300 951 315 933 l 185 1074 q 197 1114 185 1100 q 231 1128 210 1128 q 260 1119 246 1128 q 293 1089 275 1111 l 368 1001 z "},"š":{"ha":621,"x_min":64,"x_max":557,"o":"m 557 171 q 492 32 557 82 q 303 -18 426 -18 q 131 15 197 -18 q 64 86 64 47 q 73 119 64 103 q 100 144 82 135 q 188 96 138 118 q 301 74 238 74 q 446 171 446 74 q 422 237 446 211 q 350 274 397 263 l 235 304 q 111 369 150 325 q 72 478 72 413 q 132 606 72 551 q 314 660 192 660 q 428 647 379 660 q 503 612 476 633 q 531 565 531 590 q 522 533 531 547 q 497 513 513 519 q 455 537 481 524 q 394 559 429 550 q 318 568 360 568 q 219 544 257 568 q 182 478 182 521 q 203 424 182 447 q 272 390 225 401 l 368 367 q 510 297 463 344 q 557 171 557 249 m 311 810 l 433 944 q 477 930 461 943 q 493 897 493 917 q 483 869 493 882 q 458 840 474 857 l 371 751 q 343 731 357 738 q 310 724 329 724 q 285 728 297 724 q 263 740 274 732 q 242 760 253 749 l 124 889 q 129 915 124 903 q 145 934 135 926 q 169 942 156 942 q 199 934 188 942 q 226 908 211 926 l 311 810 z "},"Ț":{"ha":726,"x_min":35,"x_max":692,"o":"m 356 844 l 679 844 q 688 826 683 839 q 692 800 692 814 q 681 763 692 778 q 649 749 669 749 l 363 749 l 356 844 m 372 749 l 47 749 q 39 768 43 756 q 35 794 35 781 q 46 831 35 818 q 78 844 57 844 l 365 844 l 372 749 m 419 786 l 419 3 q 398 -3 413 0 q 368 -7 383 -7 q 322 6 338 -7 q 307 44 307 18 l 307 786 l 419 786 m 354 -279 q 330 -299 343 -293 q 301 -304 317 -304 q 258 -286 272 -304 q 294 -186 278 -237 q 315 -96 311 -135 q 340 -88 328 -90 q 365 -86 351 -86 q 402 -97 388 -86 q 417 -128 417 -107 q 407 -180 417 -150 q 383 -236 397 -210 q 354 -279 368 -262 z "},"ț":{"ha":517,"x_min":106,"x_max":460,"o":"m 217 367 l 217 175 q 249 97 217 119 q 336 74 281 74 q 389 82 360 74 q 438 101 418 90 q 453 81 446 93 q 460 51 460 68 q 424 1 460 21 q 324 -18 388 -18 q 166 25 226 -18 q 106 168 106 68 l 106 367 l 217 367 m 163 628 l 444 628 q 453 610 449 622 q 457 583 457 597 q 446 549 457 561 q 415 536 435 536 l 163 536 l 163 628 m 106 325 l 106 828 q 127 834 113 831 q 158 838 142 838 q 202 826 188 838 q 217 788 217 814 l 217 325 l 106 325 m 278 -279 q 253 -299 267 -293 q 225 -304 240 -304 q 182 -286 196 -304 q 218 -186 201 -237 q 239 -96 235 -135 q 263 -88 251 -90 q 289 -86 275 -86 q 326 -97 311 -86 q 340 -128 340 -107 q 331 -180 340 -150 q 306 -236 321 -210 q 278 -279 292 -262 z "},"Ť":{"ha":726,"x_min":35,"x_max":692,"o":"m 356 844 l 679 844 q 688 826 683 839 q 692 800 692 814 q 681 763 692 778 q 649 749 669 749 l 363 749 l 356 844 m 372 749 l 47 749 q 39 768 43 756 q 35 794 35 781 q 46 831 35 818 q 78 844 57 844 l 365 844 l 372 749 m 419 786 l 419 3 q 398 -3 413 0 q 368 -7 383 -7 q 322 6 338 -7 q 307 44 307 18 l 307 786 l 419 786 m 363 1001 q 418 1060 386 1026 q 485 1131 450 1093 q 528 1117 510 1129 q 546 1085 546 1104 q 535 1056 546 1068 q 510 1028 525 1043 l 426 944 q 397 924 411 931 q 363 917 382 917 q 326 925 342 917 q 294 951 310 933 l 179 1074 q 192 1114 179 1100 q 225 1128 204 1128 q 255 1119 240 1128 q 288 1089 269 1111 l 363 1001 z "},"ť":{"ha":629,"x_min":106,"x_max":657,"o":"m 217 367 l 217 175 q 249 97 217 119 q 336 74 281 74 q 389 82 360 74 q 438 101 418 90 q 453 81 446 93 q 460 51 460 68 q 424 1 460 21 q 324 -18 388 -18 q 166 25 226 -18 q 106 168 106 68 l 106 367 l 217 367 m 163 628 l 444 628 q 453 610 449 622 q 457 583 457 597 q 446 549 457 561 q 415 536 435 536 l 163 536 l 163 628 m 106 325 l 106 828 q 127 834 113 831 q 158 838 142 838 q 202 826 188 838 q 217 788 217 814 l 217 325 l 106 325 m 594 717 q 570 697 583 703 q 542 692 557 692 q 499 710 513 692 q 535 810 518 758 q 556 900 551 861 q 580 908 568 906 q 606 910 592 910 q 642 899 628 910 q 657 868 657 889 q 647 816 657 846 q 623 760 638 786 q 594 717 608 733 z "},"Ũ":{"ha":901,"x_min":122,"x_max":779,"o":"m 450 -18 q 272 20 346 -18 q 160 128 199 58 q 122 292 122 199 l 122 406 l 235 406 l 235 301 q 297 134 235 190 q 450 78 358 78 q 603 134 542 78 q 665 301 665 190 l 665 406 l 779 406 l 779 292 q 741 128 779 199 q 629 20 703 58 q 450 -18 556 -18 m 122 349 l 122 842 q 144 848 129 844 q 175 851 158 851 q 220 840 206 851 q 235 800 235 828 l 235 349 l 122 349 m 665 349 l 665 842 q 687 848 672 844 q 718 851 701 851 q 764 840 749 851 q 779 800 779 828 l 779 349 l 665 349 m 354 1092 q 424 1080 393 1092 q 483 1056 456 1068 q 533 1044 510 1044 q 570 1060 558 1044 q 588 1097 582 1075 l 596 1097 q 640 1085 621 1097 q 660 1044 660 1074 q 632 982 660 1006 q 558 958 604 958 q 486 971 519 958 q 425 995 453 983 q 375 1007 397 1007 q 339 992 350 1007 q 322 953 328 976 l 314 953 q 269 965 289 953 q 250 1006 250 978 q 265 1052 250 1033 q 303 1081 279 1071 q 354 1092 328 1092 z "},"ũ":{"ha":765,"x_min":104,"x_max":660,"o":"m 104 361 l 215 361 l 215 240 q 263 113 215 151 q 393 74 310 74 q 488 85 449 74 q 549 110 526 97 l 549 361 l 660 361 l 660 114 q 652 67 660 85 q 615 33 644 50 q 528 -1 585 15 q 392 -18 471 -18 q 235 9 300 -18 q 138 92 171 36 q 104 235 104 149 l 104 361 m 549 289 l 549 639 q 570 645 556 642 q 600 649 585 649 q 645 637 631 649 q 660 597 660 625 l 660 289 l 549 289 m 104 289 l 104 639 q 126 645 111 642 q 157 649 140 649 q 201 637 186 649 q 215 597 215 625 l 215 289 l 104 289 m 282 904 q 352 892 321 904 q 410 869 383 881 q 461 857 438 857 q 498 872 486 857 q 515 910 510 888 l 524 910 q 568 898 549 910 q 588 857 588 886 q 560 794 588 818 q 486 771 532 771 q 414 783 447 771 q 353 808 381 796 q 303 819 325 819 q 267 804 278 819 q 250 765 256 789 l 242 765 q 197 778 217 765 q 178 818 178 790 q 192 865 178 846 q 231 894 207 883 q 282 904 256 904 z "},"Ū":{"ha":901,"x_min":122,"x_max":779,"o":"m 450 -18 q 272 20 346 -18 q 160 128 199 58 q 122 292 122 199 l 122 406 l 235 406 l 235 301 q 297 134 235 190 q 450 78 358 78 q 603 134 542 78 q 665 301 665 190 l 665 406 l 779 406 l 779 292 q 741 128 779 199 q 629 20 703 58 q 450 -18 556 -18 m 122 349 l 122 842 q 144 848 129 844 q 175 851 158 851 q 220 840 206 851 q 235 800 235 828 l 235 349 l 122 349 m 665 349 l 665 842 q 687 848 672 844 q 718 851 701 851 q 764 840 749 851 q 779 800 779 828 l 779 349 l 665 349 m 274 958 q 263 978 268 967 q 258 1003 258 989 q 271 1038 258 1026 q 303 1049 283 1049 l 619 1049 q 629 1028 625 1040 q 633 1004 633 1017 q 622 969 633 981 q 589 958 610 958 l 274 958 z "},"ū":{"ha":764,"x_min":104,"x_max":660,"o":"m 104 361 l 215 361 l 215 240 q 263 113 215 151 q 393 74 310 74 q 488 85 449 74 q 549 110 526 97 l 549 361 l 660 361 l 660 114 q 652 67 660 85 q 615 33 644 50 q 528 -1 585 15 q 392 -18 471 -18 q 235 9 300 -18 q 138 92 171 36 q 104 235 104 149 l 104 361 m 549 289 l 549 639 q 570 645 556 642 q 600 649 585 649 q 645 637 631 649 q 660 597 660 625 l 660 289 l 549 289 m 104 289 l 104 639 q 126 645 111 642 q 157 649 140 649 q 201 637 186 649 q 215 597 215 625 l 215 289 l 104 289 m 210 792 q 199 811 204 800 q 194 836 194 822 q 207 871 194 860 q 239 882 219 882 l 556 882 q 565 862 561 874 q 569 838 569 850 q 558 803 569 814 q 525 792 546 792 l 210 792 z "},"Ŭ":{"ha":901,"x_min":122,"x_max":779,"o":"m 450 -18 q 272 20 346 -18 q 160 128 199 58 q 122 292 122 199 l 122 406 l 235 406 l 235 301 q 297 134 235 190 q 450 78 358 78 q 603 134 542 78 q 665 301 665 190 l 665 406 l 779 406 l 779 292 q 741 128 779 199 q 629 20 703 58 q 450 -18 556 -18 m 122 349 l 122 842 q 144 848 129 844 q 175 851 158 851 q 220 840 206 851 q 235 800 235 828 l 235 349 l 122 349 m 665 349 l 665 842 q 687 848 672 844 q 718 851 701 851 q 764 840 749 851 q 779 800 779 828 l 779 349 l 665 349 m 453 994 q 524 1018 497 994 q 558 1086 551 1042 q 569 1088 564 1088 q 582 1089 575 1089 q 617 1076 604 1089 q 631 1036 631 1064 q 586 953 631 993 q 453 914 542 914 q 318 953 361 914 q 275 1036 275 993 q 288 1076 275 1064 q 324 1089 301 1089 q 337 1088 331 1089 q 347 1086 343 1088 q 382 1018 354 1042 q 453 994 410 994 z "},"ŭ":{"ha":765,"x_min":104,"x_max":660,"o":"m 104 361 l 215 361 l 215 240 q 263 113 215 151 q 393 74 310 74 q 488 85 449 74 q 549 110 526 97 l 549 361 l 660 361 l 660 114 q 652 67 660 85 q 615 33 644 50 q 528 -1 585 15 q 392 -18 471 -18 q 235 9 300 -18 q 138 92 171 36 q 104 235 104 149 l 104 361 m 549 289 l 549 639 q 570 645 556 642 q 600 649 585 649 q 645 637 631 649 q 660 597 660 625 l 660 289 l 549 289 m 104 289 l 104 639 q 126 645 111 642 q 157 649 140 649 q 201 637 186 649 q 215 597 215 625 l 215 289 l 104 289 m 382 832 q 453 856 426 832 q 488 924 481 879 q 499 926 493 925 q 511 926 504 926 q 547 914 533 926 q 560 874 560 901 q 515 791 560 831 q 382 751 471 751 q 247 791 290 751 q 204 874 204 831 q 217 914 204 901 q 253 926 231 926 q 266 926 260 926 q 276 924 272 925 q 311 856 283 879 q 382 832 339 832 z "},"Ů":{"ha":901,"x_min":122,"x_max":779,"o":"m 450 -18 q 272 20 346 -18 q 160 128 199 58 q 122 292 122 199 l 122 406 l 235 406 l 235 301 q 297 134 235 190 q 450 78 358 78 q 603 134 542 78 q 665 301 665 190 l 665 406 l 779 406 l 779 292 q 741 128 779 199 q 629 20 703 58 q 450 -18 556 -18 m 122 349 l 122 842 q 144 848 129 844 q 175 851 158 851 q 220 840 206 851 q 235 800 235 828 l 235 349 l 122 349 m 665 349 l 665 842 q 687 848 672 844 q 718 851 701 851 q 764 840 749 851 q 779 800 779 828 l 779 349 l 665 349 m 304 1033 q 344 1124 304 1088 q 451 1160 383 1160 q 560 1124 521 1160 q 599 1033 599 1088 q 560 944 599 981 q 451 908 521 908 q 344 944 383 908 q 304 1033 304 981 m 388 1033 q 406 992 388 1007 q 451 976 424 976 q 498 992 479 976 q 517 1033 517 1007 q 498 1076 517 1061 q 451 1092 479 1092 q 406 1076 424 1092 q 388 1033 388 1061 z "},"ů":{"ha":764,"x_min":104,"x_max":660,"o":"m 104 361 l 215 361 l 215 240 q 263 113 215 151 q 393 74 310 74 q 488 85 449 74 q 549 110 526 97 l 549 361 l 660 361 l 660 114 q 652 67 660 85 q 615 33 644 50 q 528 -1 585 15 q 392 -18 471 -18 q 235 9 300 -18 q 138 92 171 36 q 104 235 104 149 l 104 361 m 549 289 l 549 639 q 570 645 556 642 q 600 649 585 649 q 645 637 631 649 q 660 597 660 625 l 660 289 l 549 289 m 104 289 l 104 639 q 126 645 111 642 q 157 649 140 649 q 201 637 186 649 q 215 597 215 625 l 215 289 l 104 289 m 235 850 q 273 942 235 904 q 379 979 311 979 q 486 942 449 979 q 524 850 524 904 q 486 758 524 796 q 379 721 449 721 q 273 758 311 721 q 235 850 235 796 m 315 850 q 333 803 315 819 q 379 786 351 786 q 426 803 407 786 q 444 850 444 819 q 426 897 444 881 q 379 914 407 914 q 333 897 351 914 q 315 850 315 881 z "},"Ű":{"ha":901,"x_min":122,"x_max":779,"o":"m 450 -18 q 272 20 346 -18 q 160 128 199 58 q 122 292 122 199 l 122 406 l 235 406 l 235 301 q 297 134 235 190 q 450 78 358 78 q 603 134 542 78 q 665 301 665 190 l 665 406 l 779 406 l 779 292 q 741 128 779 199 q 629 20 703 58 q 450 -18 556 -18 m 122 349 l 122 842 q 144 848 129 844 q 175 851 158 851 q 220 840 206 851 q 235 800 235 828 l 235 349 l 122 349 m 665 349 l 665 842 q 687 848 672 844 q 718 851 701 851 q 764 840 749 851 q 779 800 779 828 l 779 349 l 665 349 m 378 1136 q 426 1121 408 1135 q 444 1088 444 1107 q 435 1055 444 1068 q 410 1022 426 1042 l 326 922 q 283 935 300 922 q 267 967 267 949 q 272 989 267 979 q 283 1008 278 999 l 378 1136 m 613 1136 q 661 1121 643 1135 q 679 1088 679 1107 q 669 1055 679 1068 q 644 1022 660 1042 l 561 922 q 518 935 535 922 q 501 967 501 949 q 507 989 501 979 q 518 1008 513 999 l 613 1136 z "},"ű":{"ha":764,"x_min":104,"x_max":660,"o":"m 104 361 l 215 361 l 215 240 q 263 113 215 151 q 393 74 310 74 q 488 85 449 74 q 549 110 526 97 l 549 361 l 660 361 l 660 114 q 652 67 660 85 q 615 33 644 50 q 528 -1 585 15 q 392 -18 471 -18 q 235 9 300 -18 q 138 92 171 36 q 104 235 104 149 l 104 361 m 549 289 l 549 639 q 570 645 556 642 q 600 649 585 649 q 645 637 631 649 q 660 597 660 625 l 660 289 l 549 289 m 104 289 l 104 639 q 126 645 111 642 q 157 649 140 649 q 201 637 186 649 q 215 597 215 625 l 215 289 l 104 289 m 325 954 q 374 939 356 953 q 392 906 392 925 q 383 874 392 888 q 357 840 374 860 l 258 717 q 215 730 232 717 q 197 761 197 743 q 203 783 197 774 q 215 803 208 793 l 325 954 m 558 954 q 607 939 589 953 q 625 906 625 925 q 616 874 625 888 q 590 840 607 860 l 492 717 q 449 730 465 717 q 432 761 432 743 q 437 783 432 774 q 449 803 442 793 l 558 954 z "},"Ų":{"ha":901,"x_min":122,"x_max":779,"o":"m 450 -18 q 272 20 346 -18 q 160 128 199 58 q 122 292 122 199 l 122 406 l 235 406 l 235 301 q 297 134 235 190 q 450 78 358 78 q 603 134 542 78 q 665 301 665 190 l 665 406 l 779 406 l 779 292 q 741 128 779 199 q 629 20 703 58 q 450 -18 556 -18 m 122 349 l 122 842 q 144 848 129 844 q 175 851 158 851 q 220 840 206 851 q 235 800 235 828 l 235 349 l 122 349 m 665 349 l 665 842 q 687 848 672 844 q 718 851 701 851 q 764 840 749 851 q 779 800 779 828 l 779 349 l 665 349 m 540 7 q 490 -37 511 -12 q 468 -101 468 -62 q 492 -157 468 -139 q 556 -175 515 -175 l 576 -175 q 583 -192 581 -183 q 585 -207 585 -200 q 569 -243 585 -229 q 517 -257 554 -257 q 413 -222 457 -257 q 368 -124 368 -186 q 385 -53 368 -82 q 425 -6 401 -25 q 468 24 449 14 l 540 7 z "},"ų":{"ha":764,"x_min":104,"x_max":660,"o":"m 640 53 q 563 -17 593 15 q 533 -101 533 -50 q 558 -157 533 -139 q 622 -175 582 -175 l 643 -175 q 649 -192 647 -183 q 651 -207 651 -200 q 635 -243 651 -229 q 583 -257 619 -257 q 478 -222 522 -257 q 433 -124 433 -186 q 467 -28 433 -62 q 535 22 501 7 l 640 53 m 104 361 l 215 361 l 215 240 q 263 113 215 151 q 393 74 310 74 q 488 85 449 74 q 549 110 526 97 l 549 361 l 660 361 l 660 114 q 652 67 660 85 q 615 33 644 50 q 581 22 601 25 q 538 10 561 18 q 474 -8 513 1 q 392 -18 436 -18 q 235 9 300 -18 q 138 92 171 36 q 104 235 104 149 l 104 361 m 549 289 l 549 639 q 570 645 556 642 q 600 649 585 649 q 645 637 631 649 q 660 597 660 625 l 660 289 l 549 289 m 104 289 l 104 639 q 126 645 111 642 q 157 649 140 649 q 201 637 186 649 q 215 597 215 625 l 215 289 l 104 289 z "},"Ŵ":{"ha":1110,"x_min":47,"x_max":1047,"o":"m 492 635 q 519 644 503 640 q 554 649 536 649 q 601 640 582 649 q 625 613 619 631 q 688 427 660 513 q 742 262 717 342 q 794 97 768 182 l 800 97 q 851 341 826 222 q 900 582 876 460 q 943 843 924 704 q 990 853 963 853 q 1032 841 1017 853 q 1047 806 1047 829 q 1040 726 1047 779 q 1019 601 1032 672 q 988 449 1006 529 q 951 290 971 369 q 913 139 932 210 q 875 15 893 68 q 843 2 863 8 q 799 -4 824 -4 q 747 6 768 -4 q 719 32 726 15 q 672 160 700 81 q 615 335 644 240 q 557 524 585 431 q 500 333 531 432 q 441 150 469 235 q 390 14 413 65 q 360 2 381 8 q 315 -4 340 -4 q 265 6 285 -4 q 238 32 244 17 q 203 136 224 67 q 161 295 183 206 q 117 481 139 385 q 77 667 96 578 q 47 826 58 757 q 74 844 57 836 q 110 853 90 853 q 149 841 135 853 q 168 801 163 829 q 203 632 186 714 q 237 467 219 550 q 274 292 254 383 q 317 97 293 201 l 322 97 q 360 217 342 160 q 397 334 378 274 q 440 467 417 394 q 492 635 463 539 m 561 1028 q 498 956 529 989 q 439 892 467 924 q 397 907 414 894 q 381 938 381 919 q 390 965 381 953 q 411 990 399 976 l 496 1082 q 528 1106 514 1097 q 561 1114 543 1114 q 598 1106 583 1114 q 626 1081 613 1097 l 743 942 q 733 909 743 924 q 700 894 722 894 q 673 902 683 894 q 651 921 663 910 l 561 1028 z "},"ŵ":{"ha":989,"x_min":40,"x_max":942,"o":"m 494 478 q 441 303 469 390 q 386 139 413 215 q 338 7 360 63 q 313 -4 326 0 q 275 -8 299 -8 q 234 -1 253 -8 q 208 24 215 7 q 177 104 194 51 q 141 225 160 157 q 103 366 122 293 q 67 507 83 439 q 40 628 51 575 q 65 646 50 638 q 100 654 79 654 q 140 640 126 654 q 158 593 153 625 q 187 461 171 535 q 220 315 203 388 q 252 185 238 243 q 274 100 267 128 l 279 100 q 314 209 290 133 q 370 382 338 285 q 436 579 403 479 q 463 590 447 586 q 496 593 478 593 q 538 584 521 593 q 560 557 554 575 q 622 369 593 461 q 674 205 651 276 q 706 99 696 133 l 713 99 q 782 364 744 222 q 843 642 819 506 q 890 654 863 654 q 928 643 914 654 q 942 608 942 632 q 933 550 942 593 q 908 449 924 507 q 874 324 893 390 q 836 197 856 258 q 799 85 817 135 q 769 7 782 35 q 747 -3 763 1 q 710 -8 731 -8 q 643 18 653 -8 q 599 142 624 68 q 547 303 574 217 q 494 478 521 390 m 497 858 q 434 787 465 819 q 375 722 403 754 q 333 738 350 725 q 317 768 317 750 q 326 795 317 783 q 347 821 335 807 l 432 913 q 465 936 450 928 q 497 944 479 944 q 534 936 519 944 q 563 911 549 928 l 679 772 q 669 740 679 754 q 636 725 658 725 q 609 733 619 725 q 588 751 599 740 l 497 858 z "},"Ŷ":{"ha":764,"x_min":29,"x_max":726,"o":"m 338 303 q 256 426 299 361 q 173 557 214 490 q 95 688 132 624 q 29 808 58 753 q 50 838 35 824 q 90 853 65 853 q 131 839 117 853 q 161 797 146 825 q 202 726 179 765 q 250 642 225 686 q 300 556 275 599 q 347 475 325 513 q 385 410 368 438 l 390 410 q 479 563 439 490 q 557 704 519 635 q 631 843 594 774 q 651 851 639 849 q 674 853 664 853 q 713 840 700 853 q 726 806 726 828 q 705 747 726 792 q 644 634 683 701 q 553 482 606 567 q 436 303 500 397 l 338 303 m 443 357 l 443 3 q 422 -3 436 0 q 392 -7 407 -7 q 346 6 361 -7 q 331 44 331 18 l 331 357 l 443 357 m 383 1043 q 328 985 361 1019 q 256 915 296 951 q 217 930 232 918 q 201 961 201 942 q 212 990 201 978 q 238 1018 222 1003 l 319 1100 q 385 1131 350 1131 q 422 1122 407 1131 q 454 1094 438 1113 l 568 965 q 555 931 568 944 q 521 918 542 918 q 492 926 506 918 q 458 957 478 935 l 383 1043 z "},"ŷ":{"ha":679,"x_min":42,"x_max":632,"o":"m 235 143 q 178 263 211 188 q 109 433 144 339 q 42 624 74 526 q 67 646 51 638 q 101 654 83 654 q 140 642 125 654 q 165 600 156 629 q 253 368 207 483 q 354 129 299 253 l 360 129 q 421 275 389 188 q 482 460 453 363 q 531 643 511 557 q 552 651 540 647 q 578 654 564 654 q 617 642 601 654 q 632 607 632 631 q 619 533 632 585 q 585 412 607 481 q 535 266 564 343 q 474 115 507 189 q 408 -19 442 40 q 292 -201 344 -137 q 194 -264 239 -264 q 145 -247 163 -264 q 124 -208 128 -231 q 192 -138 154 -182 q 266 -44 231 -94 q 324 53 301 7 q 280 78 300 60 q 235 143 260 96 m 349 858 q 285 787 317 819 q 226 722 254 754 q 185 738 201 725 q 168 768 168 750 q 177 795 168 783 q 199 821 186 807 l 283 913 q 316 936 301 928 q 349 944 331 944 q 385 936 371 944 q 414 911 400 928 l 531 772 q 520 740 531 754 q 488 725 510 725 q 460 733 471 725 q 439 751 450 740 l 349 858 z "},"Ÿ":{"ha":764,"x_min":29,"x_max":726,"o":"m 338 303 q 256 426 299 361 q 173 557 214 490 q 95 688 132 624 q 29 808 58 753 q 50 838 35 824 q 90 853 65 853 q 131 839 117 853 q 161 797 146 825 q 202 726 179 765 q 250 642 225 686 q 300 556 275 599 q 347 475 325 513 q 385 410 368 438 l 390 410 q 479 563 439 490 q 557 704 519 635 q 631 843 594 774 q 651 851 639 849 q 674 853 664 853 q 713 840 700 853 q 726 806 726 828 q 705 747 726 792 q 644 634 683 701 q 553 482 606 567 q 436 303 500 397 l 338 303 m 443 357 l 443 3 q 422 -3 436 0 q 392 -7 407 -7 q 346 6 361 -7 q 331 44 331 18 l 331 357 l 443 357 m 336 1013 q 317 966 336 986 q 267 946 297 946 q 219 966 238 946 q 200 1013 200 986 q 219 1060 200 1040 q 267 1079 238 1079 q 317 1060 297 1079 q 336 1013 336 1040 m 576 1013 q 556 966 576 986 q 507 946 536 946 q 459 966 479 946 q 439 1013 439 986 q 459 1060 439 1040 q 507 1079 479 1079 q 556 1060 536 1079 q 576 1013 576 1040 z "},"Ź":{"ha":774,"x_min":69,"x_max":707,"o":"m 626 844 l 671 844 q 697 792 697 822 q 690 757 697 772 q 668 722 682 742 l 142 0 l 96 0 q 77 24 85 10 q 69 53 69 38 q 77 88 69 72 q 99 122 85 104 l 626 844 m 129 96 l 693 96 q 703 77 699 89 q 707 50 707 65 q 695 14 707 28 q 664 0 683 0 l 125 0 l 129 96 m 642 749 l 93 749 q 84 768 89 756 q 79 794 79 781 q 91 831 79 818 q 124 844 103 844 l 644 844 l 642 749 m 485 1139 q 531 1123 515 1138 q 547 1089 547 1108 q 540 1057 547 1069 q 513 1028 532 1044 l 394 922 q 353 936 368 925 q 339 964 339 947 q 344 988 339 978 q 358 1006 350 997 l 485 1139 z "},"ź":{"ha":651,"x_min":63,"x_max":590,"o":"m 85 0 q 69 22 75 8 q 63 49 63 35 q 70 80 63 65 q 88 108 78 94 l 514 642 l 557 642 q 574 619 568 632 q 581 592 581 607 q 574 563 581 576 q 554 533 567 549 l 129 0 l 85 0 m 542 550 l 83 550 q 75 569 79 557 q 71 596 71 582 q 82 631 71 619 q 113 642 93 642 l 542 642 l 542 550 m 93 90 l 578 90 q 586 73 582 85 q 590 46 590 61 q 579 12 590 24 q 547 0 568 0 l 93 0 l 93 90 m 442 954 q 491 937 472 953 q 510 901 510 921 q 501 871 510 883 q 474 840 493 858 l 347 717 q 303 731 321 717 q 286 764 286 746 q 293 785 286 776 q 307 803 300 794 l 442 954 z "},"Ż":{"ha":774,"x_min":69,"x_max":707,"o":"m 626 844 l 671 844 q 697 792 697 822 q 690 757 697 772 q 668 722 682 742 l 142 0 l 96 0 q 77 24 85 10 q 69 53 69 38 q 77 88 69 72 q 99 122 85 104 l 626 844 m 129 96 l 693 96 q 703 77 699 89 q 707 50 707 65 q 695 14 707 28 q 664 0 683 0 l 125 0 l 129 96 m 642 749 l 93 749 q 84 768 89 756 q 79 794 79 781 q 91 831 79 818 q 124 844 103 844 l 644 844 l 642 749 m 463 1014 q 443 965 463 983 q 392 946 424 946 q 342 965 361 946 q 322 1014 322 983 q 342 1065 322 1046 q 392 1083 361 1083 q 443 1065 424 1083 q 463 1014 463 1046 z "},"ż":{"ha":651,"x_min":63,"x_max":590,"o":"m 85 0 q 69 22 75 8 q 63 49 63 35 q 70 80 63 65 q 88 108 78 94 l 514 642 l 557 642 q 574 619 568 632 q 581 592 581 607 q 574 563 581 576 q 554 533 567 549 l 129 0 l 85 0 m 542 550 l 83 550 q 75 569 79 557 q 71 596 71 582 q 82 631 71 619 q 113 642 93 642 l 542 642 l 542 550 m 93 90 l 578 90 q 586 73 582 85 q 590 46 590 61 q 579 12 590 24 q 547 0 568 0 l 93 0 l 93 90 m 393 843 q 374 794 393 813 q 322 775 354 775 q 272 794 292 775 q 253 843 253 813 q 272 894 253 875 q 322 913 292 913 q 374 894 354 913 q 393 843 393 875 z "},"Ž":{"ha":774,"x_min":69,"x_max":707,"o":"m 626 844 l 671 844 q 697 792 697 822 q 690 757 697 772 q 668 722 682 742 l 142 0 l 96 0 q 77 24 85 10 q 69 53 69 38 q 77 88 69 72 q 99 122 85 104 l 626 844 m 129 96 l 693 96 q 703 77 699 89 q 707 50 707 65 q 695 14 707 28 q 664 0 683 0 l 125 0 l 129 96 m 642 749 l 93 749 q 84 768 89 756 q 79 794 79 781 q 91 831 79 818 q 124 844 103 844 l 644 844 l 642 749 m 394 1001 q 450 1060 418 1026 q 517 1131 482 1093 q 560 1117 542 1129 q 578 1085 578 1104 q 567 1056 578 1068 q 542 1028 557 1043 l 458 944 q 428 924 443 931 q 394 917 414 917 q 358 925 374 917 q 326 951 342 933 l 211 1074 q 224 1114 211 1100 q 257 1128 236 1128 q 287 1119 272 1128 q 319 1089 301 1111 l 394 1001 z "},"ž":{"ha":651,"x_min":63,"x_max":590,"o":"m 85 0 q 69 22 75 8 q 63 49 63 35 q 70 80 63 65 q 88 108 78 94 l 514 642 l 557 642 q 574 619 568 632 q 581 592 581 607 q 574 563 581 576 q 554 533 567 549 l 129 0 l 85 0 m 542 550 l 83 550 q 75 569 79 557 q 71 596 71 582 q 82 631 71 619 q 113 642 93 642 l 542 642 l 542 550 m 93 90 l 578 90 q 586 73 582 85 q 590 46 590 61 q 579 12 590 24 q 547 0 568 0 l 93 0 l 93 90 m 328 810 l 450 944 q 494 930 478 943 q 510 897 510 917 q 500 869 510 882 q 475 840 490 857 l 388 751 q 360 731 374 738 q 326 724 346 724 q 302 728 314 724 q 280 740 290 732 q 258 760 269 749 l 140 889 q 146 915 140 903 q 162 934 151 926 q 186 942 172 942 q 216 934 204 942 q 243 908 228 926 l 328 810 z "},"Ə":{"ha":903,"x_min":68,"x_max":826,"o":"m 732 408 l 182 321 q 219 197 188 253 q 306 108 250 140 q 440 75 361 75 q 640 155 568 75 q 713 397 713 235 l 713 428 q 665 614 707 540 q 557 724 624 688 q 408 760 490 760 q 263 729 328 760 q 157 658 197 699 q 124 680 138 667 q 110 715 110 693 q 126 758 110 740 q 157 786 143 775 q 261 833 193 811 q 410 856 329 856 q 565 831 490 856 q 698 752 639 806 q 792 614 757 699 q 826 411 826 529 q 780 180 826 276 q 647 31 733 83 q 440 -21 561 -21 q 236 28 319 -21 q 110 158 153 78 q 68 333 68 239 q 87 390 68 372 q 136 411 106 407 l 721 504 l 732 408 z "}}}
